<svg xmlns="http://www.w3.org/2000/svg" width="71.875" height="80" viewBox="0 0 71.875 80">
  <g id="Group_11700" data-name="Group 11700" transform="translate(-26.001)">
    <g id="Group_11699" data-name="Group 11699">
      <g id="Group_11657" data-name="Group 11657" transform="translate(26.001)">
        <g id="Group_11656" data-name="Group 11656">
          <path id="Path_16185" data-name="Path 16185" d="M87.352,18.534A35.641,35.641,0,0,0,64.282,8.063V4.688H67.72A2.344,2.344,0,0,0,67.72,0H56.157a2.344,2.344,0,0,0,0,4.688h3.438V8.063a35.565,35.565,0,0,0-16.672,5.363L40.7,11.2a5.734,5.734,0,0,0-8.118,0l-3.386,3.393a5.743,5.743,0,0,0,0,8.1l2.242,2.246a35.94,35.94,0,1,0,55.918-6.4ZM32.51,17.9,35.9,14.507a1.047,1.047,0,0,1,1.482,0l1.7,1.7q-1.321,1.1-2.551,2.325t-2.314,2.549l-1.7-1.7A1.048,1.048,0,0,1,32.51,17.9ZM61.938,75.313a31.32,31.32,0,1,1,31.25-31.32A31.32,31.32,0,0,1,61.938,75.313Z" transform="translate(-26.001)" fill="#dee2ed"/>
        </g>
      </g>
      <g id="Group_11659" data-name="Group 11659" transform="translate(35.063 17.066)">
        <g id="Group_11658" data-name="Group 11658">
          <path id="Path_16186" data-name="Path 16186" d="M110.874,109.226a26.926,26.926,0,1,0,26.875,26.926A26.931,26.931,0,0,0,110.874,109.226Zm2.344,49.041v-2.74a2.344,2.344,0,0,0-4.687,0v2.74A22.254,22.254,0,0,1,88.81,138.5H91.5a2.344,2.344,0,0,0,0-4.687H88.81a22.254,22.254,0,0,1,19.721-19.771v2.74a2.344,2.344,0,0,0,4.688,0v-2.74a22.254,22.254,0,0,1,19.721,19.771h-2.69a2.344,2.344,0,0,0,0,4.688h2.689A22.254,22.254,0,0,1,113.218,158.267Z" transform="translate(-83.999 -109.226)" fill="#dee2ed"/>
        </g>
      </g>
    </g>
    <g id="Group_11661" data-name="Group 11661" transform="translate(59.726 30.816)">
      <g id="Group_11660" data-name="Group 11660">
        <path id="Path_16187" data-name="Path 16187" d="M249.832,209.053h-3.307v-9.479a2.344,2.344,0,1,0-4.687,0V211.4a2.344,2.344,0,0,0,2.344,2.344h5.65a2.344,2.344,0,0,0,0-4.687Z" transform="translate(-241.838 -197.23)" fill="#dee2ed"/>
      </g>
    </g>
  </g>
</svg>
