<svg id="Group_11558" data-name="Group 11558" xmlns="http://www.w3.org/2000/svg" width="30" height="30" viewBox="0 0 30 30">
  <rect id="Rectangle_2262" data-name="Rectangle 2262" width="30" height="30" fill="#868d9c" opacity="0"/>
  <path id="Path_11419" data-name="Path 11419" d="M126.258,1.148a3.029,3.029,0,0,0-4.283,0L109.967,13.156a.673.673,0,0,0-.173.3l-1.579,5.7a.673.673,0,0,0,.828.828l5.7-1.579a.673.673,0,0,0,.3-.173L127.048,6.221a3.032,3.032,0,0,0,0-4.283ZM111.433,13.593l9.828-9.828,3.169,3.169L114.6,16.763Zm-.633,1.27,2.532,2.532-3.5.97Zm15.3-9.594-.714.714-3.17-3.17.714-.714a1.683,1.683,0,0,1,2.379,0l.79.79A1.685,1.685,0,0,1,126.1,5.269Zm0,0" transform="translate(-103.278 4.647)" fill="#868d9c" stroke="#868d9c" stroke-width="0.5"/>
</svg>
