<?xml version="1.0" encoding="utf-8"?>
<!-- Generator: Adobe Illustrator 24.0.1, SVG Export Plug-In . SVG Version: 6.00 Build 0)  -->
<svg version="1.1" id="Layer_1" xmlns="http://www.w3.org/2000/svg" xmlns:xlink="http://www.w3.org/1999/xlink" x="0px" y="0px"
	 viewBox="0 0 136 36" style="enable-background:new 0 0 136 36;" xml:space="preserve">
<style type="text/css">
	.st0{fill:#EA5045;}
	.st1{fill:#1B2E6A;}
</style>
<g>
	<path class="st0" d="M5.1,2.8h30.6V0.2H5.1c-2.7,0-4.9,2.2-4.9,4.9v19.8c0,2.7,2.2,4.9,4.9,4.9h22.2h2.6v-2.6V17
		c0-2.7-2.2-4.9-4.9-4.9h-8c-2,0-2.8,1-3,1.5c-0.2,0.6-0.4,1.8,1,3.2l4.2,4.2c0.1,0.1,0.2,0.3,0.3,0.3c-0.1,0-0.3,0-0.5,0h-8
		c-1.3,0-2.3-1.1-2.3-2.3V8.7h22.2c1.3,0,2.3,1.1,2.3,2.3v19.8c0,1.3-1.1,2.3-2.3,2.3H0.2v2.6h30.6c2.7,0,4.9-2.2,4.9-4.9V11.1
		c0-2.7-2.2-4.9-4.9-4.9H8.6H6.1v2.6V19c0,2.7,2.2,4.9,4.9,4.9h8c2,0,2.8-1,3-1.5c0.2-0.6,0.4-1.8-1-3.2L16.8,15
		c-0.1-0.1-0.2-0.3-0.3-0.3c0.1,0,0.3,0,0.5,0h8c1.3,0,2.3,1.1,2.3,2.3v10.3H5.1c-1.3,0-2.3-1.1-2.3-2.3V5.1
		C2.7,3.8,3.8,2.8,5.1,2.8z"/>
	<path class="st1" d="M51.5,8.5c0.1,0.1,0.2,0.3,0.2,0.4s0,0.2-0.1,0.4L51.1,10c-0.1,0.1-0.2,0.2-0.4,0.2c-0.1,0-0.2,0-0.4-0.1
		c-0.6-0.3-0.9-0.4-1.5-0.4c-0.7,0-1.1,0.4-1.1,0.8c0,0.7,0.7,0.9,2.2,1.7c1.2,0.6,2.3,1.4,2.3,2.9c0,2-1.7,2.9-3.9,2.9
		c-1.6,0-2.6-0.5-3.1-0.9c-0.1-0.1-0.2-0.2-0.2-0.4c0-0.1,0.1-0.3,0.2-0.4l0.5-0.7c0.1-0.1,0.2-0.2,0.4-0.2c0.1,0,0.2,0.1,0.4,0.2
		c0.5,0.3,1.1,0.5,1.8,0.5c0.9,0,1.5-0.3,1.5-0.9c0-0.6-0.6-0.9-1.5-1.4c-1.3-0.6-3-1.2-3-3c0-1.8,1.5-2.9,3.5-2.9
		C50.4,7.7,51.1,8.2,51.5,8.5z"/>
	<path class="st1" d="M61.1,12.8c0-1.9-1.2-3-2.6-3c-1,0-1.8,0.6-2.3,1.3v3.4c0.6,0.7,1.4,1.3,2.3,1.3
		C59.9,15.8,61.1,14.7,61.1,12.8z M63.6,12.8c0,3-2.2,5.1-4.7,5.1c-1,0-2-0.4-2.7-1v2.7c0,0.3-0.2,0.5-0.5,0.5h-1.5
		c-0.3,0-0.5-0.2-0.5-0.5V8.1c0-0.3,0.1-0.4,0.3-0.4c0.1,0,0.2,0,0.4,0.2l1.5,1c0.7-0.6,1.6-1.2,3-1.2C61.4,7.7,63.6,9.7,63.6,12.8z
		"/>
	<path class="st1" d="M68.5,15.9c0.9,0,1.7-0.4,2.4-1v-2.3l-2.4,0.5c-1.5,0.3-1.8,1-1.8,1.5C66.8,15.6,67.6,16,68.5,15.9z
		 M73.4,11.5v6c0,0.3-0.1,0.4-0.3,0.4c-0.1,0-0.2,0-0.4-0.2l-1.4-0.9c-0.8,0.6-1.8,1.1-3.2,1.1c-2.4,0-3.5-1.6-3.5-3.2
		c0-1.4,0.9-2.8,3.3-3.2l3.1-0.5c0-0.3-0.3-0.7-0.6-0.9c-0.4-0.2-1-0.5-2-0.5c-0.9,0-1.7,0.2-2.1,0.2c-0.2,0-0.3,0.1-0.3,0.1
		c-0.2,0-0.4-0.1-0.4-0.4l-0.2-0.8c-0.1-0.2-0.1-0.3-0.1-0.3c0-0.2,0.1-0.4,0.4-0.4c0.6-0.1,1.6-0.3,2.7-0.3C70,7.7,71,8,71.8,8.5
		C72.9,9.1,73.4,10.3,73.4,11.5z"/>
	<path class="st1" d="M81.9,8.4c0,0.1,0,0.2-0.1,0.3l-1,1.4c-0.2,0.3-0.4,0.3-0.7,0.2c-0.2-0.1-0.4-0.1-0.7-0.1
		c-0.3,0-1.3,0.2-1.8,0.8v6.2c0,0.3-0.2,0.5-0.5,0.5h-1.6c-0.3,0-0.5-0.2-0.5-0.5V8.1c0-0.3,0.1-0.4,0.3-0.4c0.1,0,0.2,0,0.4,0.2
		l1.5,1c0.8-0.7,1.8-1.2,3-1.2c0.7,0,1.1,0.2,1.4,0.3C81.8,8.1,81.9,8.2,81.9,8.4z"/>
	<path class="st1" d="M91.2,17.3c0,0.2-0.2,0.4-0.5,0.4h-1.7c-0.3,0-0.5-0.1-0.6-0.3l-3.1-3.7v3.5c0,0.3-0.2,0.5-0.5,0.5h-1.5
		c-0.3,0-0.5-0.2-0.5-0.5V6.5c0-0.3,0.2-0.5,0.5-0.5h1.5c0.3,0,0.5,0.2,0.5,0.5v5.1l2.8-3.4c0.2-0.2,0.4-0.3,0.6-0.3h1.7
		c0.4,0,0.5,0.4,0.3,0.6l-3.5,4.1l3.9,4.5C91.2,17.2,91.2,17.2,91.2,17.3z"/>
	<path class="st1" d="M94.9,6.3v8.7c0,0.9,0.2,1.5,1,1.5c0.5,0,0.8-0.2,1-0.2c0.1,0,0.2,0.1,0.3,0.2l0.2,0.4
		c0.1,0.1,0.1,0.2,0.1,0.2c0,0.1-0.1,0.2-0.2,0.3c-0.6,0.3-1.2,0.4-1.7,0.4c-1.3,0-2.2-0.7-2.2-2.4V6.3c0-0.2,0.1-0.4,0.4-0.4h0.8
		C94.8,6,94.9,6.1,94.9,6.3z"/>
	<path class="st1" d="M106.2,12.8c0-2.3-1.4-3.7-3.3-3.7c-1.9,0-3.3,1.4-3.3,3.7c0,2.3,1.4,3.7,3.3,3.7
		C104.7,16.5,106.2,15.1,106.2,12.8z M102.9,17.9c-2.8,0-4.8-2-4.8-5.1c0-3.1,2-5.1,4.8-5.1c2.8,0,4.8,2,4.8,5.1
		C107.7,15.9,105.7,17.9,102.9,17.9z"/>
	<path class="st1" d="M115.5,15.4v-3.1l-3.1,0.6c-1.6,0.3-2.2,1-2.2,1.9c0,1.3,1.1,1.9,2.3,1.8C113.7,16.6,114.7,16,115.5,15.4z
		 M116.9,11.1v6.5c0,0.2-0.1,0.3-0.2,0.3c-0.1,0-0.1,0-0.3-0.1l-0.8-0.5c-0.2-0.1-0.2-0.2-0.2-0.4c-0.7,0.5-1.8,1-3.2,1
		c-2.3,0-3.5-1.4-3.5-3.1c0-1.5,0.9-2.7,3.1-3l3.6-0.6v-0.3c0-0.6-0.4-1.2-1-1.5c-0.5-0.3-1.2-0.4-2.2-0.4c-0.8,0-1.7,0.2-2.1,0.3
		c-0.1,0-0.2,0-0.2,0c-0.1,0-0.3-0.1-0.3-0.3l-0.1-0.5c0-0.1,0-0.2,0-0.3c0-0.1,0.1-0.2,0.3-0.2c0.6-0.2,1.8-0.4,2.5-0.4
		c1.4,0,2.5,0.3,3.2,0.7C116.4,9,116.9,10,116.9,11.1z"/>
	<path class="st1" d="M127.5,11v6.3c0,0.2-0.1,0.4-0.4,0.4h-0.8c-0.2,0-0.4-0.1-0.4-0.4v-6.1c0-1.4-0.8-2.1-2.3-2.1
		c-1.3,0-2.7,0.9-3.1,1.6v6.6c0,0.2-0.1,0.4-0.4,0.4h-0.8c-0.2,0-0.4-0.1-0.4-0.4V8c0-0.2,0.1-0.3,0.2-0.3c0.1,0,0.1,0,0.2,0.1
		l0.8,0.5c0.2,0.1,0.2,0.2,0.2,0.4V9c0.8-0.7,1.9-1.3,3.4-1.3C126.3,7.7,127.5,9,127.5,11z"/>
	<path class="st1" d="M135.2,8.5c0.1,0.1,0.1,0.2,0.1,0.3c0,0.1,0,0.1-0.1,0.2L135,9.5c-0.1,0.1-0.2,0.2-0.3,0.2
		c-0.1,0-0.2,0-0.2-0.1c-0.6-0.3-1-0.5-1.7-0.5c-0.9,0-1.6,0.5-1.6,1.4c0,1.1,0.9,1.3,2.5,2.1c1.2,0.6,2.2,1.4,2.2,2.8
		c0,1.8-1.4,2.7-3.5,2.7c-1.5,0-2.5-0.6-3.1-1c-0.1-0.1-0.2-0.2-0.2-0.3c0-0.1,0.1-0.2,0.1-0.3l0.3-0.4c0.1-0.1,0.2-0.2,0.3-0.2
		c0.1,0,0.2,0,0.3,0.1c0.4,0.2,1.1,0.7,2.3,0.7c1.1,0,1.9-0.5,1.9-1.3c0-1.1-1.2-1.5-2.1-1.9c-1.3-0.6-2.7-1.2-2.7-2.9
		c0-1.6,1.4-2.7,3.1-2.7C134,7.7,134.8,8.2,135.2,8.5z"/>
	<path class="st1" d="M90.8,12.1h0.8c0.2,0,0.3,0.1,0.3,0.3v0.8c0,0.2-0.1,0.3-0.3,0.3h-0.8c-0.2,0-0.3-0.1-0.3-0.3v-0.8
		C90.5,12.2,90.6,12.1,90.8,12.1z"/>
	<path class="st1" d="M59.1,26v0.2h0.9c0.1,0,0.2,0,0.2,0.1c0,0,0,0.1,0,0.1L60,26.8c-0.1,0.1-0.1,0.1-0.2,0.1h-0.6V30
		c0,0.1-0.1,0.2-0.2,0.2h-0.5c-0.1,0-0.2-0.1-0.2-0.2v-3.1h-0.4c-0.1,0-0.2-0.1-0.2-0.2v-0.4c0-0.1,0.1-0.2,0.2-0.2h0.4V26
		c0-0.9,0.5-1.5,1.3-1.5c0.3,0,0.5,0.1,0.7,0.1c0.1,0,0.1,0.1,0.1,0.1c0,0,0,0.1,0,0.1l-0.1,0.2c0,0.1-0.1,0.1-0.2,0.1
		c-0.2,0-0.3-0.1-0.4,0C59.3,25.2,59.1,25.4,59.1,26z"/>
	<path class="st1" d="M63.5,28.2c0-0.8-0.5-1.3-1.2-1.3c-0.6,0-1.2,0.5-1.2,1.3s0.5,1.3,1.2,1.3C63,29.5,63.5,29,63.5,28.2z
		 M62.3,30.3c-1.1,0-2-0.8-2-2.1c0-1.3,0.9-2.1,2-2.1c1.1,0,2,0.8,2,2.1C64.3,29.5,63.5,30.3,62.3,30.3z"/>
	<path class="st1" d="M67.9,26.4c0,0,0,0.1,0,0.1L67.5,27c-0.1,0.1-0.1,0.1-0.2,0.1C67.2,27,67.1,27,67,27c-0.2,0-0.7,0.2-0.9,0.4
		V30c0,0.1-0.1,0.2-0.2,0.2h-0.5c-0.1,0-0.2-0.1-0.2-0.2v-3.7c0-0.1,0-0.2,0.1-0.2c0,0,0.1,0,0.2,0.1l0.6,0.4
		c0.3-0.3,0.7-0.4,1.2-0.4c0.2,0,0.4,0.1,0.6,0.1C67.9,26.3,67.9,26.3,67.9,26.4z"/>
	<path class="st1" d="M72.8,29.9c0,0.1,0,0.1-0.1,0.1c-0.2,0.1-0.5,0.2-0.8,0.2c-0.6,0-1.1-0.3-1.1-1v-2.3h-0.4
		c-0.1,0-0.2-0.1-0.2-0.2v-0.4c0-0.1,0.1-0.2,0.2-0.2h0.4v-0.7c0-0.1,0.1-0.2,0.2-0.2h0.5c0.1,0,0.2,0.1,0.2,0.2v0.7h1
		c0.1,0,0.2,0,0.2,0.1c0,0,0,0.1-0.1,0.2l-0.2,0.3c-0.1,0.1-0.1,0.2-0.2,0.2h-0.6v2.2c0,0.3,0.1,0.5,0.4,0.5c0.2,0,0.3-0.1,0.3-0.1
		c0.1,0,0.2,0,0.2,0.1l0.2,0.3C72.7,29.8,72.8,29.9,72.8,29.9z"/>
	<path class="st1" d="M77,27.6V30c0,0.1-0.1,0.2-0.2,0.2h-0.5c-0.1,0-0.2-0.1-0.2-0.2v-2.4c0-0.5-0.3-0.7-0.8-0.7
		c-0.5,0-0.9,0.3-1.1,0.5V30c0,0.1-0.1,0.2-0.2,0.2h-0.5c-0.1,0-0.2-0.1-0.2-0.2v-5.2c0-0.1,0.1-0.2,0.2-0.2h0.5
		c0.1,0,0.2,0.1,0.2,0.2v1.7c0.3-0.2,0.8-0.4,1.3-0.4C76.5,26.1,77,26.8,77,27.6z"/>
	<path class="st1" d="M78.7,27.9h2.2c0-0.5-0.4-1.1-1.1-1.1C79.1,26.8,78.7,27.4,78.7,27.9z M81.8,28.2v0.2c0,0.1-0.1,0.2-0.2,0.2
		h-0.7h-2.2c0,0.6,0.5,1,1.3,1c0.5,0,0.8-0.2,0.9-0.3c0.1-0.1,0.2-0.1,0.3,0l0.2,0.3c0.1,0.1,0.1,0.2,0,0.2
		c-0.2,0.2-0.7,0.4-1.4,0.4c-1.5,0-2.1-1-2.1-2.1c0-1.1,0.6-2.1,1.9-2.1C81.1,26.1,81.8,27.1,81.8,28.2z"/>
	<path class="st1" d="M87.8,28.2c0-0.8-0.5-1.3-1.1-1.3c-0.4,0-0.8,0.3-1.1,0.6v1.5c0.2,0.3,0.6,0.6,1.1,0.6
		C87.3,29.5,87.8,29,87.8,28.2z M88.7,28.2c0,1.2-0.9,2.1-1.9,2.1c-0.5,0-0.9-0.2-1.2-0.5L85,30.2c-0.1,0-0.1,0.1-0.2,0.1
		c-0.1,0-0.1,0-0.1-0.2v-5.3c0-0.1,0.1-0.2,0.2-0.2h0.5c0.1,0,0.2,0.1,0.2,0.2v1.8c0.3-0.3,0.7-0.4,1.2-0.4
		C87.8,26.1,88.7,26.9,88.7,28.2z"/>
	<path class="st1" d="M92.2,26.4c0,0,0,0.1,0,0.1L91.9,27c-0.1,0.1-0.1,0.1-0.2,0.1c-0.1,0-0.2-0.1-0.3-0.1c-0.2,0-0.7,0.2-0.9,0.4
		V30c0,0.1-0.1,0.2-0.2,0.2h-0.5c-0.1,0-0.2-0.1-0.2-0.2v-3.7c0-0.1,0-0.2,0.1-0.2c0,0,0.1,0,0.2,0.1l0.6,0.4
		c0.3-0.3,0.7-0.4,1.2-0.4c0.2,0,0.4,0.1,0.6,0.1C92.2,26.3,92.2,26.3,92.2,26.4z"/>
	<path class="st1" d="M93.8,24.9v0.5c0,0.1-0.1,0.2-0.2,0.2H93c-0.1,0-0.2-0.1-0.2-0.2v-0.5c0-0.1,0.1-0.2,0.2-0.2h0.6
		C93.7,24.7,93.8,24.8,93.8,24.9z M93.7,26.4V30c0,0.1-0.1,0.2-0.2,0.2h-0.5c-0.1,0-0.2-0.1-0.2-0.2v-3.2l-0.2-0.4
		c0-0.1-0.1-0.1-0.1-0.2c0-0.1,0-0.1,0.1-0.1h0.7h0.2C93.7,26.2,93.7,26.3,93.7,26.4z"/>
	<path class="st1" d="M97.7,28.9v-1.5c-0.2-0.3-0.6-0.6-1.1-0.6c-0.6,0-1.1,0.5-1.1,1.3c0,0.8,0.5,1.3,1.1,1.3
		C97.1,29.5,97.5,29.2,97.7,28.9z M98.6,26.3v3.9c0,0.8-0.6,1.7-2,1.7c-0.8,0-1.3-0.2-1.5-0.4c-0.1,0-0.1-0.1-0.1-0.1
		c0,0,0-0.1,0-0.1l0.2-0.3c0.1-0.1,0.2-0.1,0.2,0c0.2,0.1,0.6,0.3,1.1,0.3c0.8,0,1.2-0.5,1.2-0.9v-0.3c-0.3,0.3-0.7,0.4-1.2,0.4
		c-1,0-1.9-0.8-1.9-2.1c0-1.3,0.9-2.1,1.9-2.1c0.5,0,0.9,0.2,1.2,0.4l0.6-0.4c0.1,0,0.1-0.1,0.1-0.1C98.5,26.1,98.6,26.2,98.6,26.3z
		"/>
	<path class="st1" d="M103.3,27.6V30c0,0.1-0.1,0.2-0.2,0.2h-0.5c-0.1,0-0.2-0.1-0.2-0.2v-2.4c0-0.5-0.3-0.7-0.8-0.7
		c-0.5,0-0.9,0.3-1.1,0.5V30c0,0.1-0.1,0.2-0.2,0.2h-0.5c-0.1,0-0.2-0.1-0.2-0.2v-5.2c0-0.1,0.1-0.2,0.2-0.2h0.5
		c0.1,0,0.2,0.1,0.2,0.2v1.7c0.3-0.2,0.8-0.4,1.3-0.4C102.9,26.1,103.3,26.8,103.3,27.6z"/>
	<path class="st1" d="M106.6,29.9c0,0.1,0,0.1-0.1,0.1c-0.2,0.1-0.5,0.2-0.8,0.2c-0.6,0-1.1-0.3-1.1-1v-2.3h-0.4
		c-0.1,0-0.2-0.1-0.2-0.2v-0.4c0-0.1,0.1-0.2,0.2-0.2h0.4v-0.7c0-0.1,0.1-0.2,0.2-0.2h0.5c0.1,0,0.2,0.1,0.2,0.2v0.7h1
		c0.1,0,0.2,0,0.2,0.1c0,0,0,0.1-0.1,0.2l-0.2,0.3c-0.1,0.1-0.1,0.2-0.2,0.2h-0.6v2.2c0,0.3,0.1,0.5,0.4,0.5c0.2,0,0.3-0.1,0.3-0.1
		c0.1,0,0.2,0,0.2,0.1l0.2,0.3C106.6,29.8,106.6,29.9,106.6,29.9z"/>
	<path class="st1" d="M111.6,26.4c0.1,0,0.1,0.1,0.1,0.1c0,0,0,0.1,0,0.1l-0.2,0.2c0,0-0.1,0.1-0.1,0.1c0,0-0.1,0-0.1,0
		c-0.2-0.1-0.4-0.2-0.7-0.2c-0.3,0-0.5,0.2-0.5,0.4c0,0.4,0.3,0.4,1,0.8c0.5,0.2,0.9,0.6,0.9,1.2c0,0.8-0.7,1.1-1.5,1.1
		c-0.6,0-1-0.2-1.3-0.4c0,0-0.1-0.1-0.1-0.1c0-0.1,0-0.1,0.1-0.2l0.2-0.3c0,0,0.1-0.1,0.1-0.1c0,0,0.1,0,0.2,0.1
		c0.2,0.1,0.4,0.2,0.8,0.2c0.4,0,0.7-0.2,0.7-0.4c0-0.3-0.3-0.5-0.7-0.6c-0.5-0.2-1.2-0.5-1.2-1.2c0-0.7,0.6-1.2,1.4-1.2
		C111.1,26.1,111.4,26.3,111.6,26.4z"/>
	<path class="st1" d="M113.6,24.9v0.5c0,0.1-0.1,0.2-0.2,0.2h-0.6c-0.1,0-0.2-0.1-0.2-0.2v-0.5c0-0.1,0.1-0.2,0.2-0.2h0.6
		C113.5,24.7,113.6,24.8,113.6,24.9z M113.6,26.4V30c0,0.1-0.1,0.2-0.2,0.2h-0.5c-0.1,0-0.2-0.1-0.2-0.2v-3.2l-0.2-0.4
		c0-0.1-0.1-0.1-0.1-0.2c0-0.1,0-0.1,0.1-0.1h0.7h0.2C113.5,26.2,113.6,26.3,113.6,26.4z"/>
	<path class="st1" d="M117.5,28.9v-1.5c-0.2-0.3-0.6-0.6-1.1-0.6c-0.6,0-1.1,0.5-1.1,1.3c0,0.8,0.5,1.3,1.1,1.3
		C116.9,29.5,117.3,29.2,117.5,28.9z M118.4,24.8v5.3c0,0.1,0,0.2-0.1,0.2c0,0-0.1,0-0.2-0.1l-0.6-0.4c-0.3,0.3-0.7,0.5-1.2,0.5
		c-1,0-1.9-0.8-1.9-2.1c0-1.2,0.9-2.1,1.9-2.1c0.5,0,0.9,0.2,1.2,0.4v-1.8c0-0.1,0.1-0.2,0.2-0.2h0.5
		C118.3,24.6,118.4,24.7,118.4,24.8z"/>
	<path class="st1" d="M120.1,27.9h2.2c0-0.5-0.4-1.1-1.1-1.1C120.5,26.8,120.2,27.4,120.1,27.9z M123.2,28.2v0.2
		c0,0.1-0.1,0.2-0.2,0.2h-0.7h-2.2c0,0.6,0.5,1,1.3,1c0.5,0,0.8-0.2,0.9-0.3c0.1-0.1,0.2-0.1,0.3,0l0.2,0.3c0.1,0.1,0.1,0.2,0,0.2
		c-0.2,0.2-0.7,0.4-1.4,0.4c-1.5,0-2.1-1-2.1-2.1c0-1.1,0.6-2.1,1.9-2.1C122.5,26.1,123.2,27.1,123.2,28.2z"/>
</g>
</svg>
