<?xml version="1.0" encoding="utf-8"?>
<!-- Generator: Adobe Illustrator 24.0.1, SVG Export Plug-In . SVG Version: 6.00 Build 0)  -->
<svg version="1.1" id="Layer_1" xmlns="http://www.w3.org/2000/svg" xmlns:xlink="http://www.w3.org/1999/xlink" x="0px" y="0px"
	 viewBox="0 0 36 36" style="enable-background:new 0 0 36 36;" xml:space="preserve">
<style type="text/css">
	.st0{fill:#EA5045;}
</style>
<path class="st0" d="M5.1,2.8h30.6V0.2H5.1c-2.7,0-4.9,2.2-4.9,4.9v19.8c0,2.7,2.2,4.9,4.9,4.9h22.2h2.6v-2.6V17
	c0-2.7-2.2-4.9-4.9-4.9h-8c-2,0-2.8,1-3,1.5c-0.2,0.6-0.4,1.8,1,3.2l4.2,4.2c0.1,0.1,0.2,0.3,0.3,0.3c-0.1,0-0.3,0-0.5,0h-8
	c-1.3,0-2.3-1.1-2.3-2.3V8.7h22.2c1.3,0,2.3,1.1,2.3,2.3v19.8c0,1.3-1.1,2.3-2.3,2.3H0.2v2.6h30.6c2.7,0,4.9-2.2,4.9-4.9V11.1
	c0-2.7-2.2-4.9-4.9-4.9H8.7H6.2v2.6V19c0,2.7,2.2,4.9,4.9,4.9h8c2,0,2.8-1,3-1.5c0.2-0.6,0.4-1.8-1-3.2L16.8,15
	c-0.1-0.1-0.2-0.3-0.3-0.3c0.1,0,0.3,0,0.5,0h8c1.3,0,2.3,1.1,2.3,2.3v10.3H5.1c-1.3,0-2.3-1.1-2.3-2.3V5.1C2.8,3.8,3.8,2.8,5.1,2.8
	z"/>
</svg>
