<svg xmlns="http://www.w3.org/2000/svg" width="411.837" height="410.144" viewBox="0 0 411.837 410.144">
  <g id="Group_11496" data-name="Group 11496" transform="translate(-731.727 -272)">
    <ellipse id="Ellipse_187" data-name="Ellipse 187" cx="201.264" cy="202.026" rx="201.264" ry="202.026" transform="translate(731.727 272)" fill="#fff"/>
    <g id="Group_10902" data-name="Group 10902" transform="translate(738.09 525.855)">
      <path id="Path_11697" data-name="Path 11697" d="M494.437,642.9h-23.35v-9.88H447.229V621.344l-17.767-15.717h-26.9V560.271H367.533V504.137l-44.163,39.069v74.545H300.02v33.021h-9.645v-9.22H273.117v18.441h233v-6.765Z" transform="translate(-261.949 -504.137)" fill="#e7ebfb"/>
      <g id="Group_10893" data-name="Group 10893" transform="translate(108.284 67.496)">
        <rect id="Rectangle_2370" data-name="Rectangle 2370" width="3.19" height="2.822" fill="#fff"/>
        <rect id="Rectangle_2371" data-name="Rectangle 2371" width="3.19" height="2.822" transform="translate(7.763)" fill="#fff"/>
        <rect id="Rectangle_2372" data-name="Rectangle 2372" width="3.19" height="2.822" transform="translate(15.525)" fill="#fff"/>
      </g>
      <g id="Group_10894" data-name="Group 10894" transform="translate(108.284 75.105)">
        <rect id="Rectangle_2373" data-name="Rectangle 2373" width="3.19" height="2.822" fill="#fff"/>
        <rect id="Rectangle_2374" data-name="Rectangle 2374" width="3.19" height="2.822" transform="translate(7.763)" fill="#fff"/>
        <rect id="Rectangle_2375" data-name="Rectangle 2375" width="3.19" height="2.822" transform="translate(15.525)" fill="#fff"/>
      </g>
      <g id="Group_10895" data-name="Group 10895" transform="translate(108.284 82.715)">
        <rect id="Rectangle_2376" data-name="Rectangle 2376" width="3.19" height="2.822" fill="#fff"/>
        <rect id="Rectangle_2377" data-name="Rectangle 2377" width="3.19" height="2.822" transform="translate(7.763)" fill="#fff"/>
        <rect id="Rectangle_2378" data-name="Rectangle 2378" width="3.19" height="2.822" transform="translate(15.525)" fill="#fff"/>
      </g>
      <g id="Group_10896" data-name="Group 10896" transform="translate(108.284 90.324)">
        <rect id="Rectangle_2379" data-name="Rectangle 2379" width="3.19" height="2.822" fill="#fff"/>
        <rect id="Rectangle_2380" data-name="Rectangle 2380" width="3.19" height="2.822" transform="translate(7.763)" fill="#fff"/>
        <rect id="Rectangle_2381" data-name="Rectangle 2381" width="3.19" height="2.822" transform="translate(15.525)" fill="#fff"/>
      </g>
      <g id="Group_10897" data-name="Group 10897" transform="translate(108.284 97.933)">
        <rect id="Rectangle_2382" data-name="Rectangle 2382" width="3.19" height="2.822" fill="#fff"/>
        <rect id="Rectangle_2383" data-name="Rectangle 2383" width="3.19" height="2.822" transform="translate(7.763)" fill="#fff"/>
        <rect id="Rectangle_2384" data-name="Rectangle 2384" width="3.19" height="2.822" transform="translate(15.525)" fill="#fff"/>
      </g>
      <g id="Group_10898" data-name="Group 10898" transform="translate(108.284 105.542)">
        <rect id="Rectangle_2385" data-name="Rectangle 2385" width="3.19" height="2.822" fill="#fff"/>
        <rect id="Rectangle_2386" data-name="Rectangle 2386" width="3.19" height="2.822" transform="translate(7.763)" fill="#fff"/>
        <rect id="Rectangle_2387" data-name="Rectangle 2387" width="3.19" height="2.822" transform="translate(15.525)" fill="#fff"/>
      </g>
      <g id="Group_10899" data-name="Group 10899" transform="translate(108.284 113.151)">
        <rect id="Rectangle_2388" data-name="Rectangle 2388" width="3.19" height="2.822" fill="#fff"/>
        <rect id="Rectangle_2389" data-name="Rectangle 2389" width="3.19" height="2.822" transform="translate(7.763)" fill="#fff"/>
        <rect id="Rectangle_2390" data-name="Rectangle 2390" width="3.19" height="2.822" transform="translate(15.525)" fill="#fff"/>
      </g>
      <g id="Group_10900" data-name="Group 10900" transform="translate(108.284 120.761)">
        <rect id="Rectangle_2391" data-name="Rectangle 2391" width="3.19" height="2.822" fill="#fff"/>
        <rect id="Rectangle_2392" data-name="Rectangle 2392" width="3.19" height="2.822" transform="translate(7.763)" fill="#fff"/>
        <rect id="Rectangle_2393" data-name="Rectangle 2393" width="3.19" height="2.822" transform="translate(15.525)" fill="#fff"/>
      </g>
      <g id="Group_10901" data-name="Group 10901" transform="translate(108.284 128.37)">
        <rect id="Rectangle_2394" data-name="Rectangle 2394" width="3.19" height="2.822" fill="#fff"/>
        <rect id="Rectangle_2395" data-name="Rectangle 2395" width="3.19" height="2.822" transform="translate(7.763)" fill="#fff"/>
        <rect id="Rectangle_2396" data-name="Rectangle 2396" width="3.19" height="2.822" transform="translate(15.525)" fill="#fff"/>
      </g>
      <line id="Line_59" data-name="Line 59" x2="405.473" transform="translate(0 155.855)" fill="none" stroke="#000" stroke-miterlimit="10" stroke-width="0.866"/>
    </g>
    <g id="Group_10905" data-name="Group 10905" transform="translate(837.951 384.93)">
      <path id="Path_11698" data-name="Path 11698" d="M486.818,459.9s65.257,29.177,102.767,84.6h11.757l-22.954,26.313-72.781-48.707s-44.788-6.751-58.224-16.8,7.972-47.855,7.972-47.855" transform="translate(-394.449 -354.241)" fill="#e7ebfb"/>
      <path id="Path_11699" data-name="Path 11699" d="M472.715,458.634l-43.7-2.994-7.947,3.236-3.735,190.863h40.593l-4.292-7.691Z" transform="translate(-389.524 -353.891)" fill="#f1f4ff"/>
      <g id="Group_10904" data-name="Group 10904" transform="translate(50.252 4.335)">
        <path id="Path_11700" data-name="Path 11700" d="M445.116,343.671v6.9a11.588,11.588,0,0,0,8.821,11.253l10.978,2.7V337.548l-9.128-2.243a8.615,8.615,0,0,0-10.671,8.367Z" transform="translate(-445.116 -335.052)" fill="#edeeef"/>
        <path id="Path_11701" data-name="Path 11701" d="M445.116,354.261a11.588,11.588,0,0,0,8.821,11.253l10.978,2.7" transform="translate(-445.116 -338.743)" fill="none" stroke="#000" stroke-miterlimit="10" stroke-width="0.866"/>
        <ellipse id="Ellipse_185" data-name="Ellipse 185" cx="0.529" cy="0.529" rx="0.529" ry="0.529" transform="translate(10.655 13.09)"/>
        <ellipse id="Ellipse_186" data-name="Ellipse 186" cx="0.529" cy="0.529" rx="0.529" ry="0.529" transform="translate(2.524 13.09)"/>
        <line id="Line_60" data-name="Line 60" y1="8.158" transform="translate(5.439 8.62)" fill="none" stroke="#000" stroke-miterlimit="10" stroke-width="0.866"/>
        <line id="Line_61" data-name="Line 61" transform="translate(0.716 7.284)" fill="none" stroke="#000" stroke-miterlimit="10" stroke-width="0.866"/>
        <g id="Group_10903" data-name="Group 10903" transform="translate(18.495 11.412)">
          <path id="Path_11702" data-name="Path 11702" d="M468.011,350.566V353.4a2.767,2.767,0,0,0,2.768-2.767c0-.085,0-.169-.011-.252A1.384,1.384,0,0,0,468.011,350.566Z" transform="translate(-468.011 -349.178)" fill="#edeeef"/>
          <path id="Path_11703" data-name="Path 11703" d="M468.011,353.745a2.767,2.767,0,0,0,2.768-2.767" transform="translate(-468.011 -349.524)" fill="none" stroke="#000" stroke-miterlimit="10" stroke-width="0.866"/>
        </g>
        <path id="Path_11704" data-name="Path 11704" d="M454.615,357a1.832,1.832,0,0,0,2.591,0" transform="translate(-446.942 -339.27)" fill="none" stroke="#ff6498" stroke-linecap="round" stroke-linejoin="round" stroke-width="0.866"/>
        <line id="Line_62" data-name="Line 62" x2="1.788" y2="0.439" transform="translate(5.439 16.784)" fill="none" stroke="#000" stroke-linecap="round" stroke-miterlimit="10" stroke-width="0.866"/>
      </g>
      <path id="Path_11705" data-name="Path 11705" d="M482.683,400.617v43.235l-61.248,15.054V410.753a37.088,37.088,0,0,1,28.237-36.017h0a26.65,26.65,0,0,1,33.012,25.88Z" transform="translate(-390.313 -338.193)" fill="#eb5e50"/>
      <path id="Path_11706" data-name="Path 11706" d="M450.4,360.442s1.943,8.386-3.662,11.773a3.067,3.067,0,0,0-1.453,2.6c-.053,4.244-.971,14.054-8.413,12.727-6.081-1.083-4.344-11.469-2.327-18.749a43.6,43.6,0,0,0,1.529-13.991c-.533-9.923,1.19-26.9,19.623-24.964a17.573,17.573,0,0,1,7.7,2.6c4.768,3.069,10.092,9.9-.872,23.252" transform="translate(-392.471 -329.685)" fill="none" stroke="#000" stroke-miterlimit="10" stroke-width="0.866"/>
      <path id="Path_11707" data-name="Path 11707" d="M445.116,347.543s12.5,2.426,14.426-5.226c0,0,.964,5.42,4.122,6.536" transform="translate(-394.864 -332.113)" fill="none" stroke="#000" stroke-miterlimit="10" stroke-width="0.866"/>
      <line id="Line_63" data-name="Line 63" y1="183.414" x2="19.085" transform="translate(64.106 104.743)" fill="none" stroke="#000" stroke-miterlimit="10" stroke-width="0.866"/>
      <path id="Path_11708" data-name="Path 11708" d="M423.1,389.427s-48.329,45.977-39,72.452,62.565-12.343,60.77-23.914l-1.814-5.621s7.144-10.056,3.954-8.19-31.68,13.437-31.68,13.437l9.829-12.318" transform="translate(-382.909 -341.166)" fill="none" stroke="#000" stroke-miterlimit="10" stroke-width="0.866"/>
      <path id="Path_11709" data-name="Path 11709" d="M421,480.954v18.911c12.029-7.717,24.73-36.282,24.73-36.282A86.5,86.5,0,0,1,421,480.954Z" transform="translate(-390.229 -355.418)"/>
      <path id="Path_11710" data-name="Path 11710" d="M467.714,366.893s25.63-1.494,40.809,5.971l-8.958-26.93s-8.46-6.164-2.488-7.16c0,0-2.489-6.719-.746-6.47s33.841,20.514,36.33,46.143-41.083,25.024-41.083,25.024" transform="translate(-399.207 -330.187)" fill="none" stroke="#000" stroke-miterlimit="10" stroke-width="0.866"/>
    </g>
    <g id="Group_10906" data-name="Group 10906" transform="translate(990.398 363.316)">
      <path id="Path_11711" data-name="Path 11711" d="M630.948,325.139a59.323,59.323,0,1,0,59.324,59.324H630.948Z" transform="translate(-571.624 -307.197)" fill="#e6f8e9"/>
      <path id="Path_11712" data-name="Path 11712" d="M571.624,398.576a59.324,59.324,0,0,0,118.647,0" transform="translate(-571.624 -321.311)" fill="none" stroke="#000" stroke-miterlimit="10" stroke-width="0.866"/>
      <path id="Path_11713" data-name="Path 11713" d="M704.385,398.576H645.061l47.746,35.21A59.056,59.056,0,0,0,704.385,398.576Z" transform="translate(-585.737 -321.311)" fill="#a8ebb2"/>
      <path id="Path_11714" data-name="Path 11714" d="M645.061,302.929v77.265h77.266A77.266,77.266,0,0,0,645.061,302.929Z" transform="translate(-585.737 -302.929)" fill="#12b529"/>
      <path id="Path_11351" data-name="Path 11351" d="M164.039,170.08a2.093,2.093,0,0,0-2.959,0L142.6,188.559l-9.728-9.728a2.093,2.093,0,0,0-2.959,2.959L141.121,193a2.093,2.093,0,0,0,2.959,0l19.959-19.959A2.093,2.093,0,0,0,164.039,170.08Z" transform="translate(-56.041 -135.948)" fill="#fff"/>
    </g>
    <line id="Line_64" data-name="Line 64" x2="77.265" transform="translate(1049.723 440.582)" fill="none" stroke="#000" stroke-miterlimit="10" stroke-width="0.866"/>
    <g id="Group_10907" data-name="Group 10907" transform="translate(1054.438 512.17)">
      <path id="Union_21" data-name="Union 21" d="M10027.126,18090.7v-25.512h-7.563l21.361-21.361,21.356,21.361h-7.563v25.512Z" transform="translate(-10019.562 -18043.83)" fill="#eb5e50" stroke="rgba(0,0,0,0)" stroke-miterlimit="10" stroke-width="1"/>
    </g>
    <g id="Group_10910" data-name="Group 10910" transform="translate(761.975 402.414)">
      <g id="Group_10909" data-name="Group 10909" transform="translate(3.6)">
        <path id="Path_11717" data-name="Path 11717" d="M312.941,352.395a19.591,19.591,0,0,0-19.626,19.557l39.183.07A19.591,19.591,0,0,0,312.941,352.395Z" transform="translate(-293.315 -351.534)" fill="#edeeef"/>
        <path id="Path_11718" data-name="Path 11718" d="M365.471,362.91a11.17,11.17,0,0,0-11.19,11.15l22.339.04A11.169,11.169,0,0,0,365.471,362.91Z" transform="translate(-305.031 -353.555)" fill="#edeeef"/>
        <path id="Path_11719" data-name="Path 11719" d="M336.982,351.329a20.487,20.487,0,0,0-20.523,20.451l40.974.073A20.488,20.488,0,0,0,336.982,351.329Z" transform="translate(-297.763 -351.329)" fill="#edeeef"/>
      </g>
      <line id="Line_65" data-name="Line 65" x2="80.534" y2="0.143" transform="translate(0 20.411)" fill="none" stroke="#000" stroke-miterlimit="10" stroke-width="0.866"/>
    </g>
  </g>
</svg>
