<svg xmlns="http://www.w3.org/2000/svg" width="411.213" height="409.28" viewBox="0 0 411.213 409.28">
  <g id="Group_10996" data-name="Group 10996" transform="translate(-46.237 -207.719)">
    <ellipse id="Ellipse_176" data-name="Ellipse 176" cx="204.494" cy="204.494" rx="204.494" ry="204.494" transform="translate(48.461 208.011)" fill="#f8f9fe"/>
    <g id="Group_10880" data-name="Group 10880" transform="translate(47 207.719)">
      <g id="Group_10870" data-name="Group 10870" transform="translate(36.652 202.214)">
        <path id="Path_11654" data-name="Path 11654" d="M255.238,690.836h30.908V677.759h31.58V662.3l23.517-20.8h35.611V581.464h46.362v-74.3l58.456,51.714v98.672h30.908v43.708h12.766v-12.2h22.845v24.409h-308.4v-8.954Z" transform="translate(-225.002 -507.163)" fill="#f4f5fb" stroke="#fff" stroke-width="1"/>
        <line id="Line_38" data-name="Line 38" x1="337.969" transform="translate(0 206.299)" fill="none" stroke="#000" stroke-miterlimit="10" stroke-width="1.5"/>
        <g id="Group_10861" data-name="Group 10861" transform="translate(169.865 89.342)">
          <rect id="Rectangle_2338" data-name="Rectangle 2338" width="4.223" height="3.736" transform="translate(20.55)" fill="#fff"/>
          <rect id="Rectangle_2339" data-name="Rectangle 2339" width="4.223" height="3.736" transform="translate(10.275)" fill="#fff"/>
          <rect id="Rectangle_2340" data-name="Rectangle 2340" width="4.223" height="3.736" transform="translate(0)" fill="#fff"/>
        </g>
        <g id="Group_10862" data-name="Group 10862" transform="translate(169.865 99.414)">
          <rect id="Rectangle_2341" data-name="Rectangle 2341" width="4.223" height="3.736" transform="translate(20.55)" fill="#fff"/>
          <rect id="Rectangle_2342" data-name="Rectangle 2342" width="4.223" height="3.736" transform="translate(10.275)" fill="#fff"/>
          <rect id="Rectangle_2343" data-name="Rectangle 2343" width="4.223" height="3.736" transform="translate(0)" fill="#fff"/>
        </g>
        <g id="Group_10863" data-name="Group 10863" transform="translate(169.865 109.486)">
          <rect id="Rectangle_2344" data-name="Rectangle 2344" width="4.223" height="3.736" transform="translate(20.55)" fill="#fff"/>
          <rect id="Rectangle_2345" data-name="Rectangle 2345" width="4.223" height="3.736" transform="translate(10.275)" fill="#fff"/>
          <rect id="Rectangle_2346" data-name="Rectangle 2346" width="4.223" height="3.736" transform="translate(0)" fill="#fff"/>
        </g>
        <g id="Group_10864" data-name="Group 10864" transform="translate(169.865 119.558)">
          <rect id="Rectangle_2347" data-name="Rectangle 2347" width="4.223" height="3.736" transform="translate(20.55)" fill="#fff"/>
          <rect id="Rectangle_2348" data-name="Rectangle 2348" width="4.223" height="3.736" transform="translate(10.275)" fill="#fff"/>
          <rect id="Rectangle_2349" data-name="Rectangle 2349" width="4.223" height="3.736" transform="translate(0)" fill="#fff"/>
        </g>
        <g id="Group_10865" data-name="Group 10865" transform="translate(169.865 129.63)">
          <rect id="Rectangle_2350" data-name="Rectangle 2350" width="4.223" height="3.736" transform="translate(20.55)" fill="#fff"/>
          <rect id="Rectangle_2351" data-name="Rectangle 2351" width="4.223" height="3.736" transform="translate(10.275)" fill="#fff"/>
          <rect id="Rectangle_2352" data-name="Rectangle 2352" width="4.223" height="3.736" transform="translate(0)" fill="#fff"/>
        </g>
        <g id="Group_10866" data-name="Group 10866" transform="translate(169.865 139.702)">
          <rect id="Rectangle_2353" data-name="Rectangle 2353" width="4.223" height="3.736" transform="translate(20.55)" fill="#fff"/>
          <rect id="Rectangle_2354" data-name="Rectangle 2354" width="4.223" height="3.736" transform="translate(10.275)" fill="#fff"/>
          <rect id="Rectangle_2355" data-name="Rectangle 2355" width="4.223" height="3.736" transform="translate(0)" fill="#fff"/>
        </g>
        <g id="Group_10867" data-name="Group 10867" transform="translate(169.865 149.774)">
          <rect id="Rectangle_2356" data-name="Rectangle 2356" width="4.223" height="3.736" transform="translate(20.55)" fill="#fff"/>
          <rect id="Rectangle_2357" data-name="Rectangle 2357" width="4.223" height="3.736" transform="translate(10.275)" fill="#fff"/>
          <rect id="Rectangle_2358" data-name="Rectangle 2358" width="4.223" height="3.736" transform="translate(0)" fill="#fff"/>
        </g>
        <g id="Group_10868" data-name="Group 10868" transform="translate(169.865 159.846)">
          <rect id="Rectangle_2359" data-name="Rectangle 2359" width="4.223" height="3.736" transform="translate(20.55)" fill="#fff"/>
          <rect id="Rectangle_2360" data-name="Rectangle 2360" width="4.223" height="3.736" transform="translate(10.275)" fill="#fff"/>
          <rect id="Rectangle_2361" data-name="Rectangle 2361" width="4.223" height="3.736" transform="translate(0)" fill="#fff"/>
        </g>
        <g id="Group_10869" data-name="Group 10869" transform="translate(169.865 169.918)">
          <rect id="Rectangle_2362" data-name="Rectangle 2362" width="4.223" height="3.736" transform="translate(20.55)" fill="#fff"/>
          <rect id="Rectangle_2363" data-name="Rectangle 2363" width="4.223" height="3.736" transform="translate(10.275)" fill="#fff"/>
          <rect id="Rectangle_2364" data-name="Rectangle 2364" width="4.223" height="3.736" transform="translate(0)" fill="#fff"/>
        </g>
      </g>
      <g id="Group_10873" data-name="Group 10873" transform="translate(0 15.746)">
        <path id="Path_11655" data-name="Path 11655" d="M691.927,454.736s72.584,100.911,2.256,210.587l-1.7,21.786-42.489-22.64,23.715-88.931-33.1-57.684,23.865-77.07" transform="translate(-612.563 -295.311)" fill="#e7ebfb"/>
        <path id="Path_11656" data-name="Path 11656" d="M778.836,430.045l-69,1.213.631,68.943V683H764.2l-5.681-10.181Z" transform="translate(-709.288 -291.204)" fill="#f1f4ff"/>
        <g id="Group_10872" data-name="Group 10872" transform="translate(27.981 2.799)">
          <path id="Path_11657" data-name="Path 11657" d="M734.707,224.307v21.155l26.207,6.441V216.2l-26.207-6.441Z" transform="translate(-734.707 -209.761)" fill="#edeeef"/>
          <ellipse id="Ellipse_174" data-name="Ellipse 174" cx="0.701" cy="0.701" rx="0.701" ry="0.701" transform="translate(14.104 20.464)"/>
          <ellipse id="Ellipse_175" data-name="Ellipse 175" cx="0.701" cy="0.701" rx="0.701" ry="0.701" transform="translate(3.341 20.464)"/>
          <path id="Path_11658" data-name="Path 11658" d="M770.9,244.113v-10.8h-5.41" transform="translate(-763.697 -218.768)" fill="none" stroke="#000" stroke-miterlimit="10" stroke-width="1.5"/>
          <line id="Line_39" data-name="Line 39" x1="5.41" transform="translate(10.715 14.546)" fill="none" stroke="#000" stroke-miterlimit="10" stroke-width="1.5"/>
          <line id="Line_40" data-name="Line 40" transform="translate(0.947 12.777)" fill="none" stroke="#000" stroke-miterlimit="10" stroke-width="1.5"/>
          <g id="Group_10871" data-name="Group 10871" transform="translate(24.481 18.242)">
            <path id="Path_11659" data-name="Path 11659" d="M731.571,241.135v3.751a3.663,3.663,0,0,0,3.663-3.663q0-.169-.015-.333C735.013,238.615,731.571,238.852,731.571,241.135Z" transform="translate(-731.571 -239.298)" fill="#edeeef"/>
            <path id="Path_11660" data-name="Path 11660" d="M731.571,246.078a3.663,3.663,0,0,0,3.663-3.663" transform="translate(-731.571 -240.49)" fill="none" stroke="#000" stroke-miterlimit="10" stroke-width="1.5"/>
          </g>
          <path id="Path_11661" data-name="Path 11661" d="M755.652,252.815a3.707,3.707,0,0,0,3.707-3.707" transform="translate(-746.087 -224.808)" fill="#eb5e50" stroke="#eb5e50" stroke-linecap="round" stroke-linejoin="round" stroke-width="1"/>
          <line id="Line_41" data-name="Line 41" x2="26.207" y2="6.441" transform="translate(0 35.701)" fill="none" stroke="#000" stroke-miterlimit="10" stroke-width="1.5"/>
          <line id="Line_42" data-name="Line 42" x2="2.366" y2="0.582" transform="translate(7.199 25.353)" fill="none" stroke="#000" stroke-linecap="round" stroke-miterlimit="10" stroke-width="1.5"/>
        </g>
        <path id="Path_11662" data-name="Path 11662" d="M758.082,227.227s-5.1-4.776-5.188-9.387c0,0-19.268,2.882-22.15,2.059l2.058-3.952a42.658,42.658,0,0,1-6.67-3.294s24.785-17.292,36.066.906c0,0,7.55,3.623-.26,13.669" transform="translate(-705.996 -205.228)" fill="none" stroke="#000" stroke-miterlimit="10" stroke-width="1.5"/>
        <path id="Path_11663" data-name="Path 11663" d="M690.288,317.487v57.229l81.071,19.926V330.906a49.093,49.093,0,0,0-37.375-47.674h0a35.276,35.276,0,0,0-43.7,34.256Z" transform="translate(-689.739 -234.662)" fill="#eb5e50"/>
        <path id="Path_11664" data-name="Path 11664" d="M710.725,396.6c11.178,12.853,35.451,11.446,59.071,4.175-4.571,9-16.924,15.461-31.454,15.461-18.419,0-33.349-10.369-33.349-23.16a16.346,16.346,0,0,1,.391-3.555A62.448,62.448,0,0,0,710.725,396.6Z" transform="translate(-697.257 -275.707)"/>
        <line id="Line_43" data-name="Line 43" y1="242.777" x2="20.318" transform="translate(49.229 138.841)" fill="none" stroke="#000" stroke-miterlimit="10" stroke-width="1.5"/>
        <path id="Path_11665" data-name="Path 11665" d="M612.693,309.824s-16.843,27.889,7.862,56.3,113.386-12.845,117.586-33.1.988-18.527-3.706-14.328-7.164,3.211-7.164,3.211-.741-7.9-3.211-5.682-3.211,6.423-3.211,6.423l-59.573,15.81L646.487,314" transform="translate(-607.087 -245.228)" fill="none" stroke="#000" stroke-miterlimit="10" stroke-width="1.5"/>
        <path id="Path_11666" data-name="Path 11666" d="M678.862,292.767s22,13.694,31.024,30.011" transform="translate(-621.21 -238.705)" fill="none" stroke="#000" stroke-miterlimit="10" stroke-width="1.5"/>
        <path id="Path_11667" data-name="Path 11667" d="M581.178,373.234s31.537,2.891,47.347,5.527-1.976,5.929-1.976,5.929-8.234,11.858-22.4,7.246c0,0-28.874,13.834-58.244,6.258" transform="translate(-464.287 -269.478)" fill="none" stroke="#000" stroke-miterlimit="10" stroke-width="1.5"/>
      </g>
      <g id="Group_10874" data-name="Group 10874" transform="translate(170.786 184.65)">
        <rect id="Rectangle_2365" data-name="Rectangle 2365" width="193.705" height="140.455" transform="translate(0)" fill="#e7ebfb"/>
        <line id="Line_44" data-name="Line 44" y2="140.455" transform="translate(0)" fill="none" stroke="#000" stroke-miterlimit="10" stroke-width="1.5"/>
        <path id="Path_11668" data-name="Path 11668" d="M339.8,543.521l1.722-5.789A21.585,21.585,0,0,1,362.213,522.3h42.823L371.254,635.844H177.549l27.47-92.323Z" transform="translate(-177.549 -495.389)" fill="#f1f4ff"/>
        <line id="Line_45" data-name="Line 45" x1="193.705" transform="translate(0 140.455)" fill="none" stroke="#000" stroke-miterlimit="10" stroke-width="1.5"/>
        <path id="Path_11669" data-name="Path 11669" d="M283.178,648.983l27.47-92.323H445.432" transform="translate(-283.178 -508.528)" fill="none" stroke="#000" stroke-miterlimit="10" stroke-width="1.5"/>
      </g>
      <g id="Group_10879" data-name="Group 10879" transform="translate(190.975 0)">
        <g id="Group_10875" data-name="Group 10875" transform="translate(0 24.861)">
          <path id="Path_11670" data-name="Path 11670" d="M449.508,219.986V353.959H346.626v-97.07l36.9-36.9Z" transform="translate(-346.626 -219.986)" fill="#e7ebfb"/>
          <path id="Path_11671" data-name="Path 11671" d="M449.508,376.811H346.626v-97.07" transform="translate(-346.626 -242.838)" fill="none" stroke="#000" stroke-miterlimit="10" stroke-width="1.5"/>
        </g>
        <g id="Group_10876" data-name="Group 10876" transform="translate(41.611 81.837)">
          <line id="Line_46" data-name="Line 46" x1="42.965" fill="none" stroke="#000" stroke-miterlimit="10" stroke-width="1.5"/>
          <line id="Line_47" data-name="Line 47" x1="42.965" transform="translate(0 9.047)" fill="none" stroke="#000" stroke-miterlimit="10" stroke-width="1.5"/>
          <line id="Line_48" data-name="Line 48" x1="42.965" transform="translate(0 18.093)" fill="none" stroke="#000" stroke-miterlimit="10" stroke-width="1.5"/>
          <line id="Line_49" data-name="Line 49" x1="21.483" transform="translate(21.483 27.14)" fill="none" stroke="#000" stroke-miterlimit="10" stroke-width="1.5"/>
        </g>
        <g id="Group_10877" data-name="Group 10877" transform="translate(36.513)">
          <path id="Path_11672" data-name="Path 11672" d="M390.384,179.731V313.7H287.5v-97.07l36.9-36.9Z" transform="translate(-287.503 -179.731)" fill="#f1f4ff"/>
          <path id="Path_11673" data-name="Path 11673" d="M390.384,336.556H287.5v-97.07" transform="translate(-287.503 -202.583)" fill="none" stroke="#000" stroke-miterlimit="10" stroke-width="1.5"/>
          <path id="Path_11674" data-name="Path 11674" d="M394.338,216.634l36.9-36.9v36.9Z" transform="translate(-394.338 -179.731)" fill="#eb5e50"/>
        </g>
        <g id="Group_10878" data-name="Group 10878" transform="translate(66.471 56.976)">
          <line id="Line_50" data-name="Line 50" x1="42.965" transform="translate(0)" fill="none" stroke="#000" stroke-miterlimit="10" stroke-width="1.5"/>
          <line id="Line_51" data-name="Line 51" x1="42.965" transform="translate(0 9.047)" fill="none" stroke="#000" stroke-miterlimit="10" stroke-width="1.5"/>
          <line id="Line_52" data-name="Line 52" x1="42.965" transform="translate(0 18.093)" fill="none" stroke="#000" stroke-miterlimit="10" stroke-width="1.5"/>
          <line id="Line_53" data-name="Line 53" x1="21.483" transform="translate(21.483 27.14)" fill="none" stroke="#000" stroke-miterlimit="10" stroke-width="1.5"/>
        </g>
      </g>
    </g>
  </g>
</svg>
