<svg xmlns="http://www.w3.org/2000/svg" width="368.768" height="176.32" viewBox="0 0 368.768 176.32">
  <g id="Group_11698" data-name="Group 11698" transform="translate(-15.75 -24.48)">
    <g id="Group_11043" data-name="Group 11043" transform="translate(16 40.783)">
      <g id="Group_10855" data-name="Group 10855" transform="translate(2.272 0.001)">
        <path id="Union_17" data-name="Union 17" d="M31.087,12.942h0L11.8,12.909v0L0,12.887A12.373,12.373,0,0,1,17.993,1.893a12.939,12.939,0,0,1,17.838,4.4,7.055,7.055,0,0,1,9.356,6.679Z" transform="translate(0 0)" fill="#1b2e6a" stroke="rgba(0,0,0,0)" stroke-miterlimit="10" stroke-width="1" opacity="0.1"/>
      </g>
      <line id="Line_34" data-name="Line 34" x2="50.834" y2="0.09" transform="translate(0 12.884)" fill="none" stroke="#000" stroke-linecap="round" stroke-miterlimit="10" stroke-width="0.5"/>
    </g>
    <g id="Group_11041" data-name="Group 11041" transform="translate(-473 -696.5)">
      <path id="Path_11651" data-name="Path 11651" d="M570.811,725.5a8.454,8.454,0,0,0,2.241-3.383,8,8,0,0,1,15.037,0,8.455,8.455,0,0,0,2.242,3.383,8,8,0,0,1-6.808,13.776,16.607,16.607,0,0,0-5.9,0,7.993,7.993,0,0,1-6.808-13.776Z" transform="translate(140.451 139.961)" fill="#eaecf1" stroke="rgba(0,0,0,0)" stroke-miterlimit="10" stroke-width="1"/>
      <path id="Path_11652" data-name="Path 11652" d="M612.728,769.867a16.607,16.607,0,0,0-5.9,0A8,8,0,0,1,597.4,762" transform="translate(111.245 109.366)" fill="none" stroke="#000" stroke-miterlimit="10" stroke-width="1"/>
      <g id="Group_10858" data-name="Group 10858" transform="translate(717.631 870.295)">
        <line id="Line_37" data-name="Line 37" y2="23.231" transform="translate(3.391 3.391)" fill="none" stroke="#000" stroke-miterlimit="10" stroke-width="1"/>
        <path id="Path_11653" data-name="Path 11653" d="M596.042,758.678l3.391,3.391,3.391-3.391" transform="translate(-596.042 -758.678)" fill="none" stroke="#000" stroke-miterlimit="10" stroke-width="1"/>
      </g>
    </g>
    <g id="Group_11028" data-name="Group 11028" transform="translate(42 74)">
      <g id="Group_10848" data-name="Group 10848" transform="translate(0 0)">
        <path id="Path_11627" data-name="Path 11627" d="M285.74,619.121H266.9V611.15H247.651v-9.42l-14.335-12.681H211.61V552.453H183.35v-45.29l-35.632,31.522v60.146h-18.84v26.642H121.1v-7.439H107.172v14.879H295.16v-5.458Z" transform="translate(-107.172 -507.163)" fill="#f1f4ff" stroke="rgba(0,0,0,0)" stroke-miterlimit="10" stroke-width="1"/>
        <g id="Group_10839" data-name="Group 10839" transform="translate(78.357 54.458)">
          <rect id="Rectangle_2309" data-name="Rectangle 2309" width="2.574" height="2.277" fill="#fff" stroke="rgba(0,0,0,0)" stroke-miterlimit="10" stroke-width="1"/>
          <rect id="Rectangle_2310" data-name="Rectangle 2310" width="2.574" height="2.277" transform="translate(6.263)" fill="#fff" stroke="rgba(0,0,0,0)" stroke-miterlimit="10" stroke-width="1"/>
          <rect id="Rectangle_2311" data-name="Rectangle 2311" width="2.574" height="2.277" transform="translate(12.526)" fill="#fff" stroke="rgba(0,0,0,0)" stroke-miterlimit="10" stroke-width="1"/>
        </g>
        <g id="Group_10840" data-name="Group 10840" transform="translate(78.357 60.598)">
          <rect id="Rectangle_2312" data-name="Rectangle 2312" width="2.574" height="2.277" fill="#fff" stroke="rgba(0,0,0,0)" stroke-miterlimit="10" stroke-width="1"/>
          <rect id="Rectangle_2313" data-name="Rectangle 2313" width="2.574" height="2.277" transform="translate(6.263)" fill="#fff" stroke="rgba(0,0,0,0)" stroke-miterlimit="10" stroke-width="1"/>
          <rect id="Rectangle_2314" data-name="Rectangle 2314" width="2.574" height="2.277" transform="translate(12.526)" fill="#fff" stroke="rgba(0,0,0,0)" stroke-miterlimit="10" stroke-width="1"/>
        </g>
        <g id="Group_10841" data-name="Group 10841" transform="translate(78.357 66.737)">
          <rect id="Rectangle_2315" data-name="Rectangle 2315" width="2.574" height="2.277" fill="#fff" stroke="rgba(0,0,0,0)" stroke-miterlimit="10" stroke-width="1"/>
          <rect id="Rectangle_2316" data-name="Rectangle 2316" width="2.574" height="2.277" transform="translate(6.263)" fill="#fff" stroke="rgba(0,0,0,0)" stroke-miterlimit="10" stroke-width="1"/>
          <rect id="Rectangle_2317" data-name="Rectangle 2317" width="2.574" height="2.277" transform="translate(12.526)" fill="#fff" stroke="rgba(0,0,0,0)" stroke-miterlimit="10" stroke-width="1"/>
        </g>
        <g id="Group_10842" data-name="Group 10842" transform="translate(78.357 72.876)">
          <rect id="Rectangle_2318" data-name="Rectangle 2318" width="2.574" height="2.277" fill="#fff" stroke="rgba(0,0,0,0)" stroke-miterlimit="10" stroke-width="1"/>
          <rect id="Rectangle_2319" data-name="Rectangle 2319" width="2.574" height="2.277" transform="translate(6.263)" fill="#fff" stroke="rgba(0,0,0,0)" stroke-miterlimit="10" stroke-width="1"/>
          <rect id="Rectangle_2320" data-name="Rectangle 2320" width="2.574" height="2.277" transform="translate(12.526)" fill="#fff" stroke="rgba(0,0,0,0)" stroke-miterlimit="10" stroke-width="1"/>
        </g>
        <g id="Group_10843" data-name="Group 10843" transform="translate(78.357 79.016)">
          <rect id="Rectangle_2321" data-name="Rectangle 2321" width="2.574" height="2.277" fill="#fff" stroke="rgba(0,0,0,0)" stroke-miterlimit="10" stroke-width="1"/>
          <rect id="Rectangle_2322" data-name="Rectangle 2322" width="2.574" height="2.277" transform="translate(6.263)" fill="#fff" stroke="rgba(0,0,0,0)" stroke-miterlimit="10" stroke-width="1"/>
          <rect id="Rectangle_2323" data-name="Rectangle 2323" width="2.574" height="2.277" transform="translate(12.526)" fill="#fff" stroke="rgba(0,0,0,0)" stroke-miterlimit="10" stroke-width="1"/>
        </g>
        <g id="Group_10844" data-name="Group 10844" transform="translate(78.357 85.155)">
          <rect id="Rectangle_2324" data-name="Rectangle 2324" width="2.574" height="2.277" fill="#fff" stroke="rgba(0,0,0,0)" stroke-miterlimit="10" stroke-width="1"/>
          <rect id="Rectangle_2325" data-name="Rectangle 2325" width="2.574" height="2.277" transform="translate(6.263)" fill="#fff" stroke="rgba(0,0,0,0)" stroke-miterlimit="10" stroke-width="1"/>
          <rect id="Rectangle_2326" data-name="Rectangle 2326" width="2.574" height="2.277" transform="translate(12.526)" fill="#fff" stroke="rgba(0,0,0,0)" stroke-miterlimit="10" stroke-width="1"/>
        </g>
        <g id="Group_10845" data-name="Group 10845" transform="translate(78.357 91.294)">
          <rect id="Rectangle_2327" data-name="Rectangle 2327" width="2.574" height="2.277" fill="#fff" stroke="rgba(0,0,0,0)" stroke-miterlimit="10" stroke-width="1"/>
          <rect id="Rectangle_2328" data-name="Rectangle 2328" width="2.574" height="2.277" transform="translate(6.263)" fill="#fff" stroke="rgba(0,0,0,0)" stroke-miterlimit="10" stroke-width="1"/>
          <rect id="Rectangle_2329" data-name="Rectangle 2329" width="2.574" height="2.277" transform="translate(12.526)" fill="#fff" stroke="rgba(0,0,0,0)" stroke-miterlimit="10" stroke-width="1"/>
        </g>
        <g id="Group_10846" data-name="Group 10846" transform="translate(78.357 97.434)">
          <rect id="Rectangle_2330" data-name="Rectangle 2330" width="2.574" height="2.277" fill="#fff" stroke="rgba(0,0,0,0)" stroke-miterlimit="10" stroke-width="1"/>
          <rect id="Rectangle_2331" data-name="Rectangle 2331" width="2.574" height="2.277" transform="translate(6.263)" fill="#fff" stroke="rgba(0,0,0,0)" stroke-miterlimit="10" stroke-width="1"/>
          <rect id="Rectangle_2332" data-name="Rectangle 2332" width="2.574" height="2.277" transform="translate(12.526)" fill="#fff" stroke="rgba(0,0,0,0)" stroke-miterlimit="10" stroke-width="1"/>
        </g>
        <g id="Group_10847" data-name="Group 10847" transform="translate(78.357 103.573)">
          <rect id="Rectangle_2333" data-name="Rectangle 2333" width="2.574" height="2.277" fill="#fff" stroke="rgba(0,0,0,0)" stroke-miterlimit="10" stroke-width="1"/>
          <rect id="Rectangle_2334" data-name="Rectangle 2334" width="2.574" height="2.277" transform="translate(6.263)" fill="#fff" stroke="rgba(0,0,0,0)" stroke-miterlimit="10" stroke-width="1"/>
          <rect id="Rectangle_2335" data-name="Rectangle 2335" width="2.574" height="2.277" transform="translate(12.526)" fill="#fff" stroke="rgba(0,0,0,0)" stroke-miterlimit="10" stroke-width="1"/>
        </g>
      </g>
    </g>
    <g id="Group_11021" data-name="Group 11021" transform="translate(307.717 25)">
      <path id="Path_16012" data-name="Path 16012" d="M663.529,447.016s32.421,45.072,1.008,94.06l-.76,9.731L644.8,540.694l10.592-39.722-14.785-25.765,10.659-34.424" transform="translate(-628.08 -375.806)" fill="#e7ebfb" stroke="rgba(0,0,0,0)" stroke-miterlimit="10" stroke-width="1"/>
      <path id="Path_16009" data-name="Path 16009" d="M740.656,430.045l-30.819.542.282,30.794v81.65h24l-2.538-4.547Z" transform="translate(-709.592 -368.031)" fill="#e7ebfb" stroke="rgba(0,0,0,0)" stroke-miterlimit="10" stroke-width="1"/>
      <path id="Path_16013" data-name="Path 16013" d="M746.413,216.258v9.449l-11.706,2.877V212.638l11.706-2.877Z" transform="translate(-723.346 -208.511)" fill="#f1f4ff" stroke="rgba(0,0,0,0)" stroke-miterlimit="10" stroke-width="1"/>
      <ellipse id="Ellipse_200" data-name="Ellipse 200" cx="0.313" cy="0.313" rx="0.313" ry="0.313" transform="translate(16.142 10.391)" stroke="rgba(0,0,0,0)" stroke-miterlimit="10" stroke-width="1"/>
      <ellipse id="Ellipse_199" data-name="Ellipse 199" cx="0.313" cy="0.313" rx="0.313" ry="0.313" transform="translate(20.948 10.391)" stroke="rgba(0,0,0,0)" stroke-miterlimit="10" stroke-width="1"/>
      <path id="Path_16014" data-name="Path 16014" d="M765.486,238.137v-4.823H767.9" transform="translate(-745.635 -225.566)" fill="none" stroke="#000" stroke-miterlimit="10" stroke-width="1"/>
      <line id="Line_57" data-name="Line 57" x2="2.416" transform="translate(15.865 7.747)" fill="none" stroke="#000" stroke-miterlimit="10" stroke-width="1"/>
      <line id="Line_55" data-name="Line 55" transform="translate(22.644 6.958)" fill="none" stroke="#000" stroke-miterlimit="10" stroke-width="1.5"/>
      <path id="Path_16017" data-name="Path 16017" d="M733.207,240.119v1.675a1.636,1.636,0,0,1-1.636-1.636q0-.075.007-.149A.818.818,0,0,1,733.207,240.119Z" transform="translate(-721.075 -229.901)" fill="#edeeef" stroke="rgba(0,0,0,0)" stroke-miterlimit="10" stroke-width="1"/>
      <path id="Path_16018" data-name="Path 16018" d="M733.207,244.051a1.636,1.636,0,0,1-1.636-1.636" transform="translate(-721.075 -232.158)" fill="none" stroke="#000" stroke-miterlimit="10" stroke-width="1"/>
      <path id="Path_16015" data-name="Path 16015" d="M757.308,250.764a1.656,1.656,0,0,1-1.656-1.656" transform="translate(-739.513 -235.004)" fill="#1b2e6a" stroke="#1b2e6a" stroke-linecap="round" stroke-linejoin="round" stroke-width="1"/>
      <line id="Line_54" data-name="Line 54" x1="11.706" y2="2.877" transform="translate(11.361 17.196)" fill="none" stroke="#000" stroke-miterlimit="10" stroke-width="1"/>
      <line id="Line_56" data-name="Line 56" x1="1.057" y2="0.26" transform="translate(18.794 12.574)" fill="none" stroke="#000" stroke-linecap="round" stroke-miterlimit="10" stroke-width="1"/>
      <path id="Path_16010" data-name="Path 16010" d="M729.437,215.054s2.28-2.133,2.317-4.193c0,0,8.606,1.287,9.893.92l-.919-1.765a19.056,19.056,0,0,0,2.979-1.471s-11.071-7.724-16.11.4c0,0-3.372,1.618.116,6.105" transform="translate(-717.138 -205.228)" fill="none" stroke="#000" stroke-miterlimit="10" stroke-width="1"/>
      <path id="Path_16007" data-name="Path 16007" d="M690.288,297.958V323.52l36.211,8.9V303.952a21.928,21.928,0,0,0-16.694-21.294h0a15.756,15.756,0,0,0-19.517,15.3Z" transform="translate(-690.042 -260.964)" fill="#eb5e50" stroke="rgba(0,0,0,0)" stroke-miterlimit="10" stroke-width="1"/>
      <path id="Path_16011" data-name="Path 16011" d="M707.553,392.683c4.993,5.741,15.835,5.112,26.385,1.865-2.042,4.022-7.559,6.906-14.049,6.906-8.227,0-14.9-4.631-14.9-10.344a7.3,7.3,0,0,1,.175-1.588A27.887,27.887,0,0,0,707.553,392.683Z" transform="translate(-701.537 -338.686)" stroke="rgba(0,0,0,0)" stroke-miterlimit="10" stroke-width="1"/>
      <line id="Line_58" data-name="Line 58" y1="108.438" x2="9.075" transform="translate(21.988 62.015)" fill="none" stroke="#000" stroke-miterlimit="10" stroke-width="1"/>
      <path id="Path_16008" data-name="Path 16008" d="M609.591,309.824s-7.523,12.457,3.512,25.146,50.645-5.738,52.521-14.785.441-8.275-1.655-6.4-3.2,1.434-3.2,1.434-.331-3.531-1.435-2.538a5.784,5.784,0,0,0-1.434,2.869l-26.609,7.062-6.605-10.923" transform="translate(-607.087 -280.971)" fill="none" stroke="#000" stroke-miterlimit="10" stroke-width="1"/>
      <path id="Path_16019" data-name="Path 16019" d="M678.862,292.767s9.825,6.117,13.857,13.4" transform="translate(-653.111 -268.62)" fill="none" stroke="#000" stroke-miterlimit="10" stroke-width="1"/>
      <path id="Path_16020" data-name="Path 16020" d="M561.661,373.234s14.086,1.291,21.148,2.469-.883,2.648-.883,2.648-3.678,5.3-10,3.236c0,0-12.9,6.179-26.015,2.8" transform="translate(-509.451 -326.89)" fill="none" stroke="#000" stroke-miterlimit="10" stroke-width="1"/>
    </g>
  </g>
</svg>
