<svg xmlns="http://www.w3.org/2000/svg" width="30" height="30" viewBox="0 0 30 30">
  <g id="Group_11578" data-name="Group 11578" transform="translate(-1168 -123)">
    <circle id="Ellipse_227" data-name="Ellipse 227" cx="15" cy="15" r="15" transform="translate(1168 123)" fill="#eb5e50"/>
    <g id="Group_11550" data-name="Group 11550" transform="translate(1174 129)">
      <path id="Path_16174" data-name="Path 16174" d="M0,0H18V18H0Z" fill="none"/>
      <path id="Path_16175" data-name="Path 16175" d="M5.824,14.737A3.454,3.454,0,0,1,2.3,11.362,3.454,3.454,0,0,1,5.824,7.987a4.216,4.216,0,0,1,4.958-2.962,3.82,3.82,0,0,1,3.292,4.463h.75a2.625,2.625,0,0,1,0,5.25h-.75" transform="translate(-0.574 -1.237)" fill="none" stroke="#fff" stroke-linecap="round" stroke-linejoin="round" stroke-width="1.5"/>
      <path id="Path_16176" data-name="Path 16176" d="M9,14.25,11.25,12l2.25,2.25" transform="translate(-2.25 -3)" fill="none" stroke="#fff" stroke-linecap="round" stroke-linejoin="round" stroke-width="1.5"/>
      <line id="Line_87" data-name="Line 87" y2="6.75" transform="translate(9 9)" fill="none" stroke="#fff" stroke-linecap="round" stroke-linejoin="round" stroke-width="1.5"/>
    </g>
  </g>
</svg>
