<svg id="Component_75_1" data-name="Component 75 – 1" xmlns="http://www.w3.org/2000/svg" width="1088" height="301.569" viewBox="0 0 1088 301.569">
  <rect id="Rectangle_2317" data-name="Rectangle 2317" width="1088" height="300" rx="5" fill="#1b2e6a"/>
  <g id="Group_10885" data-name="Group 10885" transform="translate(878 244.508)">
    <path id="Path_11694" data-name="Path 11694" d="M401.282,774.934s-4-7.086,6.161-8.626a33.324,33.324,0,0,1,17.868,2.157s-7.086-8.626,4-12.323,22.489,4.929,22.489,4.929-11.09-20.641-2.465-22.181,13.247,7.394,13.247,7.394-.924-25.57,16.944-26.186,16.02,32.655,16.02,32.655,7.7-14.787,20.64-15.4,6.469,24.77,6.469,24.77,2.465-5.978,11.091-6.594,8.01,6.613,8.01,6.613,11.09-15.547,23.413-14.623,7.086,16.328,7.086,16.328c12.631-.925,15.4,12.919,15.4,12.919H392.348Z" transform="translate(-392.348 -720.089)" fill="#c9ced8"/>
  </g>
  <g id="Group_11042" data-name="Group 11042" transform="translate(47.747 33.203)">
    <g id="Group_10855" data-name="Group 10855" transform="translate(3.364)">
      <path id="Union_17" data-name="Union 17" d="M-3602.091,12570.958h0l-28.552-.049v0l-17.469-.03a18.3,18.3,0,0,1,18.339-18.272,18.213,18.213,0,0,1,8.3,2,19.058,19.058,0,0,1,10.012-2.8,19.132,19.132,0,0,1,16.4,9.311,10.432,10.432,0,0,1,3.433-.571,10.436,10.436,0,0,1,10.417,10.458Z" transform="translate(3648.111 -12551.798)" fill="#e7ebfb" stroke="rgba(0,0,0,0)" stroke-miterlimit="10" stroke-width="1" opacity="0.5"/>
    </g>
    <line id="Line_34" data-name="Line 34" x2="75.253" y2="0.134" transform="translate(0 19.072)" fill="none" stroke="#000" stroke-linecap="round" stroke-miterlimit="10" stroke-width="1.5"/>
  </g>
  <g id="Group_11043" data-name="Group 11043" transform="translate(981.747 87.203)">
    <g id="Group_10855-2" data-name="Group 10855" transform="translate(2.812 0.001)">
      <path id="Union_17-2" data-name="Union 17" d="M38.468,16.015h0L14.6,15.974v0L0,15.946a15.311,15.311,0,0,1,22.264-13.6A16.011,16.011,0,0,1,44.337,7.782a8.73,8.73,0,0,1,11.578,8.265Z" fill="#e7ebfb" stroke="rgba(0,0,0,0)" stroke-miterlimit="10" stroke-width="1" opacity="0.5"/>
    </g>
    <line id="Line_34-2" data-name="Line 34" x2="62.902" y2="0.112" transform="translate(0 15.942)" fill="none" stroke="#000" stroke-linecap="round" stroke-miterlimit="10" stroke-width="1"/>
  </g>
  <g id="Group_11041" data-name="Group 11041" transform="translate(-678.649 -621.801)">
    <path id="Path_11651" data-name="Path 11651" d="M572.459,730.956a13.787,13.787,0,0,0,3.655-5.516,13.038,13.038,0,0,1,24.519,0,13.786,13.786,0,0,0,3.656,5.516,13.038,13.038,0,0,1-11.1,22.463,27.081,27.081,0,0,0-9.626,0,13.034,13.034,0,0,1-11.1-22.463Z" transform="translate(140.451 139.961)" fill="#eaecf1"/>
    <path id="Path_11652" data-name="Path 11652" d="M622.392,774.827a27.081,27.081,0,0,0-9.626,0A13.045,13.045,0,0,1,597.4,762" transform="translate(111.246 118.553)" fill="none" stroke="#000" stroke-miterlimit="10" stroke-width="1.5"/>
    <g id="Group_10858" data-name="Group 10858" transform="translate(723.295 878.806)">
      <line id="Line_37" data-name="Line 37" y2="37.881" transform="translate(5.529 5.53)" fill="none" stroke="#000" stroke-miterlimit="10" stroke-width="1.5"/>
      <path id="Path_11653" data-name="Path 11653" d="M596.042,758.678l5.529,5.53,5.53-5.53" transform="translate(-596.042 -758.678)" fill="none" stroke="#000" stroke-miterlimit="10" stroke-width="1.5"/>
    </g>
  </g>
  <g id="Group_11038" data-name="Group 11038" transform="translate(-278.281 -592.611)">
    <path id="Path_11675" data-name="Path 11675" d="M219.323,419.354l29.232-9.3.928,185.469H215.691l3.631-8.115C202.982,528.806,219.323,419.354,219.323,419.354Z" transform="translate(880.226 298.238)" fill="#e7ebfb"/>
    <path id="Path_11676" data-name="Path 11676" d="M212.06,592.064c0-43.44,8.819-78.655,19.7-78.655a5.152,5.152,0,0,1,1.32.18l.7,140.621h-14.1C215.045,639.82,212.06,617.335,212.06,592.064Z" transform="translate(895.926 239.549)"/>
    <path id="Path_11677" data-name="Path 11677" d="M151.773,436.823s-6.98,113.915,12.733,167.85l-4.117,6.049h35.061s3.419-139.491,3.419-170.765Z" transform="translate(957.413 283.036)" fill="#f1f4ff"/>
    <g id="Group_10883" data-name="Group 10883" transform="translate(1116.631 621.543)">
      <path id="Path_11678" data-name="Path 11678" d="M199.883,219.507v14.8l18.34,4.508V213.836l-18.34-4.508Z" transform="translate(-199.883 -209.328)" fill="#edeeef"/>
      <ellipse id="Ellipse_177" data-name="Ellipse 177" cx="0.49" cy="0.49" rx="0.49" ry="0.49" transform="translate(9.869 14.32)"/>
      <ellipse id="Ellipse_178" data-name="Ellipse 178" cx="0.49" cy="0.49" rx="0.49" ry="0.49" transform="translate(2.338 14.32)"/>
      <path id="Path_11680" data-name="Path 11680" d="M234.448,240.438v-7.557h-3.786" transform="translate(-229.41 -222.702)" fill="none" stroke="#000" stroke-linecap="round" stroke-linejoin="round" stroke-miterlimit="10" stroke-width="1.5"/>
      <line id="Line_54" data-name="Line 54" x1="3.786" transform="translate(7.498 10.179)" fill="none" stroke="#000" stroke-miterlimit="10" stroke-width="1.5"/>
      <line id="Line_55" data-name="Line 55" transform="translate(0.663 8.942)" fill="none" stroke="#000" stroke-miterlimit="10" stroke-width="1.5"/>
      <g id="Group_10882" data-name="Group 10882" transform="translate(17.132 12.765)">
        <path id="Path_11681" data-name="Path 11681" d="M196.747,240.151v2.625a2.563,2.563,0,0,0,2.563-2.563q0-.118-.01-.233A1.282,1.282,0,0,0,196.747,240.151Z" transform="translate(-196.747 -238.866)" fill="#edeeef"/>
        <path id="Path_11682" data-name="Path 11682" d="M196.747,244.545a2.563,2.563,0,0,0,2.563-2.563" transform="translate(-196.747 -240.635)" fill="none" stroke="#000" stroke-miterlimit="10" stroke-width="1.5"/>
      </g>
      <path id="Path_11683" data-name="Path 11683" d="M222.152,252.772a1.45,1.45,0,0,0,1.45-1.45" transform="translate(-214.886 -230.86)" fill="none" stroke="#eb5e50" stroke-linecap="round" stroke-linejoin="round" stroke-width="1.5"/>
      <line id="Line_56" data-name="Line 56" x2="5.263" y2="1.293" transform="translate(13.077 28.197)" fill="none" stroke="#000" stroke-miterlimit="10" stroke-width="1.5"/>
      <line id="Line_57" data-name="Line 57" x2="1.656" y2="0.407" transform="translate(5.038 17.742)" fill="none" stroke="#000" stroke-linecap="round" stroke-miterlimit="10" stroke-width="1.5"/>
    </g>
    <path id="Path_11684" data-name="Path 11684" d="M150.573,306.46v40.047l56.733,13.944v-44.6a34.354,34.354,0,0,0-26.155-33.362h0a24.686,24.686,0,0,0-30.578,23.973Z" transform="translate(948.975 371.085)" fill="#eb5e50"/>
    <path id="Path_11685" data-name="Path 11685" d="M220.664,241.219s2.766,9.08-3.688,13.806c-6.009,4.4-15.48,1.823-13.239-8.467a30.734,30.734,0,0,0,.7-6.536v-.613" transform="translate(912.197 395.134)" fill="none" stroke="#000" stroke-linecap="round" stroke-linejoin="round" stroke-width="1.5"/>
    <path id="Path_11686" data-name="Path 11686" d="M215.916,217.481s6.1-11.173-3.294-13.186c0,0-3.82-4.772-9.254-2.46s-8.044.689-8.118,2.88-.341,5.844,2.252,7.708" transform="translate(919.129 416.829)" fill="none" stroke="#000" stroke-linecap="round" stroke-linejoin="round" stroke-width="1.5"/>
    <path id="Path_11687" data-name="Path 11687" d="M223.114,226.834l-1.54-6.276s-11.214.173-13.077-2.881" transform="translate(908.134 407.475)" fill="none" stroke="#333" stroke-linecap="round" stroke-linejoin="round" stroke-width="1.5"/>
    <path id="Path_11688" data-name="Path 11688" d="M231.284,436.823s-6.98,113.915,12.733,167.85l-4.117,6.049" transform="translate(877.902 283.036)" fill="none" stroke="#000" stroke-miterlimit="10" stroke-width="1.5"/>
    <path id="Path_11689" data-name="Path 11689" d="M263.809,301.021s9.527,37.622-2,51.682-65.46,5.763-81.133-9.45c0,0-5.532-1.383-6.684-4.149,0,0-5.3,3.918-5.071,1.383s2.074-10.437,11.525-8.445,55.337,2.914,55.337,2.914l-1.033-19.822" transform="translate(880.846 360.149)" fill="none" stroke="#000" stroke-linecap="round" stroke-miterlimit="10" stroke-width="1.5"/>
    <path id="Path_11690" data-name="Path 11690" d="M281.912,313.247s-6.932,13.435-6.038,28.073" transform="translate(820.251 353.207)" fill="none" stroke="#000" stroke-linecap="round" stroke-miterlimit="10" stroke-width="1.5"/>
    <path id="Path_11691" data-name="Path 11691" d="M310.838,430.711s-18.467,7.334-26.276-15.952" transform="translate(787.537 295.566)" fill="none" stroke="#000" stroke-miterlimit="10" stroke-width="1.5"/>
    <path id="Path_11692" data-name="Path 11692" d="M329.843,368.584s-19.567-10.107-22.574-5.871l-3.007,4.236" transform="translate(760.018 325.707)" fill="none" stroke="#000" stroke-miterlimit="10" stroke-width="1.5"/>
  </g>
</svg>
