<svg xmlns="http://www.w3.org/2000/svg" width="525.238" height="250.734" viewBox="0 0 525.238 250.734">
  <g id="Group_11454" data-name="Group 11454" transform="translate(-162.75 -942.474)">
    <g id="Group_11043" data-name="Group 11043" transform="translate(163 965.493)">
      <g id="Group_10855" data-name="Group 10855" transform="translate(3.239 0)">
        <path id="Union_17" data-name="Union 17" d="M44.306,18.445h0L16.818,18.4s0,0,0,0L0,18.366A17.634,17.634,0,0,1,25.643,2.7,18.441,18.441,0,0,1,51.066,8.963,10.055,10.055,0,0,1,64.4,18.482Z" transform="translate(0 0)" fill="#1b2e6a" stroke="rgba(0,0,0,0)" stroke-miterlimit="10" stroke-width="1" opacity="0.1"/>
      </g>
      <line id="Line_34" data-name="Line 34" x2="72.448" y2="0.129" transform="translate(0 18.36)" fill="none" stroke="#000" stroke-linecap="round" stroke-miterlimit="10" stroke-width="0.5"/>
    </g>
    <g id="Group_11041" data-name="Group 11041" transform="translate(476.042 1135.825)">
      <path id="Path_11651" data-name="Path 11651" d="M571.922,729.177a12.049,12.049,0,0,0,3.194-4.821,11.4,11.4,0,0,1,21.43,0,12.049,12.049,0,0,0,3.2,4.821,11.395,11.395,0,0,1-9.7,19.633,23.674,23.674,0,0,0-8.413,0,11.392,11.392,0,0,1-9.7-19.633Z" transform="translate(-568.198 -716.839)" fill="#eaecf1" stroke="rgba(0,0,0,0)" stroke-miterlimit="10" stroke-width="1"/>
      <path id="Path_11652" data-name="Path 11652" d="M619.244,773.211a23.668,23.668,0,0,0-8.413,0A11.4,11.4,0,0,1,597.4,762" transform="translate(-597.404 -741.24)" fill="none" stroke="#000" stroke-miterlimit="10" stroke-width="1"/>
      <g id="Group_10858" data-name="Group 10858" transform="translate(12.8 19.233)">
        <line id="Line_37" data-name="Line 37" y2="33.108" transform="translate(4.833 4.833)" fill="none" stroke="#000" stroke-miterlimit="10" stroke-width="1"/>
        <path id="Path_11653" data-name="Path 11653" d="M596.042,758.678l4.833,4.833,4.833-4.833" transform="translate(-596.042 -758.678)" fill="none" stroke="#000" stroke-miterlimit="10" stroke-width="1"/>
      </g>
    </g>
    <g id="Group_11028" data-name="Group 11028" transform="translate(200.055 1012.834)">
      <g id="Group_10848" data-name="Group 10848" transform="translate(0 0)">
        <path id="Path_11627" data-name="Path 11627" d="M361.666,666.724h-26.85v-11.36H307.381V641.938l-20.43-18.073H256.016V571.71H215.74V507.163l-50.782,44.925v85.719h-26.85v37.97h-11.09v-10.6H107.172v21.2H375.091V678.6Z" transform="translate(-107.172 -507.163)" fill="#f1f4ff" stroke="rgba(0,0,0,0)" stroke-miterlimit="10" stroke-width="1"/>
        <g id="Group_10839" data-name="Group 10839" transform="translate(111.674 77.613)">
          <rect id="Rectangle_2309" data-name="Rectangle 2309" width="3.668" height="3.245" fill="#fff" stroke="rgba(0,0,0,0)" stroke-miterlimit="10" stroke-width="1"/>
          <rect id="Rectangle_2310" data-name="Rectangle 2310" width="3.668" height="3.245" transform="translate(8.926)" fill="#fff" stroke="rgba(0,0,0,0)" stroke-miterlimit="10" stroke-width="1"/>
          <rect id="Rectangle_2311" data-name="Rectangle 2311" width="3.668" height="3.245" transform="translate(17.852)" fill="#fff" stroke="rgba(0,0,0,0)" stroke-miterlimit="10" stroke-width="1"/>
        </g>
        <g id="Group_10840" data-name="Group 10840" transform="translate(111.674 86.363)">
          <rect id="Rectangle_2312" data-name="Rectangle 2312" width="3.668" height="3.245" fill="#fff" stroke="rgba(0,0,0,0)" stroke-miterlimit="10" stroke-width="1"/>
          <rect id="Rectangle_2313" data-name="Rectangle 2313" width="3.668" height="3.245" transform="translate(8.926)" fill="#fff" stroke="rgba(0,0,0,0)" stroke-miterlimit="10" stroke-width="1"/>
          <rect id="Rectangle_2314" data-name="Rectangle 2314" width="3.668" height="3.245" transform="translate(17.852)" fill="#fff" stroke="rgba(0,0,0,0)" stroke-miterlimit="10" stroke-width="1"/>
        </g>
        <g id="Group_10841" data-name="Group 10841" transform="translate(111.674 95.113)">
          <rect id="Rectangle_2315" data-name="Rectangle 2315" width="3.668" height="3.245" fill="#fff" stroke="rgba(0,0,0,0)" stroke-miterlimit="10" stroke-width="1"/>
          <rect id="Rectangle_2316" data-name="Rectangle 2316" width="3.668" height="3.245" transform="translate(8.926)" fill="#fff" stroke="rgba(0,0,0,0)" stroke-miterlimit="10" stroke-width="1"/>
          <rect id="Rectangle_2317" data-name="Rectangle 2317" width="3.668" height="3.245" transform="translate(17.852)" fill="#fff" stroke="rgba(0,0,0,0)" stroke-miterlimit="10" stroke-width="1"/>
        </g>
        <g id="Group_10842" data-name="Group 10842" transform="translate(111.674 103.863)">
          <rect id="Rectangle_2318" data-name="Rectangle 2318" width="3.668" height="3.245" fill="#fff" stroke="rgba(0,0,0,0)" stroke-miterlimit="10" stroke-width="1"/>
          <rect id="Rectangle_2319" data-name="Rectangle 2319" width="3.668" height="3.245" transform="translate(8.926)" fill="#fff" stroke="rgba(0,0,0,0)" stroke-miterlimit="10" stroke-width="1"/>
          <rect id="Rectangle_2320" data-name="Rectangle 2320" width="3.668" height="3.245" transform="translate(17.852)" fill="#fff" stroke="rgba(0,0,0,0)" stroke-miterlimit="10" stroke-width="1"/>
        </g>
        <g id="Group_10843" data-name="Group 10843" transform="translate(111.674 112.612)">
          <rect id="Rectangle_2321" data-name="Rectangle 2321" width="3.668" height="3.245" fill="#fff" stroke="rgba(0,0,0,0)" stroke-miterlimit="10" stroke-width="1"/>
          <rect id="Rectangle_2322" data-name="Rectangle 2322" width="3.668" height="3.245" transform="translate(8.926)" fill="#fff" stroke="rgba(0,0,0,0)" stroke-miterlimit="10" stroke-width="1"/>
          <rect id="Rectangle_2323" data-name="Rectangle 2323" width="3.668" height="3.245" transform="translate(17.852)" fill="#fff" stroke="rgba(0,0,0,0)" stroke-miterlimit="10" stroke-width="1"/>
        </g>
        <g id="Group_10844" data-name="Group 10844" transform="translate(111.674 121.362)">
          <rect id="Rectangle_2324" data-name="Rectangle 2324" width="3.668" height="3.245" fill="#fff" stroke="rgba(0,0,0,0)" stroke-miterlimit="10" stroke-width="1"/>
          <rect id="Rectangle_2325" data-name="Rectangle 2325" width="3.668" height="3.245" transform="translate(8.926)" fill="#fff" stroke="rgba(0,0,0,0)" stroke-miterlimit="10" stroke-width="1"/>
          <rect id="Rectangle_2326" data-name="Rectangle 2326" width="3.668" height="3.245" transform="translate(17.852)" fill="#fff" stroke="rgba(0,0,0,0)" stroke-miterlimit="10" stroke-width="1"/>
        </g>
        <g id="Group_10845" data-name="Group 10845" transform="translate(111.674 130.112)">
          <rect id="Rectangle_2327" data-name="Rectangle 2327" width="3.668" height="3.245" fill="#fff" stroke="rgba(0,0,0,0)" stroke-miterlimit="10" stroke-width="1"/>
          <rect id="Rectangle_2328" data-name="Rectangle 2328" width="3.668" height="3.245" transform="translate(8.926)" fill="#fff" stroke="rgba(0,0,0,0)" stroke-miterlimit="10" stroke-width="1"/>
          <rect id="Rectangle_2329" data-name="Rectangle 2329" width="3.668" height="3.245" transform="translate(17.852)" fill="#fff" stroke="rgba(0,0,0,0)" stroke-miterlimit="10" stroke-width="1"/>
        </g>
        <g id="Group_10846" data-name="Group 10846" transform="translate(111.674 138.862)">
          <rect id="Rectangle_2330" data-name="Rectangle 2330" width="3.668" height="3.245" fill="#fff" stroke="rgba(0,0,0,0)" stroke-miterlimit="10" stroke-width="1"/>
          <rect id="Rectangle_2331" data-name="Rectangle 2331" width="3.668" height="3.245" transform="translate(8.926)" fill="#fff" stroke="rgba(0,0,0,0)" stroke-miterlimit="10" stroke-width="1"/>
          <rect id="Rectangle_2332" data-name="Rectangle 2332" width="3.668" height="3.245" transform="translate(17.852)" fill="#fff" stroke="rgba(0,0,0,0)" stroke-miterlimit="10" stroke-width="1"/>
        </g>
        <g id="Group_10847" data-name="Group 10847" transform="translate(111.674 147.611)">
          <rect id="Rectangle_2333" data-name="Rectangle 2333" width="3.668" height="3.245" fill="#fff" stroke="rgba(0,0,0,0)" stroke-miterlimit="10" stroke-width="1"/>
          <rect id="Rectangle_2334" data-name="Rectangle 2334" width="3.668" height="3.245" transform="translate(8.926)" fill="#fff" stroke="rgba(0,0,0,0)" stroke-miterlimit="10" stroke-width="1"/>
          <rect id="Rectangle_2335" data-name="Rectangle 2335" width="3.668" height="3.245" transform="translate(17.852)" fill="#fff" stroke="rgba(0,0,0,0)" stroke-miterlimit="10" stroke-width="1"/>
        </g>
      </g>
    </g>
    <g id="Group_11021" data-name="Group 11021" transform="translate(578.752 943)">
      <path id="Path_16012" data-name="Path 16012" d="M673.276,449.666s46.206,64.237,1.436,134.053l-1.084,13.868-27.047-14.412,15.1-56.611-21.072-36.72,15.192-49.06" transform="translate(-622.754 -348.179)" fill="#e7ebfb" stroke="rgba(0,0,0,0)" stroke-miterlimit="10" stroke-width="1"/>
      <path id="Path_16009" data-name="Path 16009" d="M753.76,430.045l-43.922.772.4,43.887V591.07h34.2l-3.617-6.481Z" transform="translate(-709.488 -341.663)" fill="#e7ebfb" stroke="rgba(0,0,0,0)" stroke-miterlimit="10" stroke-width="1"/>
      <path id="Path_16013" data-name="Path 16013" d="M751.39,219.02v13.467l-16.683,4.1V213.861l16.683-4.1Z" transform="translate(-718.516 -207.979)" fill="#f1f4ff" stroke="rgba(0,0,0,0)" stroke-miterlimit="10" stroke-width="1"/>
      <ellipse id="Ellipse_200" data-name="Ellipse 200" cx="0.446" cy="0.446" rx="0.446" ry="0.446" transform="translate(23.006 14.809)" stroke="rgba(0,0,0,0)" stroke-miterlimit="10" stroke-width="1"/>
      <ellipse id="Ellipse_199" data-name="Ellipse 199" cx="0.446" cy="0.446" rx="0.446" ry="0.446" transform="translate(29.856 14.809)" stroke="rgba(0,0,0,0)" stroke-miterlimit="10" stroke-width="1"/>
      <path id="Path_16014" data-name="Path 16014" d="M765.486,240.188v-6.874h3.444" transform="translate(-737.194 -222.272)" fill="none" stroke="#000" stroke-miterlimit="10" stroke-width="1"/>
      <line id="Line_57" data-name="Line 57" x2="3.444" transform="translate(22.611 11.041)" fill="none" stroke="#000" stroke-miterlimit="10" stroke-width="1"/>
      <line id="Line_55" data-name="Line 55" transform="translate(32.272 9.917)" fill="none" stroke="#000" stroke-miterlimit="10" stroke-width="1.5"/>
      <path id="Path_16017" data-name="Path 16017" d="M733.9,240.468v2.387a2.332,2.332,0,0,1-2.332-2.332q0-.107.01-.212A1.166,1.166,0,0,1,733.9,240.468Z" transform="translate(-716.612 -225.905)" fill="#edeeef" stroke="rgba(0,0,0,0)" stroke-miterlimit="10" stroke-width="1"/>
      <path id="Path_16018" data-name="Path 16018" d="M733.9,244.747a2.332,2.332,0,0,1-2.332-2.332" transform="translate(-716.612 -227.797)" fill="none" stroke="#000" stroke-miterlimit="10" stroke-width="1"/>
      <path id="Path_16015" data-name="Path 16015" d="M758.012,251.467a2.36,2.36,0,0,1-2.36-2.36" transform="translate(-732.651 -229.007)" fill="#1b2e6a" stroke="#1b2e6a" stroke-linecap="round" stroke-linejoin="round" stroke-width="1"/>
      <line id="Line_54" data-name="Line 54" x1="16.683" y2="4.1" transform="translate(16.191 24.508)" fill="none" stroke="#000" stroke-miterlimit="10" stroke-width="1"/>
      <line id="Line_56" data-name="Line 56" x1="1.506" y2="0.37" transform="translate(26.786 17.92)" fill="none" stroke="#000" stroke-linecap="round" stroke-miterlimit="10" stroke-width="1"/>
      <path id="Path_16010" data-name="Path 16010" d="M730.842,219.232s3.25-3.04,3.3-5.976c0,0,12.266,1.835,14.1,1.311l-1.31-2.516a27.163,27.163,0,0,0,4.246-2.1s-15.778-11.008-22.959.577c0,0-4.806,2.307.166,8.7" transform="translate(-713.313 -205.228)" fill="none" stroke="#000" stroke-miterlimit="10" stroke-width="1"/>
      <path id="Path_16007" data-name="Path 16007" d="M690.288,304.661v36.43L741.9,353.775V313.2A31.251,31.251,0,0,0,718.1,282.854h0a22.456,22.456,0,0,0-27.816,21.807Z" transform="translate(-689.938 -251.937)" fill="#eb5e50" stroke="rgba(0,0,0,0)" stroke-miterlimit="10" stroke-width="1"/>
      <line id="Line_58" data-name="Line 58" y1="154.544" x2="12.934" transform="translate(31.338 88.383)" fill="none" stroke="#000" stroke-miterlimit="10" stroke-width="1"/>
      <path id="Path_16008" data-name="Path 16008" d="M610.656,309.824s-10.722,17.753,5,35.837,72.179-8.177,74.852-21.072.629-11.794-2.359-9.121-4.56,2.044-4.56,2.044-.472-5.032-2.044-3.617a8.243,8.243,0,0,0-2.044,4.089l-37.923,10.064-9.414-15.568" transform="translate(-607.087 -268.703)" fill="none" stroke="#000" stroke-miterlimit="10" stroke-width="1"/>
      <path id="Path_16019" data-name="Path 16019" d="M678.862,292.767s14,8.717,19.75,19.1" transform="translate(-642.162 -258.353)" fill="none" stroke="#000" stroke-miterlimit="10" stroke-width="1"/>
      <path id="Path_16020" data-name="Path 16020" d="M568.36,373.234s20.076,1.841,30.14,3.518-1.258,3.774-1.258,3.774-5.242,7.548-14.258,4.613c0,0-18.381,8.806-37.077,3.984" transform="translate(-493.95 -307.185)" fill="none" stroke="#000" stroke-miterlimit="10" stroke-width="1"/>
    </g>
  </g>
</svg>
