<?xml version="1.0" encoding="UTF-8"?>
<!DOCTYPE svg PUBLIC "-//W3C//DTD SVG 1.1//EN" "http://www.w3.org/Graphics/SVG/1.1/DTD/svg11.dtd">
<!-- Creator: CorelDRAW X5 -->
<svg xmlns="http://www.w3.org/2000/svg" xml:space="preserve" width="47.712in" height="17.04in" style="shape-rendering:geometricPrecision; text-rendering:geometricPrecision; image-rendering:optimizeQuality; fill-rule:evenodd; clip-rule:evenodd"
viewBox="0 0 47.712 17.04"
 xmlns:xlink="http://www.w3.org/1999/xlink">
 <defs>
  <style type="text/css">
   <![CDATA[
    .fil0 {fill:none}
    .fil2 {fill:#6D6E6E}
    .fil1 {fill:#346F9F;fill-rule:nonzero}
   ]]>
  </style>
 </defs>
 <g id="Layer_x0020_1">
  <metadata id="CorelCorpID_0Corel-Layer"/>
  <g id="_199003040">
   <rect id="_199003448" class="fil0" x="-0.00214905" y="0.00289707" width="47.7163" height="17.0342"/>
   <g>
    <path id="_199009184" class="fil1" d="M10.53 10.9167l1.23016 3.14714c0.0926102,0.237118 -0.0386378,0.489169 -0.291646,0.559969l-0.134921 0.0378189c-0.253035,0.0708386 -0.535748,-0.0651535 -0.628362,-0.302276l-1.22993 -3.14706c-0.0928898,-0.237142 0.0384094,-0.489154 0.291449,-0.559984l0.134886 -0.0378937c0.253028,-0.0708583 0.53574,0.0651496 0.628362,0.30228z"/>
    <path id="_199010744" class="fil1" d="M10.3725 7.24898l1.38002 -3.08871c0.104008,-0.232724 -0.0148504,-0.490315 -0.264224,-0.572441l-0.132846 -0.0437835c-0.249413,-0.0821339 -0.538358,0.0410276 -0.642425,0.273744l-1.38005 3.08871c-0.104059,0.232709 0.014811,0.49022 0.264272,0.572362l0.132756 0.0438661c0.24937,0.082126 0.538413,-0.0410433 0.642492,-0.273752z"/>
    <path id="_199007144" class="fil1" d="M8.5815 11.3302l-1.41178 3.07541c-0.106354,0.231787 -0.382961,0.322445 -0.614886,0.201697l-0.12352 -0.0642638c-0.231894,-0.120732 -0.334547,-0.408921 -0.228213,-0.640713l1.41181 -3.0753c0.106343,-0.231803 0.383146,-0.322563 0.614827,-0.201795l0.123697 0.064248c0.231882,0.120756 0.334409,0.409083 0.228059,0.640717z"/>
    <path id="_199007168" class="fil1" d="M8.82639 6.86987l-1.25074 -3.13945c-0.0942677,-0.236591 -0.365969,-0.340646 -0.603748,-0.231256l-0.126705 0.0583701c-0.237815,0.109382 -0.355272,0.392299 -0.261039,0.628886l1.25069 3.13955c0.0941693,0.236587 0.365815,0.340559 0.60363,0.231173l0.126906 -0.0582913c0.237803,-0.109378 0.355189,-0.392303 0.261008,-0.628984z"/>
    <path id="_199004192" class="fil1" d="M7.28834 10.4291l-3.24118 1.23898c-0.244165,0.0933031 -0.507449,-0.0289921 -0.58515,-0.271815l-0.0415354 -0.129465c-0.0775866,-0.242929 0.0586496,-0.517976 0.302807,-0.611283l3.24107 -1.23909c0.244264,-0.0933425 0.507539,0.0289961 0.585335,0.271917l0.0413346 0.12939c0.0776969,0.242925 -0.0585118,0.517937 -0.302681,0.611358z"/>
    <path id="_199008128" class="fil1" d="M7.27902 7.73029l-3.24118 -1.23906c-0.244177,-0.0933268 -0.507469,0.0290118 -0.585161,0.271807l-0.0413976 0.129504c-0.0777126,0.242925 0.0585079,0.517945 0.302677,0.611287l3.24117 1.23909c0.244165,0.0932835 0.507461,-0.0290157 0.585213,-0.27185l0.0413701 -0.129461c0.0776929,-0.242937 -0.0585394,-0.517988 -0.302697,-0.611319z"/>
    <path id="_199008488" class="fil2" d="M9.53244 9.48716l0.44785 0.0481575c-0.0914921,0.502398 -0.411236,0.753894 -0.958579,0.753894 -0.355606,0 -0.620476,-0.105917 -0.795394,-0.317189 -0.17413,-0.211272 -0.261228,-0.493909 -0.261228,-0.847941 0,-0.381768 0.0921772,-0.674039 0.276602,-0.877937 0.184394,-0.203343 0.449984,-0.305323 0.797591,-0.305323 0.537083,0 0.852433,0.258315 0.94537,0.774319l-0.456606 0.0515315c-0.0482874,-0.346657 -0.212189,-0.519972 -0.490272,-0.519972 -0.372421,0 -0.559012,0.29965 -0.559012,0.898917 0,0.558488 0.187343,0.837717 0.56124,0.837717 0.149972,0 0.261232,-0.0424528 0.335122,-0.128012 0.0731969,-0.0849331 0.125878,-0.207862 0.157315,-0.368161z"/>
    <path id="_199010792" class="fil2" d="M22.2806 12.5361l0.421335 0.615591 0 -0.621425c0,-0.0403543 0.00904724,-0.0705118 0.0269764,-0.0906732 0.0178976,-0.0201929 0.0420906,-0.0303858 0.0725787,-0.0303858 0.0312402,0 0.056185,0.00996457 0.074311,0.030126 0.0181614,0.0201929 0.0272441,0.0505787 0.0272441,0.0909331l0 0.821028c0,0.0916575 -0.0393386,0.137354 -0.117949,0.137354 -0.0196654,0 -0.0373031,-0.00268898 -0.0531693,-0.00826378 -0.0156378,-0.00534252 -0.0304843,-0.0140945 -0.044122,-0.0257638 -0.0138661,-0.0119331 -0.0264528,-0.0257677 -0.0382874,-0.0418268 -0.0118661,-0.0158031 -0.0236693,-0.0320945 -0.0355354,-0.0486142l-0.411008 -0.607823 0 0.611232c0,0.0398583 -0.00957087,0.0700197 -0.028748,0.0904409 -0.0194055,0.0203898 -0.0440906,0.0306181 -0.0740512,0.0306181 -0.0310118,0 -0.0559882,-0.0102283 -0.0746102,-0.0308819 -0.0189134,-0.0206496 -0.0282244,-0.050811 -0.0282244,-0.0901772l0 -0.805232c0,-0.0342874 0.0040315,-0.0610039 0.0118346,-0.0804764 0.00934252,-0.021374 0.0249803,-0.038878 0.0466457,-0.0525157 0.0216378,-0.013374 0.0450748,-0.0201575 0.0700197,-0.0201575 0.0199331,0 0.036815,0.00314567 0.0506811,0.00924409 0.0140945,0.00629134 0.0264528,0.0145866 0.0370079,0.0250118 0.010622,0.0104567 0.0214724,0.0238307 0.0325197,0.0406142 0.0110787,0.0165236 0.022685,0.0337992 0.0345512,0.0520236zm1.37188 0.842894l0 -0.0250433c-0.024189,0.029437 -0.0493976,0.0542205 -0.0760827,0.0741496 -0.0264882,0.0199291 -0.0554646,0.0347795 -0.0869685,0.0444843 -0.0315,0.00973622 -0.0672638,0.0145866 -0.107618,0.0145866 -0.0488425,0 -0.0924764,-0.00970472 -0.130992,-0.0291417 -0.0385827,-0.0194724 -0.0685787,-0.0462205 -0.0897559,-0.0804764 -0.0249449,-0.0413386 -0.0375315,-0.100669 -0.0375315,-0.178232l0 -0.385075c0,-0.0391417 0.00904724,-0.0680866 0.0272047,-0.0872953 0.0181614,-0.0192087 0.0423543,-0.0289134 0.0723504,-0.0289134 0.0302244,0 0.0549409,0.00970472 0.0735906,0.0291772 0.018622,0.019437 0.0279646,0.0483504 0.0279646,0.0870315l0 0.311189c0,0.0449764 0.00399606,0.0829016 0.0118307,0.11352 0.00780315,0.0306496 0.0219331,0.0547126 0.0423228,0.0719882 0.0204213,0.0172402 0.0481535,0.0259921 0.0831969,0.0259921 0.0339921,0 0.0660197,-0.00973622 0.0959843,-0.0291732 0.0299921,-0.0194409 0.0519213,-0.0449764 0.0657874,-0.0763465 0.0113425,-0.0274724 0.0168858,-0.0877559 0.0168858,-0.180886l0 -0.236283c0,-0.0386811 0.00934252,-0.0675945 0.0279606,-0.0870315 0.0189134,-0.0194724 0.0433346,-0.0291772 0.0733622,-0.0291772 0.0299646,0 0.0541535,0.00970472 0.0722835,0.0289134 0.0183898,0.0192087 0.0274685,0.0481535 0.0274685,0.0872953l0 0.563307c0,0.0369449 -0.00881496,0.0646417 -0.026189,0.0833937 -0.0176378,0.0184567 -0.0400591,0.0277008 -0.0677913,0.0277008 -0.0274724,0 -0.0503858,-0.00973622 -0.068315,-0.0289449 -0.0178661,-0.0191772 -0.0269488,-0.046189 -0.0269488,-0.0807087zm0.589925 -0.170917l0 0.162429c0,0.0393701 -0.00960236,0.0687717 -0.0287165,0.0884724 -0.0191772,0.0197008 -0.0433661,0.0296693 -0.0728701,0.0296693 -0.0289449,0 -0.052878,-0.0099685 -0.071563,-0.0298976 -0.0186496,-0.0199291 -0.0279606,-0.0493661 -0.0279606,-0.0882441l0 -0.541445c0,-0.0872953 0.0327795,-0.131024 0.0980472,-0.131024 0.0332717,0 0.0574646,0.0101969 0.0720512,0.0306181 0.0148858,0.0204213 0.0229488,0.050811 0.0244567,0.0906732 0.0239291,-0.0398622 0.0486457,-0.070252 0.0740827,-0.0906732 0.0254724,-0.0204213 0.0592362,-0.0306181 0.101555,-0.0306181 0.0423543,0 0.0834291,0.0101969 0.123224,0.0306181 0.0398307,0.0204213 0.0597283,0.0476614 0.0597283,0.0814606 0,0.0237992 -0.00832677,0.0432717 -0.0254409,0.0588071 -0.0168819,0.0155709 -0.0352717,0.0231102 -0.054937,0.0231102 -0.00731102,0 -0.0251772,-0.00438976 -0.0534331,-0.0131457 -0.0284567,-0.00875197 -0.0534016,-0.0131102 -0.0751024,-0.0131102 -0.0294685,0 -0.0534016,0.00753937 -0.072315,0.0223583 -0.0186181,0.0150787 -0.0332717,0.0372047 -0.0435984,0.0666102 -0.0103268,0.029437 -0.017374,0.0644449 -0.0214055,0.105028 -0.00377165,0.0406181 -0.00580315,0.0899528 -0.00580315,0.148303zm0.492173 -0.492535l0.0221575 0 0 -0.116961c0,-0.0313701 0.000755906,-0.0559252 0.00252756,-0.0736575 0.00173622,-0.0179961 0.00651969,-0.0333071 0.0143543,-0.0459606 0.00780315,-0.013374 0.0191457,-0.0242913 0.0340276,-0.0325827 0.014622,-0.00825984 0.0310118,-0.0123937 0.0493701,-0.0123937 0.0254685,0 0.0483819,0.00924409 0.0690669,0.0277323 0.0138346,0.0123937 0.0224213,0.0274724 0.0262244,0.0454685 0.00377165,0.0177362 0.00553937,0.0430079 0.00553937,0.0758543l0 0.1325 0.0738228 0c0.0284882,0 0.0503858,0.00655906 0.0652677,0.0194409 0.0151457,0.0131102 0.022685,0.0298937 0.022685,0.0500866 0,0.0262598 -0.0108504,0.0444843 -0.0322559,0.0549409 -0.0214409,0.0104606 -0.0519252,0.0155394 -0.0919843,0.0155394l-0.0375354 0 0 0.357409c0,0.0303898 0.000984252,0.0539567 0.00324803,0.070252 0.00229528,0.0162913 0.00809449,0.0296654 0.0176339,0.0398583 0.00987008,0.0102283 0.0254724,0.0153425 0.0471417,0.0153425 0.0115709,0 0.0277323,-0.00196457 0.0478583,-0.00609843 0.0201929,-0.00386614 0.0360591,-0.00606299 0.0471378,-0.00606299 0.0163937,0 0.0309803,0.00632677 0.0440906,0.0189488 0.0131457,0.0126535 0.0194055,0.0282244 0.0194055,0.0466772 0,0.031374 -0.0176339,0.0552047 -0.0529055,0.0717244 -0.0355354,0.0167835 -0.0864449,0.0250472 -0.152957,0.0250472 -0.0630039,0 -0.110634,-0.0102283 -0.14289,-0.0306181 -0.0325197,-0.0204213 -0.0536654,-0.0486457 -0.0637598,-0.0848701 -0.010063,-0.0359606 -0.0151142,-0.0841142 -0.0151142,-0.144402l0 -0.373209 -0.0264528 0c-0.0292402,0 -0.0514016,-0.00655512 -0.0665118,-0.0199291 -0.0154055,-0.0131142 -0.0229488,-0.030126 -0.0229488,-0.0505512 0,-0.0201929 0.00806693,-0.0369764 0.0239331,-0.0500866 0.016126,-0.0128819 0.0393031,-0.0194409 0.0698228,-0.0194409zm1.04705 0.663453l0 -0.0250433c-0.024189,0.029437 -0.0493976,0.0542205 -0.0760827,0.0741496 -0.0264882,0.0199291 -0.0554646,0.0347795 -0.0869685,0.0444843 -0.0315,0.00973622 -0.0672638,0.0145866 -0.107618,0.0145866 -0.0488425,0 -0.0924764,-0.00970472 -0.130992,-0.0291417 -0.0385827,-0.0194724 -0.0685787,-0.0462205 -0.0897559,-0.0804764 -0.0249449,-0.0413386 -0.0375315,-0.100669 -0.0375315,-0.178232l0 -0.385075c0,-0.0391417 0.00904724,-0.0680866 0.0272047,-0.0872953 0.0181299,-0.0192087 0.0423228,-0.0289134 0.0723504,-0.0289134 0.0302244,0 0.0549409,0.00970472 0.0735906,0.0291772 0.018622,0.019437 0.0279646,0.0483504 0.0279646,0.0870315l0 0.311189c0,0.0449764 0.00399606,0.0829016 0.0118307,0.11352 0.00780315,0.0306496 0.0219331,0.0547126 0.0423228,0.0719882 0.0204213,0.0172402 0.0481535,0.0259921 0.0831969,0.0259921 0.0339921,0 0.0660197,-0.00973622 0.0959843,-0.0291732 0.0299921,-0.0194409 0.0519213,-0.0449764 0.0657559,-0.0763465 0.011374,-0.0274724 0.0169173,-0.0877559 0.0169173,-0.180886l0 -0.236283c0,-0.0386811 0.00934252,-0.0675945 0.0279606,-0.0870315 0.0189134,-0.0194724 0.0433346,-0.0291772 0.0733622,-0.0291772 0.0299646,0 0.0541535,0.00970472 0.0722835,0.0289134 0.0183898,0.0192087 0.0274685,0.0481535 0.0274685,0.0872953l0 0.563307c0,0.0369449 -0.00881496,0.0646417 -0.026189,0.0833937 -0.0176378,0.0184567 -0.0400591,0.0277008 -0.0677913,0.0277008 -0.0274724,0 -0.0503858,-0.00973622 -0.068315,-0.0289449 -0.0178661,-0.0191772 -0.0269488,-0.046189 -0.0269488,-0.0807087zm0.589925 -0.170917l0 0.162429c0,0.0393701 -0.00960236,0.0687717 -0.0287165,0.0884724 -0.0191772,0.0197008 -0.0433661,0.0296693 -0.0728701,0.0296693 -0.0289449,0 -0.0529094,-0.0099685 -0.071563,-0.0298976 -0.0186496,-0.0199291 -0.0279606,-0.0493661 -0.0279606,-0.0882441l0 -0.541445c0,-0.0872953 0.0327795,-0.131024 0.0980472,-0.131024 0.0332717,0 0.0574646,0.0101969 0.0720512,0.0306181 0.0148858,0.0204213 0.0229488,0.050811 0.0244252,0.0906732 0.0239606,-0.0398622 0.0486772,-0.070252 0.0741142,-0.0906732 0.0254724,-0.0204213 0.0592362,-0.0306181 0.101555,-0.0306181 0.0423543,0 0.0834291,0.0101969 0.123224,0.0306181 0.0398307,0.0204213 0.0597283,0.0476614 0.0597283,0.0814606 0,0.0237992 -0.00832677,0.0432717 -0.0254409,0.0588071 -0.0169134,0.0155709 -0.0352717,0.0231102 -0.054937,0.0231102 -0.00731102,0 -0.0251772,-0.00438976 -0.0534331,-0.0131457 -0.0284567,-0.00875197 -0.0534016,-0.0131102 -0.0751024,-0.0131102 -0.0294685,0 -0.0534016,0.00753937 -0.072315,0.0223583 -0.0186181,0.0150787 -0.0332717,0.0372047 -0.0435984,0.0666102 -0.0103268,0.029437 -0.017374,0.0644449 -0.0214055,0.105028 -0.00377165,0.0406181 -0.00580315,0.0899528 -0.00580315,0.148303zm0.66378 -0.399665l0 0.562094c0,0.038878 -0.00957087,0.068315 -0.028748,0.0882441 -0.0191102,0.0199291 -0.0433031,0.0298976 -0.0728071,0.0298976 -0.0295039,0 -0.0533976,-0.0102283 -0.0718228,-0.0306181 -0.0183898,-0.0204213 -0.0277323,-0.0495984 -0.0277323,-0.0875236l0 -0.55626c0,-0.0386811 0.00934252,-0.0675945 0.0277323,-0.0870315 0.0184252,-0.0194724 0.0423189,-0.0291772 0.0718228,-0.0291772 0.0295039,0 0.0536969,0.00970472 0.0728071,0.0291772 0.0191772,0.019437 0.028748,0.0466457 0.028748,0.0811969zm-0.0995551 -0.200815c-0.0279606,0 -0.0519252,-0.00829528 -0.0717913,-0.024815 -0.0198976,-0.0165236 -0.0297638,-0.040126 -0.0297638,-0.0705118 0,-0.0272087 0.0100984,-0.0498268 0.0305197,-0.067563 0.0204213,-0.0177677 0.0440906,-0.026748 0.0710354,-0.026748 0.0262244,0 0.0491378,0.00799606 0.0693307,0.0240591 0.0201299,0.0162953 0.0302244,0.0396339 0.0302244,0.070252 0,0.0299291 -0.00979921,0.0532677 -0.0295039,0.0700197 -0.0196339,0.0167835 -0.0428425,0.0253071 -0.0700512,0.0253071zm0.490665 0.197898l0 0.0235669c0.0355315,-0.0452047 0.0743465,-0.0782795 0.116406,-0.0994213 0.0420906,-0.0211772 0.0904724,-0.0316024 0.145154,-0.0316024 0.0531693,0 0.100535,0.0111772 0.142626,0.0335354 0.0418307,0.022126 0.0731024,0.0537283 0.0937559,0.0945709 0.0133425,0.0238346 0.0218976,0.0493701 0.0259606,0.0770709 0.00377165,0.0274685 0.00577165,0.0624803 0.00577165,0.105256l0 0.362035c0,0.038878 -0.00931102,0.068315 -0.0277008,0.0882441 -0.0184213,0.0199291 -0.0426142,0.0298976 -0.0720512,0.0298976 -0.0299961,0 -0.0544488,-0.0102283 -0.0733661,-0.0306181 -0.0186181,-0.0204213 -0.0279606,-0.0495984 -0.0279606,-0.0875236l0 -0.324335c0,-0.0639567 -0.00931102,-0.113063 -0.0277323,-0.147087 -0.0183898,-0.0337992 -0.0551693,-0.050811 -0.110374,-0.050811 -0.0357638,0 -0.0685118,0.0101929 -0.0982756,0.030878 -0.0294724,0.0206535 -0.0511378,0.0491063 -0.0647756,0.0853307 -0.00980315,0.0289449 -0.0148504,0.0829016 -0.0148504,0.162394l0 0.24363c0,0.0393701 -0.00957087,0.0687717 -0.0284528,0.0884724 -0.0189173,0.0197008 -0.0433701,0.0296693 -0.0731024,0.0296693 -0.0289764,0 -0.0529409,-0.0102283 -0.0715591,-0.0306181 -0.0186535,-0.0204213 -0.0279961,-0.0495984 -0.0279961,-0.0875236l0 -0.562094c0,-0.0369764 0.00832677,-0.0646772 0.0249803,-0.0829016 0.0168819,-0.0182598 0.0395315,-0.0274724 0.0685118,-0.0274724 0.0176339,0 0.0337953,0.00412992 0.0478898,0.0121299 0.0143583,0.0080315 0.0257362,0.0201929 0.0342913,0.0362205 0.00855512,0.0162953 0.0128504,0.0359961 0.0128504,0.0591063zm1.47166 0.0354685l0 0.56478c0,0.0646772 -0.00707874,0.12011 -0.0214055,0.166528 -0.0143898,0.0466811 -0.0370748,0.0850984 -0.0685748,0.115488 -0.0315039,0.0303858 -0.0728071,0.0530079 -0.123717,0.0675945 -0.0509094,0.014815 -0.114406,0.022126 -0.189996,0.022126 -0.069563,0 -0.131583,-0.00947244 -0.186228,-0.0282244 -0.0544488,-0.0187165 -0.0965394,-0.0430079 -0.126272,-0.0726732 -0.0294724,-0.0296693 -0.044126,-0.0600551 -0.044126,-0.0914291 0,-0.0237953 0.00832677,-0.0430079 0.0249803,-0.0580866 0.0168504,-0.0148504 0.0370433,-0.0223898 0.0607087,-0.0223898 0.0295039,0 0.0554646,0.0124252 0.077626,0.0377008 0.0108504,0.0126535 0.0221929,0.0255354 0.0335354,0.0386457 0.0115709,0.0128858 0.0244213,0.024063 0.0382874,0.0333071 0.0140945,0.00924409 0.0309764,0.0162913 0.0506811,0.020685 0.0196339,0.00462205 0.0423189,0.00678346 0.0677559,0.00678346 0.052189,0 0.0925079,-0.00704724 0.121224,-0.0208819 0.0289764,-0.014126 0.0491378,-0.0335669 0.0604803,-0.0588386 0.0115709,-0.0250472 0.0183898,-0.0520236 0.0204213,-0.0807402 0.002,-0.028685 0.00354331,-0.0746102 0.00426378,-0.138303 -0.0309803,0.0417953 -0.0667756,0.0736575 -0.107358,0.0952953 -0.0405827,0.0218622 -0.0889685,0.032811 -0.14489,0.032811 -0.0675315,0 -0.126504,-0.0165197 -0.176886,-0.0498268 -0.0504173,-0.0333031 -0.0892323,-0.0797559 -0.116177,-0.139807 -0.0269764,-0.0597953 -0.0406142,-0.128862 -0.0406142,-0.207146 0,-0.0585787 0.00832677,-0.111323 0.0247165,-0.158264 0.0166535,-0.0469094 0.0400906,-0.0868031 0.0705748,-0.118898 0.0304882,-0.0323228 0.0654961,-0.0566457 0.105555,-0.0731654 0.0398307,-0.0162913 0.083689,-0.0245551 0.131323,-0.0245551 0.0569724,0 0.106602,0.010689 0.148429,0.0318661 0.0418307,0.0211417 0.0806417,0.0544488 0.116406,0.0996535l0 -0.0264882c0,-0.0337953 0.00885039,-0.0600551 0.0259646,-0.0785433 0.0171417,-0.0187165 0.0393031,-0.0279291 0.0665433,-0.0279291 0.0387795,0 0.0647441,0.0123898 0.0775906,0.0369449 0.0128858,0.0245512 0.0191772,0.0597913 0.0191772,0.10598zm-0.583661 0.246543c0,0.0787717 0.0179291,0.138335 0.0534646,0.178689 0.0357638,0.0403543 0.0816575,0.0605472 0.138303,0.0605472 0.0332717,0 0.0650354,-0.00875197 0.0947677,-0.0260276 0.0297323,-0.0172756 0.0539252,-0.0435354 0.0725787,-0.0782795 0.0186535,-0.0350118 0.0279606,-0.0773307 0.0279606,-0.127157 0,-0.0792638 -0.018126,-0.140992 -0.0541535,-0.185248 -0.0360591,-0.0440236 -0.083689,-0.0661496 -0.14263,-0.0661496 -0.0574646,0 -0.103587,0.0211772 -0.138366,0.0634646 -0.0345197,0.0423189 -0.0519252,0.102343 -0.0519252,0.180161zm1.82602 -0.497417l-0.431921 0 0 0.266937 0.361114 0c0.0332756,0 0.0584488,0.00727559 0.0748386,0.0216339 0.0163583,0.0145866 0.024685,0.0340276 0.024685,0.058122 0,0.0242913 -0.00832677,0.0435 -0.0249449,0.0578583 -0.0168819,0.0143228 -0.0418307,0.021374 -0.0745787,0.021374l-0.361114 0 0 0.343772c0,0.0437638 -0.0103228,0.0761181 -0.030748,0.0972598 -0.0204213,0.0211457 -0.0466142,0.0316024 -0.078378,0.0316024 -0.0324843,0 -0.0589724,-0.010689 -0.0793937,-0.0320945 -0.0203898,-0.0214055 -0.030748,-0.0537283 -0.030748,-0.0967677l0 -0.803492c0,-0.0303898 0.00478346,-0.0552047 0.014126,-0.0744134 0.00931102,-0.0192087 0.0239291,-0.0333031 0.0438622,-0.0420551 0.0198976,-0.00875591 0.0453346,-0.0131142 0.0763465,-0.0131142l0.516854 0c0.0350433,0 0.0609724,0.00753937 0.0778543,0.0223583 0.0168819,0.0150787 0.0254409,0.0347795 0.0254409,0.0588386 0,0.0247835 -0.00855906,0.0447126 -0.0254409,0.0597953 -0.0168819,0.0148465 -0.042811,0.0223858 -0.0778543,0.0223858zm0.434185 0.218323l0 0.562094c0,0.038878 -0.0095748,0.068315 -0.028752,0.0882441 -0.0191102,0.0199291 -0.0433031,0.0298976 -0.0728031,0.0298976 -0.0295039,0 -0.0534016,-0.0102283 -0.0718228,-0.0306181 -0.0183898,-0.0204213 -0.0277323,-0.0495984 -0.0277323,-0.0875236l0 -0.55626c0,-0.0386811 0.00934252,-0.0675945 0.0277323,-0.0870315 0.0184213,-0.0194724 0.0423189,-0.0291772 0.0718228,-0.0291772 0.0295,0 0.0536929,0.00970472 0.0728031,0.0291772 0.0191772,0.019437 0.028752,0.0466457 0.028752,0.0811969zm-0.0995551 -0.200815c-0.0279646,0 -0.0519252,-0.00829528 -0.0717913,-0.024815 -0.0199331,-0.0165236 -0.0297638,-0.040126 -0.0297638,-0.0705118 0,-0.0272087 0.0100945,-0.0498268 0.0305157,-0.067563 0.0204252,-0.0177677 0.0440906,-0.026748 0.0710394,-0.026748 0.0262244,0 0.0491378,0.00799606 0.0693307,0.0240591 0.020126,0.0162953 0.0302244,0.0396339 0.0302244,0.070252 0,0.0299291 -0.00980315,0.0532677 -0.0295039,0.0700197 -0.0196378,0.0167835 -0.0428465,0.0253071 -0.0700512,0.0253071zm0.490661 0.197898l0 0.0235669c0.0355354,-0.0452047 0.074315,-0.0782795 0.116406,-0.0994213 0.0420906,-0.0211772 0.0904764,-0.0316024 0.145154,-0.0316024 0.0531693,0 0.100539,0.0111772 0.14263,0.0335354 0.0418268,0.022126 0.0731024,0.0537283 0.093752,0.0945709 0.0133425,0.0238346 0.0218976,0.0493701 0.0259646,0.0770709 0.00376772,0.0274685 0.00576772,0.0624803 0.00576772,0.105256l0 0.362035c0,0.038878 -0.00931102,0.068315 -0.0277008,0.0882441 -0.0184213,0.0199291 -0.0426142,0.0298976 -0.0720512,0.0298976 -0.0300276,0 -0.0544488,-0.0102283 -0.0733622,-0.0306181 -0.018622,-0.0204213 -0.0279646,-0.0495984 -0.0279646,-0.0875236l0 -0.324335c0,-0.0639567 -0.00930709,-0.113063 -0.0277323,-0.147087 -0.0183898,-0.0337992 -0.0551693,-0.050811 -0.11037,-0.050811 -0.0357677,0 -0.0685157,0.0101929 -0.0982795,0.030878 -0.0294685,0.0206535 -0.0511378,0.0491063 -0.0647756,0.0853307 -0.00979921,0.0289449 -0.0148504,0.0829016 -0.0148504,0.162394l0 0.24363c0,0.0393701 -0.00957087,0.0687717 -0.0284843,0.0884724 -0.0188819,0.0197008 -0.0433386,0.0296693 -0.0730709,0.0296693 -0.0289764,0 -0.0529409,-0.0102283 -0.0715591,-0.0306181 -0.0186535,-0.0204213 -0.0279961,-0.0495984 -0.0279961,-0.0875236l0 -0.562094c0,-0.0369764 0.00832677,-0.0646772 0.0249803,-0.0829016 0.0168819,-0.0182598 0.0395354,-0.0274724 0.0685118,-0.0274724 0.0176378,0 0.0337992,0.00412992 0.0478937,0.0121299 0.0143583,0.0080315 0.0257323,0.0201929 0.0342874,0.0362205 0.00855512,0.0162953 0.0128504,0.0359961 0.0128504,0.0591063zm1.24007 0.573992c-0.0489094,0.0364528 -0.0960472,0.0636929 -0.14135,0.0819213 -0.0456299,0.0182559 -0.0967677,0.0272402 -0.153252,0.0272402 -0.0516614,0 -0.0972598,-0.0099685 -0.136335,-0.0296693 -0.0390748,-0.0197008 -0.0692992,-0.046185 -0.0904764,-0.0799843 -0.0211732,-0.0337953 -0.0317283,-0.070248 -0.0317283,-0.109654 0,-0.0532323 0.0174055,-0.098437 0.0524134,-0.135909 0.0350118,-0.0376614 0.0831654,-0.0627087 0.144402,-0.0755906 0.0125866,-0.00291732 0.0443504,-0.00924409 0.095,-0.0192087 0.0506457,-0.00996457 0.0942441,-0.0189488 0.130303,-0.0274724 0.0360236,-0.00825984 0.0753307,-0.0182244 0.11765,-0.0301575 -0.00249213,-0.0513031 -0.0131102,-0.0889685 -0.0319921,-0.112799 -0.0191457,-0.0240591 -0.0582205,-0.0359921 -0.117949,-0.0359921 -0.0511378,0 -0.089685,0.0068189 -0.115386,0.020685 -0.0259646,0.0136024 -0.0481575,0.0342874 -0.0665118,0.0619882 -0.0184252,0.0274685 -0.0315039,0.0454646 -0.0390748,0.0544488 -0.00783465,0.00875197 -0.0241929,0.0131457 -0.0491417,0.0131457 -0.0227165,0 -0.0423504,-0.00704724 -0.0587087,-0.0211457 -0.0163898,-0.0138661 -0.0247165,-0.0318622 -0.0247165,-0.0537283 0,-0.0342874 0.0126181,-0.0675945 0.0375315,-0.0999488 0.0252441,-0.0323189 0.0642835,-0.0588071 0.117457,-0.0797205 0.0531693,-0.0209173 0.119453,-0.031374 0.198815,-0.031374 0.0884764,0 0.158268,0.0102283 0.208913,0.0303898 0.0506457,0.0201929 0.0864409,0.0520236 0.107323,0.0957835 0.0209488,0.0437638 0.0315039,0.101622 0.0315039,0.173839 0,0.0456969 -0.000228346,0.084378 -0.00046063,0.116209 -0.000295276,0.0318622 -0.000523622,0.0673307 -0.00101575,0.106244 0,0.0364843 0.00625984,0.0746417 0.0188819,0.114272 0.012622,0.0393701 0.0186535,0.0649055 0.0186535,0.0763465 0,0.0199331 -0.0095748,0.0381575 -0.0289803,0.0544488 -0.0196339,0.0162913 -0.0415984,0.0245551 -0.066248,0.0245551 -0.0207165,0 -0.0411063,-0.00924409 -0.0612677,-0.0279646 -0.0201614,-0.0187165 -0.0415669,-0.0456969 -0.064252,-0.0811969zm-0.013374 -0.281783c-0.0294685,0.0104567 -0.0722835,0.0216339 -0.128764,0.0330748 -0.0562165,0.0116693 -0.0952283,0.0204213 -0.116929,0.0257677 -0.0216693,0.00560236 -0.0423189,0.0162913 -0.0619567,0.0320906 -0.0197008,0.016063 -0.0295,0.0381575 -0.0295,0.066874 0,0.0294055 0.0115709,0.0544488 0.034748,0.0750984 0.0229449,0.020685 0.0531693,0.0311417 0.0907362,0.0311417 0.0398268,0 0.0766102,-0.00851969 0.11011,-0.0253031 0.0337638,-0.0170157 0.0584803,-0.0386496 0.0743465,-0.0654016 0.0181614,-0.0294016 0.0272087,-0.0780157 0.0272087,-0.14561l0 -0.0277323zm0.584909 -0.292209l0 0.0235669c0.0355354,-0.0452047 0.0743465,-0.0782795 0.116406,-0.0994213 0.042122,-0.0211772 0.0905079,-0.0316024 0.145154,-0.0316024 0.0532008,0 0.100539,0.0111772 0.142661,0.0335354 0.0418268,0.022126 0.0730669,0.0537283 0.0937205,0.0945709 0.013374,0.0238346 0.0219291,0.0493701 0.0259606,0.0770709 0.00377165,0.0274685 0.00580315,0.0624803 0.00580315,0.105256l0 0.362035c0,0.038878 -0.00930709,0.068315 -0.0277008,0.0882441 -0.0184213,0.0199291 -0.0426142,0.0298976 -0.0720827,0.0298976 -0.0299961,0 -0.0544173,-0.0102283 -0.0733661,-0.0306181 -0.0186181,-0.0204213 -0.0279606,-0.0495984 -0.0279606,-0.0875236l0 -0.324335c0,-0.0639567 -0.00931102,-0.113063 -0.0277008,-0.147087 -0.0183898,-0.0337992 -0.0552008,-0.050811 -0.11037,-0.050811 -0.0357992,0 -0.0685472,0.0101929 -0.098311,0.030878 -0.029437,0.0206535 -0.0511378,0.0491063 -0.0647441,0.0853307 -0.00983465,0.0289449 -0.0148465,0.0829016 -0.0148465,0.162394l0 0.24363c0,0.0393701 -0.0096063,0.0687717 -0.0284882,0.0884724 -0.0188819,0.0197008 -0.0433701,0.0296693 -0.0730669,0.0296693 -0.0290118,0 -0.0529409,-0.0102283 -0.071563,-0.0306181 -0.0186535,-0.0204213 -0.0280276,-0.0495984 -0.0280276,-0.0875236l0 -0.562094c0,-0.0369764 0.00832677,-0.0646772 0.0249803,-0.0829016 0.0168819,-0.0182598 0.0395669,-0.0274724 0.0685433,-0.0274724 0.0176378,0 0.0337638,0.00412992 0.0478622,0.0121299 0.0143898,0.0080315 0.0257323,0.0201929 0.0342874,0.0362205 0.00858661,0.0162953 0.0128504,0.0359961 0.0128504,0.0591063zm1.45376 0.442705c0,0.024063 -0.00753937,0.0500906 -0.0226496,0.0775591 -0.0148819,0.0274724 -0.0378307,0.0537283 -0.0685472,0.0785118 -0.030748,0.024815 -0.0695591,0.0450079 -0.116437,0.0600551 -0.0466142,0.0153386 -0.0992913,0.0228465 -0.158004,0.0228465 -0.1245,0 -0.221728,-0.0349764 -0.291583,-0.104996 -0.0700551,-0.0700197 -0.105063,-0.163874 -0.105063,-0.281783 0,-0.0797559 0.016126,-0.150268 0.048122,-0.211535 0.0320276,-0.0612362 0.0784094,-0.108669 0.13889,-0.141976 0.0607126,-0.0335354 0.133028,-0.0503189 0.217209,-0.0503189 0.0521535,0 0.100047,0.00731102 0.14361,0.0221299 0.0433701,0.014815 0.0804134,0.0337953 0.110638,0.0571339 0.0302559,0.0233425 0.0534331,0.048126 0.0692992,0.0743819 0.016126,0.0265197 0.0241929,0.0510709 0.0241929,0.0739213 0,0.0233386 -0.00908268,0.0430394 -0.0269488,0.0593307 -0.0181575,0.0160315 -0.0398268,0.024063 -0.0655591,0.024063 -0.0165866,0 -0.0304567,-0.00412992 -0.0415354,-0.0124252 -0.0111102,-0.00825984 -0.023437,-0.0216339 -0.0373031,-0.0400906 -0.0247165,-0.0359921 -0.0503858,-0.0632323 -0.0771024,-0.0811969 -0.0269764,-0.0179961 -0.0610039,-0.0270118 -0.102307,-0.0270118 -0.0595,0 -0.107622,0.0223898 -0.143909,0.0673661 -0.0365512,0.0447126 -0.0547126,0.10598 -0.0547126,0.183799 0,0.0364528 0.0047874,0.0700197 0.0141614,0.100638 0.00931102,0.0306496 0.0226535,0.0569094 0.0405512,0.0782835 0.0176378,0.0216339 0.0390433,0.0379252 0.064252,0.0491024 0.0249449,0.0112126 0.0526772,0.0167835 0.0826732,0.0167835 0.0402874,0 0.0748386,-0.00898031 0.103555,-0.0269764 0.0290079,-0.0179961 0.0544488,-0.0456969 0.0766063,-0.0826732 0.0120984,-0.0218661 0.0254409,-0.038878 0.0398307,-0.0510394 0.0140945,-0.0123937 0.0317638,-0.0187205 0.0524173,-0.0187205 0.0246811,0 0.0450709,0.00924409 0.0612323,0.0272087 0.0161299,0.0179961 0.0244213,0.0372087 0.0244213,0.0576299zm0.376524 -0.439787l0 0.562094c0,0.038878 -0.0096063,0.068315 -0.028752,0.0882441 -0.0191417,0.0199291 -0.0433346,0.0298976 -0.0728031,0.0298976 -0.0295039,0 -0.0534331,-0.0102283 -0.0718583,-0.0306181 -0.0183543,-0.0204213 -0.0276969,-0.0495984 -0.0276969,-0.0875236l0 -0.55626c0,-0.0386811 0.00934252,-0.0675945 0.0276969,-0.0870315 0.0184252,-0.0194724 0.0423543,-0.0291772 0.0718583,-0.0291772 0.0294685,0 0.0536614,0.00970472 0.0728031,0.0291772 0.0191457,0.019437 0.028752,0.0466457 0.028752,0.0811969zm-0.0995551 -0.200815c-0.0279646,0 -0.0519252,-0.00829528 -0.0717913,-0.024815 -0.0199291,-0.0165236 -0.0297638,-0.040126 -0.0297638,-0.0705118 0,-0.0272087 0.010063,-0.0498268 0.0304843,-0.067563 0.0204213,-0.0177677 0.044122,-0.026748 0.0710709,-0.026748 0.0262244,0 0.0491378,0.00799606 0.0692953,0.0240591 0.0201614,0.0162953 0.0302598,0.0396339 0.0302598,0.070252 0,0.0299291 -0.00983465,0.0532677 -0.0295039,0.0700197 -0.0196339,0.0167835 -0.0428465,0.0253071 -0.0700512,0.0253071zm0.817488 0.77189c-0.0489094,0.0364528 -0.0960472,0.0636929 -0.14135,0.0819213 -0.0456339,0.0182559 -0.0967717,0.0272402 -0.153252,0.0272402 -0.0516614,0 -0.0972598,-0.0099685 -0.136335,-0.0296693 -0.0390748,-0.0197008 -0.0692992,-0.046185 -0.0904764,-0.0799843 -0.0211772,-0.0337953 -0.0317323,-0.070248 -0.0317323,-0.109654 0,-0.0532323 0.0174055,-0.098437 0.0524173,-0.135909 0.0350118,-0.0376614 0.0831654,-0.0627087 0.144402,-0.0755906 0.0125866,-0.00291732 0.0443504,-0.00924409 0.0949961,-0.0192087 0.0506457,-0.00996457 0.0942441,-0.0189488 0.130303,-0.0274724 0.0359961,-0.00825984 0.0753307,-0.0182244 0.117654,-0.0301575 -0.00249213,-0.0513031 -0.0131142,-0.0889685 -0.0319961,-0.112799 -0.0191417,-0.0240591 -0.0582165,-0.0359921 -0.117945,-0.0359921 -0.0511378,0 -0.089689,0.0068189 -0.11539,0.020685 -0.0259606,0.0136024 -0.0481535,0.0342874 -0.0665433,0.0619882 -0.0183898,0.0274685 -0.0314685,0.0454646 -0.0390748,0.0544488 -0.00780315,0.00875197 -0.0241929,0.0131457 -0.0491063,0.0131457 -0.0227165,0 -0.0423543,-0.00704724 -0.0587087,-0.0211457 -0.0163937,-0.0138661 -0.0247205,-0.0318622 -0.0247205,-0.0537283 0,-0.0342874 0.012622,-0.0675945 0.0375354,-0.0999488 0.0252087,-0.0323189 0.064252,-0.0588071 0.117453,-0.0797205 0.0531732,-0.0209173 0.119457,-0.031374 0.198819,-0.031374 0.0884409,0 0.158232,0.0102283 0.208909,0.0303898 0.0506496,0.0201929 0.0864449,0.0520236 0.107327,0.0957835 0.0209449,0.0437638 0.0315,0.101622 0.0315,0.173839 0,0.0456969 -0.000228346,0.084378 -0.000456693,0.116209 -0.000295276,0.0318622 -0.000523622,0.0673307 -0.00101575,0.106244 0,0.0364843 0.00625984,0.0746417 0.0188819,0.114272 0.0125866,0.0393701 0.0186496,0.0649055 0.0186496,0.0763465 0,0.0199331 -0.00957087,0.0381575 -0.0289764,0.0544488 -0.0196378,0.0162913 -0.0415984,0.0245551 -0.066252,0.0245551 -0.0207165,0 -0.0411063,-0.00924409 -0.0612677,-0.0279646 -0.0201575,-0.0187165 -0.041563,-0.0456969 -0.064248,-0.0811969zm-0.013374 -0.281783c-0.0294724,0.0104567 -0.0722835,0.0216339 -0.128764,0.0330748 -0.0562205,0.0116693 -0.0952638,0.0204213 -0.116929,0.0257677 -0.0216693,0.00560236 -0.0423228,0.0162913 -0.0619882,0.0320906 -0.0196693,0.016063 -0.0294724,0.0381575 -0.0294724,0.066874 0,0.0294055 0.0115709,0.0544488 0.034748,0.0750984 0.0229488,0.020685 0.0531732,0.0311417 0.0907402,0.0311417 0.0397953,0 0.0766063,-0.00851969 0.11011,-0.0253031 0.0337638,-0.0170157 0.0584803,-0.0386496 0.0743465,-0.0654016 0.018126,-0.0294016 0.0272087,-0.0780157 0.0272087,-0.14561l0 -0.0277323zm0.402449 0.272803l0 -0.843157c0,-0.038878 0.00908268,-0.068315 0.0269803,-0.088248 0.0178976,-0.0199291 0.0420906,-0.0298937 0.0725748,-0.0298937 0.0302244,0 0.0549409,0.00996457 0.0735945,0.0296654 0.0186181,0.0196693 0.0279606,0.0491063 0.0279606,0.0884764l0 0.843157c0,0.0393701 -0.00957087,0.0687717 -0.0284843,0.0884724 -0.0189173,0.0197008 -0.0433386,0.0296693 -0.0730709,0.0296693 -0.0295,0 -0.0534331,-0.0102283 -0.0718228,-0.0306181 -0.0183898,-0.0204213 -0.0277323,-0.0495984 -0.0277323,-0.0875236zm1.51454 -0.780417l-0.493945 0 0 0.256709 0.45487 0c0.0335,0 0.0584803,0.00731102 0.0748701,0.0216339 0.0165866,0.0143583 0.024685,0.0335709 0.024685,0.0571378 0,0.0236024 -0.00809843,0.0430433 -0.0241929,0.0578898 -0.0163583,0.0148189 -0.0413386,0.0223583 -0.0753622,0.0223583l-0.45487 0 0 0.297587 0.510827 0c0.0345157,0 0.0604449,0.00776772 0.0778543,0.0230748 0.0176339,0.015311 0.0264528,0.0359961 0.0264528,0.0615315 0,0.0245512 -0.0088189,0.0447126 -0.0264528,0.0600197 -0.0174094,0.0153425 -0.0433386,0.0231102 -0.0778543,0.0231102l-0.595728 0c-0.0476299,0 -0.0818858,-0.0101929 -0.102835,-0.0306142 -0.0209134,-0.0204252 -0.0315,-0.0535 -0.0315,-0.0989685l0 -0.785264c0,-0.0303898 0.0048189,-0.0552047 0.014126,-0.0744134 0.00934252,-0.0192087 0.0239331,-0.0333031 0.0438622,-0.0420551 0.0198976,-0.00875591 0.0453346,-0.0131142 0.0763465,-0.0131142l0.578846 0c0.0350394,0 0.0609724,0.00753937 0.0778543,0.0223583 0.0168819,0.0150787 0.025437,0.0347795 0.025437,0.0588386 0,0.0247835 -0.00855512,0.0447126 -0.025437,0.0597953 -0.0168819,0.0148465 -0.042815,0.0223858 -0.0778543,0.0223858zm0.718425 0.818083l-0.146138 -0.206882 -0.149713 0.206882c-0.0216654,0.0289449 -0.0400551,0.0495945 -0.054937,0.0619882 -0.0151142,0.0124213 -0.0339961,0.0184882 -0.0571732,0.0184882 -0.025437,0 -0.0473661,-0.00777165 -0.0652638,-0.0231102 -0.0179331,-0.0155394 -0.0269803,-0.0330433 -0.0269803,-0.0529764 0,-0.0204213 0.0138661,-0.0495945 0.0413386,-0.0875236l0.182193 -0.252118 -0.161543 -0.210323c-0.0279606,-0.0345157 -0.0420906,-0.0646417 -0.0420906,-0.0904094 0,-0.0199606 0.00832677,-0.0374685 0.0252087,-0.0520551 0.0166535,-0.014815 0.0385827,-0.0220945 0.0655276,-0.0220945 0.0236693,0 0.0431102,0.00629528 0.0587126,0.0191772 0.015374,0.0129173 0.0335354,0.0330748 0.054185,0.0605472l0.130535 0.172622 0.127024 -0.172622c0.0211772,-0.0284567 0.0395354,-0.048878 0.0549094,-0.0612677 0.0156378,-0.0123937 0.0347795,-0.0184567 0.0579567,-0.0184567 0.0264882,0 0.0486811,0.00727953 0.0660197,0.0216339 0.0174094,0.0145906 0.0262244,0.0320945 0.0262244,0.0525157 0,0.0148189 -0.00350787,0.0289134 -0.0105866,0.0422874 -0.00731102,0.0136063 -0.0181299,0.0296693 -0.0329764,0.048122l-0.161547 0.210323 0.182197 0.252118c0.0284528,0.0393701 0.0428465,0.0690354 0.0428465,0.0889685 0,0.0204213 -0.00885039,0.0379252 -0.0264882,0.0525118 -0.0178976,0.0148189 -0.0397953,0.0221299 -0.0657598,0.0221299 -0.0231732,0 -0.0425827,-0.00632677 -0.0587087,-0.0192126 -0.0158976,-0.0128819 -0.0342874,-0.0333031 -0.0549724,-0.0612638z"/>
    <path id="_199010504" class="fil2" d="M38.9842 13.2482c0,0.024063 -0.00753937,0.0500906 -0.022685,0.0775591 -0.0148819,0.0274724 -0.0377953,0.0537283 -0.0685118,0.0785118 -0.030748,0.024815 -0.0695591,0.0450079 -0.116437,0.0600551 -0.0466457,0.0153386 -0.0992913,0.0228465 -0.158004,0.0228465 -0.1245,0 -0.221764,-0.0349764 -0.291587,-0.104996 -0.0700512,-0.0700197 -0.105094,-0.163874 -0.105094,-0.281783 0,-0.0797559 0.0161614,-0.150268 0.0481575,-0.211535 0.0319921,-0.0612362 0.078378,-0.108669 0.138858,-0.141976 0.0607441,-0.0335354 0.133024,-0.0503189 0.21724,-0.0503189 0.0521535,0 0.100012,0.00731102 0.14361,0.0221299 0.0433701,0.014815 0.0804134,0.0337953 0.110638,0.0571339 0.0302559,0.0233425 0.0534331,0.048126 0.0692992,0.0743819 0.016126,0.0265197 0.024189,0.0510709 0.024189,0.0739213 0,0.0233386 -0.00907874,0.0430394 -0.0269449,0.0593307 -0.0181614,0.0160315 -0.0398268,0.024063 -0.065563,0.024063 -0.0166181,0 -0.0304843,-0.00412992 -0.0415315,-0.0124252 -0.0111142,-0.00825984 -0.0234724,-0.0216339 -0.0373386,-0.0400906 -0.0246811,-0.0359921 -0.0503819,-0.0632323 -0.0770669,-0.0811969 -0.0269803,-0.0179961 -0.0610039,-0.0270118 -0.102307,-0.0270118 -0.0595,0 -0.107622,0.0223898 -0.143909,0.0673661 -0.0365512,0.0447126 -0.0547126,0.10598 -0.0547126,0.183799 0,0.0364528 0.0047874,0.0700197 0.0141299,0.100638 0.00931102,0.0306496 0.022685,0.0569094 0.0405827,0.0782835 0.0176339,0.0216339 0.0390433,0.0379252 0.064252,0.0491024 0.0249449,0.0112126 0.0526772,0.0167835 0.0826732,0.0167835 0.0402874,0 0.0748031,-0.00898031 0.103551,-0.0269764 0.0289803,-0.0179961 0.0544528,-0.0456969 0.0765787,-0.0826732 0.0120945,-0.0218661 0.0254685,-0.038878 0.0398268,-0.0510394 0.0140984,-0.0123937 0.0317677,-0.0187205 0.0524488,-0.0187205 0.024685,0 0.0450748,0.00924409 0.0612047,0.0272087 0.0161614,0.0179961 0.0244528,0.0372087 0.0244528,0.0576299zm0.737634 -0.106736l-0.394386 0c0.000492126,0.0442559 0.00980315,0.0831654 0.0277323,0.116965 0.0178661,0.0337638 0.0418307,0.0590709 0.0715276,0.0760827 0.0297323,0.0172441 0.0627756,0.0257677 0.0985394,0.0257677 0.0241929,0 0.046126,-0.00268898 0.0660236,-0.00825984 0.0201575,-0.00534646 0.0393346,-0.0138701 0.0579882,-0.0255394 0.0188819,-0.0116693 0.0359921,-0.0240591 0.0516299,-0.0374331 0.0158661,-0.013378 0.0362874,-0.031374 0.0614961,-0.0542205 0.0103268,-0.00849213 0.0249449,-0.0128819 0.044122,-0.0128819 0.0206535,0 0.0375354,0.00560236 0.0503858,0.0165197 0.0125866,0.0107205 0.0191772,0.0262559 0.0191772,0.0462205 0,0.0175039 -0.00734252,0.0379291 -0.0214724,0.0614961 -0.0143583,0.0233425 -0.0357638,0.0459606 -0.0647402,0.0673346 -0.0287165,0.0216339 -0.0647756,0.0396299 -0.108374,0.0537283 -0.0435669,0.0143583 -0.0937205,0.0214055 -0.150169,0.0214055 -0.12952,0 -0.230059,-0.0357323 -0.301913,-0.106965 -0.0718228,-0.0712323 -0.107587,-0.167772 -0.107587,-0.289815 0,-0.0573661 0.0088189,-0.110866 0.0264528,-0.159972 0.0176378,-0.0491063 0.0436024,-0.0911614 0.0773661,-0.126402 0.0340236,-0.0350118 0.0758543,-0.0620236 0.125484,-0.0807402 0.0496614,-0.0187165 0.104831,-0.0281929 0.165315,-0.0281929 0.0789016,0 0.146398,0.016063 0.202618,0.048122 0.0564134,0.0320945 0.0985394,0.0734291 0.126764,0.124504 0.0279606,0.050811 0.0420551,0.102602 0.0420551,0.155346 0,0.048878 -0.0145866,0.0807087 -0.0435984,0.0952953 -0.0289764,0.0143583 -0.0697874,0.0216339 -0.122437,0.0216339zm-0.394386 -0.110862l0.365409 0c-0.0048189,-0.0663504 -0.0234724,-0.115945 -0.0556969,-0.149024 -0.0322874,-0.032811 -0.0746417,-0.0493661 -0.127287,-0.0493661 -0.0503819,0 -0.0914567,0.0167835 -0.123713,0.0500866 -0.0322559,0.0335709 -0.0519252,0.0829055 -0.0587126,0.148303zm0.730524 0.339906l0 -0.843157c0,-0.038878 0.00907874,-0.068315 0.0269764,-0.088248 0.0178976,-0.0199291 0.0420906,-0.0298937 0.0725787,-0.0298937 0.0302559,0 0.0549409,0.00996457 0.0735906,0.0296654 0.018622,0.0196693 0.0279646,0.0491063 0.0279646,0.0884764l0 0.843157c0,0.0393701 -0.0095748,0.0687717 -0.0284528,0.0884724 -0.0189488,0.0197008 -0.0433701,0.0296693 -0.0731024,0.0296693 -0.0295039,0 -0.0534016,-0.0102283 -0.0718228,-0.0306181 -0.0183898,-0.0204213 -0.0277323,-0.0495984 -0.0277323,-0.0875236zm0.40976 0l0 -0.843157c0,-0.038878 0.00904724,-0.068315 0.0269764,-0.088248 0.0179016,-0.0199291 0.0420945,-0.0298937 0.0725787,-0.0298937 0.0302244,0 0.0549409,0.00996457 0.0735945,0.0296654 0.0186181,0.0196693 0.0279606,0.0491063 0.0279606,0.0884764l0 0.843157c0,0.0393701 -0.00957087,0.0687717 -0.0284882,0.0884724 -0.0189134,0.0197008 -0.0433346,0.0296693 -0.0730669,0.0296693 -0.0295039,0 -0.0534331,-0.0102283 -0.0718543,-0.0306181 -0.0183583,-0.0204213 -0.0277008,-0.0495984 -0.0277008,-0.0875236zm0.971984 -0.229043l-0.394386 0c0.000492126,0.0442559 0.00980315,0.0831654 0.0277008,0.116965 0.0178976,0.0337638 0.0418268,0.0590709 0.0715591,0.0760827 0.0297323,0.0172441 0.0627756,0.0257677 0.0985394,0.0257677 0.0241929,0 0.046122,-0.00268898 0.0660197,-0.00825984 0.0201614,-0.00534646 0.0393071,-0.0138701 0.0579921,-0.0255394 0.0188819,-0.0116693 0.0359921,-0.0240591 0.0516299,-0.0374331 0.0158661,-0.013378 0.0362874,-0.031374 0.0614961,-0.0542205 0.0103268,-0.00849213 0.0249449,-0.0128819 0.044122,-0.0128819 0.0206535,0 0.0375354,0.00560236 0.0503858,0.0165197 0.0125866,0.0107205 0.0191417,0.0262559 0.0191417,0.0462205 0,0.0175039 -0.00734252,0.0379291 -0.021437,0.0614961 -0.0143583,0.0233425 -0.0357638,0.0459606 -0.0647441,0.0673346 -0.0287165,0.0216339 -0.0647756,0.0396299 -0.108374,0.0537283 -0.0435984,0.0143583 -0.093752,0.0214055 -0.150165,0.0214055 -0.129551,0 -0.230091,-0.0357323 -0.301913,-0.106965 -0.0718228,-0.0712323 -0.107618,-0.167772 -0.107618,-0.289815 0,-0.0573661 0.00885039,-0.110866 0.0264843,-0.159972 0.0176378,-0.0491063 0.0435984,-0.0911614 0.0773622,-0.126402 0.0340276,-0.0350118 0.0758583,-0.0620236 0.125488,-0.0807402 0.0496299,-0.0187165 0.104831,-0.0281929 0.165311,-0.0281929 0.0789055,0 0.146402,0.016063 0.202618,0.048122 0.0564173,0.0320945 0.0985079,0.0734291 0.126764,0.124504 0.0279646,0.050811 0.0420591,0.102602 0.0420591,0.155346 0,0.048878 -0.0146181,0.0807087 -0.0435984,0.0952953 -0.0289764,0.0143583 -0.0697913,0.0216339 -0.122437,0.0216339zm-0.394386 -0.110862l0.365374 0c-0.00478346,-0.0663504 -0.023437,-0.115945 -0.0556614,-0.149024 -0.0322874,-0.032811 -0.0746417,-0.0493661 -0.127287,-0.0493661 -0.0504173,0 -0.0914921,0.0167835 -0.123717,0.0500866 -0.0322559,0.0335709 -0.0519213,0.0829055 -0.0587087,0.148303zm0.91298 -0.225106l0 0.0235669c0.0355354,-0.0452047 0.0743465,-0.0782795 0.116406,-0.0994213 0.0420906,-0.0211772 0.0904724,-0.0316024 0.145154,-0.0316024 0.0531693,0 0.100539,0.0111772 0.142661,0.0335354 0.0418268,0.022126 0.0730669,0.0537283 0.0937205,0.0945709 0.013374,0.0238346 0.0219291,0.0493701 0.0259606,0.0770709 0.00377165,0.0274685 0.00580315,0.0624803 0.00580315,0.105256l0 0.362035c0,0.038878 -0.00931102,0.068315 -0.0277008,0.0882441 -0.0184213,0.0199291 -0.0426142,0.0298976 -0.0720827,0.0298976 -0.0299961,0 -0.0544173,-0.0102283 -0.0733661,-0.0306181 -0.0186181,-0.0204213 -0.0279606,-0.0495984 -0.0279606,-0.0875236l0 -0.324335c0,-0.0639567 -0.00931102,-0.113063 -0.0277008,-0.147087 -0.0183898,-0.0337992 -0.0552008,-0.050811 -0.11037,-0.050811 -0.0357992,0 -0.0685472,0.0101929 -0.098311,0.030878 -0.029437,0.0206535 -0.0511378,0.0491063 -0.0647441,0.0853307 -0.00983465,0.0289449 -0.0148504,0.0829016 -0.0148504,0.162394l0 0.24363c0,0.0393701 -0.00960236,0.0687717 -0.0284843,0.0884724 -0.0188819,0.0197008 -0.0433701,0.0296693 -0.0731024,0.0296693 -0.0289764,0 -0.0529094,-0.0102283 -0.0715276,-0.0306181 -0.018685,-0.0204213 -0.0280276,-0.0495984 -0.0280276,-0.0875236l0 -0.562094c0,-0.0369764 0.00832677,-0.0646772 0.0249803,-0.0829016 0.0168819,-0.0182598 0.0395669,-0.0274724 0.0685433,-0.0274724 0.0176378,0 0.0337638,0.00412992 0.0478622,0.0121299 0.0143898,0.0080315 0.0257323,0.0201929 0.0342874,0.0362205 0.00855512,0.0162953 0.0128504,0.0359961 0.0128504,0.0591063zm1.45376 0.442705c0,0.024063 -0.00753937,0.0500906 -0.0226496,0.0775591 -0.0148819,0.0274724 -0.0378307,0.0537283 -0.0685472,0.0785118 -0.030748,0.024815 -0.0695591,0.0450079 -0.116437,0.0600551 -0.0466142,0.0153386 -0.0992913,0.0228465 -0.158004,0.0228465 -0.1245,0 -0.22176,-0.0349764 -0.291583,-0.104996 -0.0700551,-0.0700197 -0.105098,-0.163874 -0.105098,-0.281783 0,-0.0797559 0.0161614,-0.150268 0.0481575,-0.211535 0.0320276,-0.0612362 0.078378,-0.108669 0.138858,-0.141976 0.0607441,-0.0335354 0.133024,-0.0503189 0.21724,-0.0503189 0.0521535,0 0.100047,0.00731102 0.14361,0.0221299 0.0433701,0.014815 0.0804134,0.0337953 0.110638,0.0571339 0.0302559,0.0233425 0.0534331,0.048126 0.0692992,0.0743819 0.016126,0.0265197 0.0241929,0.0510709 0.0241929,0.0739213 0,0.0233386 -0.00908268,0.0430394 -0.0269488,0.0593307 -0.0181614,0.0160315 -0.0398268,0.024063 -0.0655591,0.024063 -0.0165906,0 -0.0304567,-0.00412992 -0.0415354,-0.0124252 -0.0111142,-0.00825984 -0.023437,-0.0216339 -0.0373031,-0.0400906 -0.0247165,-0.0359921 -0.0504173,-0.0632323 -0.0771024,-0.0811969 -0.0269764,-0.0179961 -0.0610039,-0.0270118 -0.102307,-0.0270118 -0.0595,0 -0.107622,0.0223898 -0.143909,0.0673661 -0.0365512,0.0447126 -0.0547126,0.10598 -0.0547126,0.183799 0,0.0364528 0.0047874,0.0700197 0.0141299,0.100638 0.00931102,0.0306496 0.022685,0.0569094 0.0405827,0.0782835 0.0176378,0.0216339 0.0390433,0.0379252 0.064252,0.0491024 0.0249449,0.0112126 0.0526772,0.0167835 0.0826732,0.0167835 0.0402874,0 0.0748031,-0.00898031 0.103555,-0.0269764 0.0290079,-0.0179961 0.0544488,-0.0456969 0.0766063,-0.0826732 0.0120984,-0.0218661 0.0254409,-0.038878 0.0397953,-0.0510394 0.0141299,-0.0123937 0.0317992,-0.0187205 0.0524528,-0.0187205 0.0246811,0 0.0450709,0.00924409 0.0612323,0.0272087 0.0161299,0.0179961 0.0244213,0.0372087 0.0244213,0.0576299zm0.737638 -0.106736l-0.39439 0c0.000492126,0.0442559 0.00983465,0.0831654 0.0277323,0.116965 0.0178661,0.0337638 0.0418307,0.0590709 0.071563,0.0760827 0.0297323,0.0172441 0.0627402,0.0257677 0.0985394,0.0257677 0.0241929,0 0.0460906,-0.00268898 0.0660197,-0.00825984 0.020126,-0.00534646 0.0393031,-0.0138701 0.0579567,-0.0255394 0.0188819,-0.0116693 0.0360276,-0.0240591 0.0516299,-0.0374331 0.0158661,-0.013378 0.0362874,-0.031374 0.0615315,-0.0542205 0.0103228,-0.00849213 0.0249134,-0.0128819 0.0440906,-0.0128819 0.0206496,0 0.0375315,0.00560236 0.0503819,0.0165197 0.012622,0.0107205 0.0191772,0.0262559 0.0191772,0.0462205 0,0.0175039 -0.00734252,0.0379291 -0.021437,0.0614961 -0.0143937,0.0233425 -0.0357992,0.0459606 -0.0647756,0.0673346 -0.0287165,0.0216339 -0.0647756,0.0396299 -0.108343,0.0537283 -0.0435984,0.0143583 -0.093752,0.0214055 -0.150201,0.0214055 -0.129516,0 -0.230055,-0.0357323 -0.301878,-0.106965 -0.0718583,-0.0712323 -0.107622,-0.167772 -0.107622,-0.289815 0,-0.0573661 0.0088189,-0.110866 0.0264567,-0.159972 0.0176339,-0.0491063 0.0435984,-0.0911614 0.0773937,-0.126402 0.0339961,-0.0350118 0.0758228,-0.0620236 0.125453,-0.0807402 0.0496614,-0.0187165 0.104835,-0.0281929 0.165315,-0.0281929 0.0789016,0 0.146429,0.016063 0.202618,0.048122 0.0564488,0.0320945 0.0985394,0.0734291 0.126764,0.124504 0.0279606,0.050811 0.0420551,0.102602 0.0420551,0.155346 0,0.048878 -0.0145866,0.0807087 -0.043563,0.0952953 -0.0290118,0.0143583 -0.0697913,0.0216339 -0.122469,0.0216339zm-0.39439 -0.110862l0.365409 0c-0.0047874,-0.0663504 -0.023437,-0.115945 -0.0556929,-0.149024 -0.0322913,-0.032811 -0.0746102,-0.0493661 -0.127291,-0.0493661 -0.0503819,0 -0.0914567,0.0167835 -0.123713,0.0500866 -0.0322559,0.0335709 -0.0519252,0.0829055 -0.0587126,0.148303z"/>
    <path id="_199010216" class="fil1" d="M20.4764 9.01654c0,0.199949 -0.0510827,0.41624 -0.15313,0.649004 -0.102161,0.23276 -0.262654,0.461236 -0.481587,0.685425 -0.218941,0.224189 -0.498539,0.406311 -0.838815,0.546272 -0.340268,0.139827 -0.73676,0.209862 -1.18936,0.209862 -0.343311,0 -0.655528,-0.0314685 -0.936535,-0.0941654 -0.860366,-0.192256 -1.4605,-0.520531 -1.83986,-1.28274 -0.121567,-0.244264 -0.21274,-0.504882 -0.273524,-0.782071 -0.0607795,-0.277083 -0.0911732,-0.571303 -0.0911732,-0.88278 -0.12015,-2.15385 1.1567,-3.45389 3.10556,-3.45389 0.526594,0 0.995563,0.101496 1.4069,0.304256 0.411224,0.202764 0.726362,0.453453 0.945299,0.751846 0.218933,0.298512 0.328465,0.580551 0.328465,0.84613 0,0.145701 -0.0533071,0.27426 -0.159787,0.385677 -0.106606,0.111417 -0.235307,0.167016 -0.386094,0.167016 -0.168677,0 -0.295154,-0.0385709 -0.379433,-0.115705 -0.0843937,-0.0771339 -0.178252,-0.209984 -0.281819,-0.39865 -0.171713,-0.311472 -0.373697,-0.544343 -0.605965,-0.698614 -0.23226,-0.154272 -0.518528,-0.231524 -0.858677,-0.231524 -0.541441,0 -0.972772,0.198587 -1.29375,0.595772 -0.321102,0.397185 -0.481594,1.15877 -0.481594,1.8902 0,0.488642 0.0709449,0.697906 0.212972,1.02224 0.142024,0.324339 0.343193,0.566571 0.603626,0.726587 0.260433,0.160028 0.565169,0.23998 0.914323,0.23998 0.378728,0 0.699004,-0.0906693 0.960843,-0.272114 0.261839,-0.181449 0.459382,-0.447929 0.59252,-0.799441 0.0562283,-0.165657 0.125776,-0.30065 0.20865,-0.404961 0.0827638,-0.104319 0.215898,-0.156528 0.399417,-0.156528 0.156752,0 0.291409,0.0528898 0.403858,0.158665 0.112453,0.105783 0.168677,0.237165 0.168677,0.394252z"/>
    <path id="_199009304" class="fil1" d="M22.6673 5.32225l0 1.73409c0.154059,-0.170961 0.304386,-0.306402 0.451083,-0.406201 0.146697,-0.0996929 0.308941,-0.174571 0.486728,-0.224417 0.177791,-0.0498425 0.368913,-0.074878 0.573472,-0.074878 0.308122,0 0.581531,0.0627008 0.82011,0.188102 0.238575,0.125402 0.426063,0.307866 0.562358,0.547276 0.0861457,0.140063 0.144126,0.296594 0.173819,0.469476 0.0296929,0.172874 0.0445315,0.372142 0.0445315,0.597909l0 2.2419c0,0.234346 -0.0557598,0.411622 -0.16715,0.53161 -0.111398,0.119878 -0.25915,0.179984 -0.443248,0.179984 -0.401055,0 -0.60152,-0.237157 -0.60152,-0.711701l0 -1.97632c0,-0.374406 -0.057748,-0.662311 -0.17324,-0.863835 -0.115484,-0.201406 -0.334417,-0.302228 -0.657035,-0.302228 -0.216028,0 -0.410642,0.0593189 -0.58376,0.177961 -0.173232,0.11863 -0.30263,0.280799 -0.388429,0.486496 -0.0652283,0.174343 -0.0977205,0.484461 -0.0977205,0.930358l0 1.54757c0,0.23163 -0.0540039,0.408118 -0.162016,0.529571 -0.108012,0.121346 -0.258217,0.18213 -0.450614,0.18213 -0.399531,0 -0.599295,-0.237051 -0.599295,-0.711248l0 -5.07315c0,-0.237047 0.0524764,-0.41478 0.157571,-0.533413 0.104965,-0.118524 0.252248,-0.177839 0.441724,-0.177839 0.192398,0 0.342602,0.0599961 0.450614,0.179866 0.108012,0.119878 0.162016,0.296815 0.162016,0.530929z"/>
    <path id="_199009544" class="fil1" d="M31.409 8.73112c0,0.348236 -0.0562283,0.669299 -0.168665,0.963295 -0.112465,0.293996 -0.275287,0.546602 -0.488378,0.757713 -0.213098,0.21122 -0.467563,0.373161 -0.763531,0.485937 -0.295961,0.11265 -0.628874,0.169039 -0.99872,0.169039 -0.367031,0 -0.697012,-0.0571732 -0.989933,-0.171413 -0.292941,-0.114236 -0.546709,-0.277752 -0.761323,-0.490555 -0.214622,-0.212807 -0.377323,-0.464169 -0.488252,-0.754102 -0.111055,-0.289937 -0.166457,-0.610657 -0.166457,-0.962059 0,-0.354213 0.0562244,-0.678429 0.168677,-0.97265 0.112449,-0.294228 0.273634,-0.545594 0.483811,-0.754106 0.210161,-0.20852 0.464646,-0.369217 0.763543,-0.482106 0.298882,-0.112768 0.628858,-0.169264 0.989933,-0.169264 0.366921,0 0.699835,0.0571732 0.99872,0.171524 0.29889,0.114354 0.554886,0.277417 0.767965,0.488976 0.213102,0.211563 0.37511,0.463154 0.486157,0.75478 0.110929,0.291634 0.166453,0.613366 0.166453,0.964992zm-1.21941 0l0 0c0,-0.47748 -0.108476,-0.84928 -0.325417,-1.1152 -0.216953,-0.265913 -0.508476,-0.398984 -0.874465,-0.398984 -0.236122,0 -0.444295,0.0594291 -0.624323,0.178059 -0.180012,0.118642 -0.318744,0.293776 -0.416126,0.525409 -0.0974843,0.23163 -0.146106,0.501949 -0.146106,0.810717 0,0.306063 0.0479213,0.573437 0.143882,0.802146 0.0958622,0.228807 0.233087,0.403949 0.411701,0.525516 0.178606,0.121567 0.388886,0.182236 0.630972,0.182236 0.365988,0 0.657512,-0.13363 0.874465,-0.401012 0.216941,-0.267386 0.325417,-0.637055 0.325417,-1.10889z"/>
    <path id="_199009232" class="fil1" d="M32.8784 5.80954c-0.168787,0 -0.313031,-0.0497283 -0.432846,-0.149417 -0.119925,-0.0996929 -0.179776,-0.240654 -0.179776,-0.422894 0,-0.165098 0.061374,-0.301102 0.184224,-0.407898 0.122728,-0.106685 0.265579,-0.160134 0.428398,-0.160134 0.15687,0 0.29598,0.0484882 0.417307,0.145244 0.121335,0.0967598 0.181992,0.237724 0.181992,0.422787 0,0.179417 -0.059252,0.319705 -0.177551,0.420748 -0.118398,0.101043 -0.259039,0.151563 -0.421748,0.151563zm0.599299 1.20542l0 0 0 3.38089c0,0.234224 -0.0577362,0.411276 -0.17311,0.531264 -0.115488,0.119992 -0.261961,0.179984 -0.439508,0.179984 -0.177681,0 -0.321917,-0.0614567 -0.432858,-0.184272 -0.111039,-0.122807 -0.166445,-0.298508 -0.166445,-0.526976l0 -3.34661c0,-0.231291 0.0554055,-0.405528 0.166445,-0.522697 0.110941,-0.117059 0.255177,-0.175697 0.432858,-0.175697 0.177547,0 0.32402,0.0586378 0.439508,0.175697 0.115374,0.117169 0.17311,0.280016 0.17311,0.488417z"/>
    <path id="_199006736" class="fil1" d="M38.9732 9.66363c0,0.145366 -0.0451142,0.300642 -0.135354,0.465969 -0.0902441,0.165319 -0.227835,0.322748 -0.412756,0.472287 -0.184921,0.14965 -0.417996,0.270083 -0.699004,0.361209 -0.281122,0.091126 -0.597783,0.136791 -0.949874,0.136791 -0.748555,0 -1.33347,-0.210654 -1.75475,-0.63198 -0.421287,-0.421307 -0.631791,-0.986299 -0.631791,-1.69472 0,-0.47985 0.096311,-0.904091 0.289181,-1.27263 0.192878,-0.368535 0.471531,-0.653394 0.836122,-0.854811 0.364476,-0.201409 0.799764,-0.302114 1.30567,-0.302114 0.313622,0 0.601409,0.0444331 0.863236,0.133075 0.261846,0.0886339 0.483693,0.203102 0.665697,0.343272 0.181894,0.140173 0.320988,0.289598 0.417181,0.448382 0.0960945,0.158787 0.144244,0.30685 0.144244,0.444209 0,0.140173 -0.0540039,0.258929 -0.161996,0.356126 -0.108016,0.0973307 -0.238945,0.145933 -0.392756,0.145933 -0.100661,0 -0.184232,-0.0249213 -0.250748,-0.0749961 -0.0666299,-0.0499567 -0.141323,-0.130701 -0.224067,-0.242228 -0.147996,-0.217197 -0.30263,-0.380043 -0.463823,-0.488642 -0.161311,-0.108602 -0.36622,-0.162957 -0.614736,-0.162957 -0.358031,0 -0.64652,0.135098 -0.865445,0.405193 -0.218953,0.270083 -0.328362,0.639413 -0.328362,1.10809 0,0.220126 0.0280591,0.422323 0.0842835,0.606594 0.0562205,0.184382 0.137567,0.341583 0.244079,0.471614 0.106476,0.130028 0.235169,0.228583 0.386075,0.295799 0.150909,0.0672126 0.316661,0.100705 0.497138,0.100705 0.242669,0 0.450504,-0.054248 0.623602,-0.162843 0.173008,-0.108598 0.326146,-0.27437 0.459394,-0.497323 0.0738819,-0.131488 0.153831,-0.234343 0.239626,-0.308657 0.085811,-0.0743189 0.190772,-0.111531 0.315146,-0.111531 0.147858,0 0.270594,0.0543622 0.368315,0.162961 0.0976102,0.108598 0.146472,0.224295 0.146472,0.347224z"/>
    <path id="_199009088" class="fil1" d="M43.324 9.01406l-2.37009 0c0.00291732,0.266823 0.0584488,0.501949 0.166461,0.705622 0.108004,0.203661 0.251425,0.357031 0.430504,0.460323 0.178957,0.103307 0.376508,0.15485 0.592524,0.15485 0.144941,0 0.277378,-0.0164764 0.397193,-0.0494055 0.119815,-0.0329252 0.236004,-0.0845748 0.348445,-0.154945 0.112453,-0.0702559 0.216024,-0.145594 0.310697,-0.225882 0.094689,-0.0802913 0.217425,-0.189228 0.368327,-0.326925 0.0620669,-0.0516457 0.150791,-0.0774764 0.266276,-0.0774764 0.124264,0 0.224902,0.0329331 0.301823,0.098563 0.0769134,0.065752 0.115374,0.158555 0.115374,0.278547 0,0.105783 -0.0429055,0.229268 -0.128701,0.370689 -0.0858031,0.141406 -0.215307,0.277075 -0.388319,0.406984 -0.173114,0.130024 -0.39065,0.237839 -0.652488,0.323543 -0.261843,0.0857087 -0.562941,0.128559 -0.903091,0.128559 -0.778272,0 -1.38388,-0.214154 -1.81708,-0.642571 -0.433189,-0.428307 -0.649783,-1.00953 -0.649783,-1.74344 0,-0.345535 0.0534173,-0.666039 0.160252,-0.96161 0.106839,-0.295571 0.262531,-0.549091 0.467335,-0.760421 0.204791,-0.211335 0.456689,-0.373386 0.755811,-0.486157 0.299126,-0.112772 0.63063,-0.169272 0.99463,-0.169272 0.473409,0 0.87948,0.0963071 1.21824,0.288921 0.338756,0.19261 0.59252,0.4415 0.761197,0.746776 0.168665,0.305272 0.253063,0.616185 0.253063,0.932846 0,0.293886 -0.087315,0.48435 -0.261953,0.571417 -0.17463,0.0870591 -0.420102,0.130469 -0.736642,0.130469zm-2.37009 -0.663996l0 0 2.19697 0c-0.029689,-0.398307 -0.141315,-0.696366 -0.335118,-0.894169 -0.193815,-0.197795 -0.44898,-0.296697 -0.765535,-0.296697 -0.301811,0 -0.549614,0.100366 -0.743421,0.300984 -0.193803,0.200622 -0.311516,0.497217 -0.352894,0.889882z"/>
   </g>
  </g>
 </g>
</svg>
