<?xml version="1.0" encoding="utf-8"?>
<!-- Generator: Adobe Illustrator 24.0.1, SVG Export Plug-In . SVG Version: 6.00 Build 0)  -->
<svg version="1.1" id="Layer_1" xmlns="http://www.w3.org/2000/svg" xmlns:xlink="http://www.w3.org/1999/xlink" x="0px" y="0px"
	 viewBox="0 0 47 44" style="enable-background:new 0 0 47 44;" xml:space="preserve">
<style type="text/css">
	.st0{display:none;}
	.st1{display:inline;opacity:0;fill:#FFFFFF;}
	.st2{display:inline;fill:none;stroke:#868D9C;stroke-width:2;stroke-linejoin:round;}
	.st3{display:inline;fill:none;stroke:#868D9C;stroke-width:2;stroke-linecap:round;stroke-linejoin:round;}
	.st4{display:inline;fill:#868D9C;}
	.st5{display:inline;fill:none;stroke:#F5F7FC;stroke-width:0.5;}
	.st6{display:inline;fill:none;stroke:#868D9C;stroke-width:0.5;}
	.st7{display:inline;fill:#1B2E6A;}
	.st8{display:inline;fill:#1B2E6A;stroke:#1B2E6A;stroke-width:0.5;}
	.st9{display:inline;fill:none;stroke:#1B2E6A;stroke-width:0.5;}
	.st10{display:inline;fill:#EB5E50;}
	.st11{display:inline;fill:none;stroke:#EB5E50;stroke-width:0.5;}
	.st12{display:inline;fill-rule:evenodd;clip-rule:evenodd;fill:#868D9C;}
	.st13{fill:#868D9C;}
	.st14{fill:none;stroke:#868D9C;stroke-width:0.5;}
	.st15{fill:#1B2E6A;stroke:#868D9C;}
	.st16{display:inline;fill:none;stroke:#868D9C;stroke-width:1.5;stroke-linecap:round;}
	.st17{display:inline;fill:none;stroke:#868D9C;stroke-width:1.2;}
	.st18{fill:none;stroke:#EB5E50;stroke-width:2;stroke-linecap:round;stroke-linejoin:round;}
	.st19{fill:#FFF200;}
</style>
<g class="st0">
	<path class="st1" d="M38.9,18.7v18.7c0,2.5-2.1,4.6-4.6,4.6H12.7c-2.5,0-4.6-2.1-4.6-4.6V6.6c0-2.5,2.1-4.6,4.6-4.6h9.5
		c0.8,0,1.6,0.3,2.2,0.9L38,16.5C38.6,17.1,38.9,17.8,38.9,18.7z"/>
	<path class="st2" d="M38.9,18.7v18.7c0,2.5-2.1,4.6-4.6,4.6H12.7c-2.5,0-4.6-2.1-4.6-4.6V6.6c0-2.5,2.1-4.6,4.6-4.6h9.5
		c0.8,0,1.6,0.3,2.2,0.9L38,16.5C38.6,17.1,38.9,17.8,38.9,18.7z"/>
	<path class="st1" d="M23.5,2.8v11.5c0,1.7,1.4,3.1,3.1,3.1h11.5"/>
	<path class="st3" d="M23.5,2.8v11.5c0,1.7,1.4,3.1,3.1,3.1h11.5"/>
	<line class="st3" x1="15.8" y1="25.5" x2="31.2" y2="25.5"/>
	<line class="st3" x1="15.8" y1="33.2" x2="31.2" y2="33.2"/>
</g>
<g class="st0">
	<path class="st4" d="M41.2,12c0,0.7-0.3,1.3-0.8,1.8c-0.5,0.5-1.1,0.8-1.8,0.8H36v-3.9h1.3c0.6,0,1.2-0.5,1.2-1.2
		c0-0.6-0.5-1.2-1.2-1.2H9.7C9,8.3,8.5,8.8,8.5,9.4c0,0.6,0.5,1.2,1.2,1.2H11v3.9H8.4c-0.7,0-1.3-0.3-1.8-0.8
		c-0.5-0.5-0.8-1.1-0.8-1.8v-5c0-0.7,0.3-1.3,0.8-1.8c0.5-0.5,1.1-0.8,1.8-0.8h30.1c0.7,0,1.3,0.3,1.8,0.8c0.5,0.5,0.8,1.1,0.8,1.8
		L41.2,12z M33.6,38.3c0,0.4-0.1,0.7-0.4,0.9s-0.6,0.4-0.9,0.4H14.7c-0.4,0-0.7-0.1-0.9-0.4s-0.4-0.6-0.4-0.9V10.6h20.3L33.6,38.3z
		 M42.1,3.4C41.1,2.5,39.9,2,38.6,2H8.4C7.1,2,5.9,2.5,4.9,3.4C4,4.4,3.5,5.6,3.5,6.9v5c0,1.3,0.5,2.6,1.4,3.5
		c0.9,0.9,2.2,1.4,3.5,1.4H11v21.4c0,1,0.4,1.9,1.1,2.6s1.6,1.1,2.6,1.1h17.6c1,0,1.9-0.4,2.6-1.1c0.7-0.7,1.1-1.6,1.1-2.6V16.9h2.6
		c1.3,0,2.6-0.5,3.5-1.4c0.9-0.9,1.4-2.2,1.4-3.5v-5C43.5,5.6,43,4.4,42.1,3.4L42.1,3.4z"/>
	<path class="st5" d="M41.2,12c0,0.7-0.3,1.3-0.8,1.8c-0.5,0.5-1.1,0.8-1.8,0.8H36v-3.9h1.3c0.6,0,1.2-0.5,1.2-1.2
		c0-0.6-0.5-1.2-1.2-1.2H9.7C9,8.3,8.5,8.8,8.5,9.4c0,0.6,0.5,1.2,1.2,1.2H11v3.9H8.4c-0.7,0-1.3-0.3-1.8-0.8
		c-0.5-0.5-0.8-1.1-0.8-1.8v-5c0-0.7,0.3-1.3,0.8-1.8c0.5-0.5,1.1-0.8,1.8-0.8h30.1c0.7,0,1.3,0.3,1.8,0.8c0.5,0.5,0.8,1.1,0.8,1.8
		L41.2,12z M33.6,38.3c0,0.4-0.1,0.7-0.4,0.9s-0.6,0.4-0.9,0.4H14.7c-0.4,0-0.7-0.1-0.9-0.4s-0.4-0.6-0.4-0.9V10.6h20.3L33.6,38.3z
		 M42.1,3.4C41.1,2.5,39.9,2,38.6,2H8.4C7.1,2,5.9,2.5,4.9,3.4C4,4.4,3.5,5.6,3.5,6.9v5c0,1.3,0.5,2.6,1.4,3.5
		c0.9,0.9,2.2,1.4,3.5,1.4H11v21.4c0,1,0.4,1.9,1.1,2.6s1.6,1.1,2.6,1.1h17.6c1,0,1.9-0.4,2.6-1.1c0.7-0.7,1.1-1.6,1.1-2.6V16.9h2.6
		c1.3,0,2.6-0.5,3.5-1.4c0.9-0.9,1.4-2.2,1.4-3.5v-5C43.5,5.6,43,4.4,42.1,3.4L42.1,3.4z"/>
	<path class="st4" d="M29.8,33.4H17.2c-0.6,0-1.2,0.5-1.2,1.2c0,0.6,0.5,1.2,1.2,1.2h12.6c0.6,0,1.2-0.5,1.2-1.2
		C30.9,33.9,30.4,33.4,29.8,33.4z"/>
	<path class="st5" d="M29.8,33.4H17.2c-0.6,0-1.2,0.5-1.2,1.2c0,0.6,0.5,1.2,1.2,1.2h12.6c0.6,0,1.2-0.5,1.2-1.2
		C30.9,33.9,30.4,33.4,29.8,33.4z"/>
	<path class="st4" d="M31,23.3h0.4c-0.1,1.8-0.8,3.4-2,4.7l-0.3-0.3c-0.1-0.1-0.4-0.1-0.5,0c-0.1,0.1-0.1,0.4,0,0.5l0.3,0.3
		c-1.3,1.2-3,1.9-4.7,2v-0.4c0-0.2-0.2-0.4-0.4-0.4c-0.2,0-0.4,0.2-0.4,0.4v0.4c-1.8-0.1-3.4-0.8-4.7-2l0.3-0.3
		c0.1-0.1,0.1-0.4,0-0.5c-0.1-0.1-0.4-0.1-0.5,0l-0.3,0.3c-1.2-1.3-1.9-3-2-4.7h0.4c0.2,0,0.4-0.2,0.4-0.4s-0.2-0.4-0.4-0.4h-0.4
		c0.1-1.8,0.8-3.4,2-4.7l0.3,0.3c0.1,0.1,0.2,0.1,0.4,0.1c0.1,0,0.2-0.1,0.3-0.3c0-0.1,0-0.3-0.1-0.4l-0.3-0.3c1.3-1.2,3-1.9,4.7-2
		v0.4c0,0.2,0.2,0.4,0.4,0.4c0.2,0,0.4-0.2,0.4-0.4v-0.4c1.8,0.1,3.4,0.8,4.7,2l-0.3,0.3c-0.1,0.1-0.1,0.2-0.1,0.4
		c0,0.1,0.1,0.2,0.3,0.3c0.1,0,0.3,0,0.4-0.1l0.3-0.3c1.2,1.3,1.9,3,2,4.7H31c-0.2,0-0.4,0.2-0.4,0.4C30.6,23.2,30.8,23.3,31,23.3
		L31,23.3z M29.8,17.1C29.7,17.1,29.7,17.1,29.8,17.1c-3.3-3.2-8.5-3.2-11.7,0c0,0,0,0,0,0c0,0,0,0,0,0c-3.2,3.2-3.2,8.4,0,11.7
		c0,0,0,0,0,0c0,0,0,0,0,0c3.2,3.2,8.4,3.2,11.7,0c0,0,0,0,0,0c0,0,0,0,0,0C33,25.6,33,20.4,29.8,17.1
		C29.8,17.1,29.8,17.1,29.8,17.1L29.8,17.1z"/>
	<path class="st6" d="M31,23.3h0.4c-0.1,1.8-0.8,3.4-2,4.7l-0.3-0.3c-0.1-0.1-0.4-0.1-0.5,0c-0.1,0.1-0.1,0.4,0,0.5l0.3,0.3
		c-1.3,1.2-3,1.9-4.7,2v-0.4c0-0.2-0.2-0.4-0.4-0.4c-0.2,0-0.4,0.2-0.4,0.4v0.4c-1.8-0.1-3.4-0.8-4.7-2l0.3-0.3
		c0.1-0.1,0.1-0.4,0-0.5c-0.1-0.1-0.4-0.1-0.5,0l-0.3,0.3c-1.2-1.3-1.9-3-2-4.7h0.4c0.2,0,0.4-0.2,0.4-0.4s-0.2-0.4-0.4-0.4h-0.4
		c0.1-1.8,0.8-3.4,2-4.7l0.3,0.3c0.1,0.1,0.2,0.1,0.4,0.1c0.1,0,0.2-0.1,0.3-0.3c0-0.1,0-0.3-0.1-0.4l-0.3-0.3c1.3-1.2,3-1.9,4.7-2
		v0.4c0,0.2,0.2,0.4,0.4,0.4c0.2,0,0.4-0.2,0.4-0.4v-0.4c1.8,0.1,3.4,0.8,4.7,2l-0.3,0.3c-0.1,0.1-0.1,0.2-0.1,0.4
		c0,0.1,0.1,0.2,0.3,0.3c0.1,0,0.3,0,0.4-0.1l0.3-0.3c1.2,1.3,1.9,3,2,4.7H31c-0.2,0-0.4,0.2-0.4,0.4C30.6,23.2,30.8,23.3,31,23.3
		L31,23.3z M29.8,17.1C29.7,17.1,29.7,17.1,29.8,17.1c-3.3-3.2-8.5-3.2-11.7,0c0,0,0,0,0,0c0,0,0,0,0,0c-3.2,3.2-3.2,8.4,0,11.7
		c0,0,0,0,0,0c0,0,0,0,0,0c3.2,3.2,8.4,3.2,11.7,0c0,0,0,0,0,0c0,0,0,0,0,0C33,25.6,33,20.4,29.8,17.1
		C29.8,17.1,29.8,17.1,29.8,17.1L29.8,17.1z"/>
	<path class="st4" d="M26.9,20.9h-1.4c-0.1-0.8-0.5-1.5-1.1-1.9h2.4c0.1,0,0.3-0.1,0.3-0.3c0-0.1-0.1-0.3-0.3-0.3h-5.7
		c-0.1,0-0.3,0.1-0.3,0.3c0,0.1,0.1,0.3,0.3,0.3h1.6c1.1,0,2,0.8,2.2,1.9h-3.8c-0.1,0-0.3,0.1-0.3,0.3c0,0.1,0.1,0.3,0.3,0.3H25
		c-0.1,1.1-1.1,1.9-2.2,1.9h-1.6c-0.2,0-0.3,0.1-0.3,0.3c0,0.1,0,0.1,0.1,0.2l4.1,3.9c0.1,0.1,0.3,0.1,0.4,0c0.1-0.1,0.1-0.3,0-0.4
		l-3.6-3.4h1c1.4,0,2.6-1.1,2.7-2.5h1.4c0.1,0,0.3-0.1,0.3-0.3C27.2,21.1,27,20.9,26.9,20.9z"/>
	<path class="st6" d="M26.9,20.9h-1.4c-0.1-0.8-0.5-1.5-1.1-1.9h2.4c0.1,0,0.3-0.1,0.3-0.3c0-0.1-0.1-0.3-0.3-0.3h-5.7
		c-0.1,0-0.3,0.1-0.3,0.3c0,0.1,0.1,0.3,0.3,0.3h1.6c1.1,0,2,0.8,2.2,1.9h-3.8c-0.1,0-0.3,0.1-0.3,0.3c0,0.1,0.1,0.3,0.3,0.3H25
		c-0.1,1.1-1.1,1.9-2.2,1.9h-1.6c-0.2,0-0.3,0.1-0.3,0.3c0,0.1,0,0.1,0.1,0.2l4.1,3.9c0.1,0.1,0.3,0.1,0.4,0c0.1-0.1,0.1-0.3,0-0.4
		l-3.6-3.4h1c1.4,0,2.6-1.1,2.7-2.5h1.4c0.1,0,0.3-0.1,0.3-0.3C27.2,21.1,27,20.9,26.9,20.9z"/>
</g>
<g class="st0">
	<path class="st4" d="M37.5,38.7c0,1.1-0.9,2-2,2h-24c-1.1,0-2-0.9-2-2v-12c0-7,5.7-12.7,12.7-12.7h2.7c7,0,12.7,5.7,12.7,12.7V38.7
		z M20.2,12.7c-0.4,0-0.7-0.3-0.7-0.7s0.3-0.7,0.7-0.7h6.7c0.4,0,0.7,0.3,0.7,0.7s-0.3,0.7-0.7,0.7H20.2z M18.9,3.9
		c0.3-0.3,0.8-0.5,1.3-0.5c0.5,0,0.9,0.2,1.3,0.5c1.2,1.1,3,1.1,4.2,0c0.3-0.3,0.8-0.5,1.2-0.5c0.5,0,0.9,0.2,1.2,0.5
		c0.3,0.3,0.7,0.5,1.1,0.7L26.4,10h-5.8l-2.7-5.5C18.2,4.4,18.6,4.1,18.9,3.9L18.9,3.9z M28.5,13.2c0.1-0.2,0.2-0.3,0.3-0.5
		c0.3,0,0.5,0.2,0.8,0.3c0.5,0.3,1,0.5,1.6,0.5c0.2,0,0.4,0,0.5,0c0.7-0.1,1.4-0.5,1.8-1.1c0.2-0.4,0.6-0.6,1-0.7
		c0.4-0.1,0.9,0,1.2,0.3c0.6,0.4,1.4,0.6,2.1,0.5L37.5,11c-0.4,0.1-0.9,0-1.2-0.3c-1.3-0.9-3-0.6-3.9,0.7c-0.2,0.4-0.6,0.6-1,0.7
		c-0.2,0-0.4,0-0.6,0c0.4-0.1,0.8-0.3,1.1-0.6c0.6-0.5,0.9-1.2,1-1.9c0-0.4,0.2-0.8,0.5-1.1c0.3-0.3,0.8-0.4,1.2-0.3
		c0.7,0.1,1.5-0.2,2-0.7l-0.9-1c-0.3,0.3-0.8,0.4-1.2,0.3c-1.5-0.1-2.9,1-3,2.6c0,0.4-0.2,0.8-0.5,1.1c-0.3,0.3-0.8,0.4-1.2,0.3
		c-0.4,0-0.8,0-1.2,0.2c-0.2-0.3-0.5-0.6-0.8-0.8l3-6c0.1-0.2,0.1-0.5,0-0.7c-0.1-0.2-0.3-0.3-0.6-0.3c-0.5,0-0.9-0.2-1.2-0.5
		c-1.2-1.1-3-1.1-4.2,0c-0.3,0.3-0.8,0.5-1.3,0.5c-0.5,0-0.9-0.2-1.3-0.5c-1.2-1.1-3-1.1-4.2,0c-0.3,0.3-0.8,0.5-1.3,0.5
		c-0.2,0-0.4,0.1-0.6,0.3c-0.1,0.2-0.1,0.4,0,0.6l3,6c-0.5,0.3-0.9,0.7-1,1.3c-0.1,0.6,0,1.1,0.3,1.6c-6.1,1.6-10.4,7.2-10.4,13.5
		v12c0,1.8,1.5,3.3,3.3,3.3h24c1.8,0,3.3-1.5,3.3-3.3v-12C38.8,20.3,34.6,14.8,28.5,13.2L28.5,13.2z"/>
	<path class="st4" d="M32.4,28.4H33c-0.1,2.2-1,4.3-2.4,5.9l-0.4-0.4c-0.2-0.2-0.5-0.2-0.6,0c-0.2,0.2-0.2,0.5,0,0.6l0.4,0.4
		c-1.6,1.5-3.7,2.3-5.9,2.4v-0.6c0-0.3-0.2-0.5-0.5-0.5c-0.3,0-0.5,0.2-0.5,0.5v0.6c-2.2-0.1-4.3-1-5.9-2.4l0.4-0.4
		c0.2-0.2,0.2-0.5,0-0.6c-0.2-0.2-0.5-0.2-0.6,0l-0.4,0.4c-1.5-1.6-2.3-3.7-2.4-5.9h0.6c0.3,0,0.5-0.2,0.5-0.5
		c0-0.3-0.2-0.5-0.5-0.5h-0.6c0.1-2.2,1-4.3,2.4-5.9L17,22c0.1,0.1,0.3,0.2,0.4,0.1c0.2,0,0.3-0.2,0.3-0.3c0-0.2,0-0.3-0.1-0.4
		L17.2,21c1.6-1.5,3.7-2.3,5.9-2.4v0.6c0,0.3,0.2,0.5,0.5,0.5c0.3,0,0.5-0.2,0.5-0.5v-0.6c2.2,0.1,4.3,1,5.9,2.4l-0.4,0.4
		c-0.1,0.1-0.2,0.3-0.1,0.4c0,0.2,0.2,0.3,0.3,0.3s0.3,0,0.4-0.1l0.4-0.4c1.5,1.6,2.3,3.7,2.4,5.9h-0.6c-0.3,0-0.5,0.2-0.5,0.5
		S32.1,28.4,32.4,28.4L32.4,28.4z M30.8,20.6C30.8,20.6,30.8,20.6,30.8,20.6c-4.1-4-10.5-4-14.6,0c0,0,0,0,0,0c0,0,0,0,0,0
		c-4,4-4,10.5,0,14.5c0,0,0,0,0,0c0,0,0,0,0,0c4,4,10.5,4,14.5,0c0,0,0,0,0,0c0,0,0,0,0,0C34.9,31.2,34.9,24.7,30.8,20.6
		C30.9,20.6,30.9,20.6,30.8,20.6L30.8,20.6z"/>
	<path class="st6" d="M32.4,28.4H33c-0.1,2.2-1,4.3-2.4,5.9l-0.4-0.4c-0.2-0.2-0.5-0.2-0.6,0c-0.2,0.2-0.2,0.5,0,0.6l0.4,0.4
		c-1.6,1.5-3.7,2.3-5.9,2.4v-0.6c0-0.3-0.2-0.5-0.5-0.5c-0.3,0-0.5,0.2-0.5,0.5v0.6c-2.2-0.1-4.3-1-5.9-2.4l0.4-0.4
		c0.2-0.2,0.2-0.5,0-0.6c-0.2-0.2-0.5-0.2-0.6,0l-0.4,0.4c-1.5-1.6-2.3-3.7-2.4-5.9h0.6c0.3,0,0.5-0.2,0.5-0.5
		c0-0.3-0.2-0.5-0.5-0.5h-0.6c0.1-2.2,1-4.3,2.4-5.9L17,22c0.1,0.1,0.3,0.2,0.4,0.1c0.2,0,0.3-0.2,0.3-0.3c0-0.2,0-0.3-0.1-0.4
		L17.2,21c1.6-1.5,3.7-2.3,5.9-2.4v0.6c0,0.3,0.2,0.5,0.5,0.5c0.3,0,0.5-0.2,0.5-0.5v-0.6c2.2,0.1,4.3,1,5.9,2.4l-0.4,0.4
		c-0.1,0.1-0.2,0.3-0.1,0.4c0,0.2,0.2,0.3,0.3,0.3s0.3,0,0.4-0.1l0.4-0.4c1.5,1.6,2.3,3.7,2.4,5.9h-0.6c-0.3,0-0.5,0.2-0.5,0.5
		S32.1,28.4,32.4,28.4L32.4,28.4z M30.8,20.6C30.8,20.6,30.8,20.6,30.8,20.6c-4.1-4-10.5-4-14.6,0c0,0,0,0,0,0c0,0,0,0,0,0
		c-4,4-4,10.5,0,14.5c0,0,0,0,0,0c0,0,0,0,0,0c4,4,10.5,4,14.5,0c0,0,0,0,0,0c0,0,0,0,0,0C34.9,31.2,34.9,24.7,30.8,20.6
		C30.9,20.6,30.9,20.6,30.8,20.6L30.8,20.6z"/>
	<path class="st4" d="M27.3,25.4h-1.7c-0.1-0.9-0.6-1.8-1.3-2.3h3c0.2,0,0.3-0.2,0.3-0.3c0-0.2-0.2-0.3-0.3-0.3h-7.1
		c-0.2,0-0.3,0.2-0.3,0.3c0,0.2,0.2,0.3,0.3,0.3h2c1.4,0,2.5,1,2.7,2.3h-4.7c-0.2,0-0.3,0.2-0.3,0.3c0,0.2,0.2,0.3,0.3,0.3h4.7
		c-0.2,1.4-1.3,2.4-2.7,2.4h-2c-0.2,0-0.3,0.2-0.3,0.3c0,0.1,0,0.2,0.1,0.2l5.1,4.8c0.1,0.1,0.3,0.1,0.5,0c0.1-0.1,0.1-0.3,0-0.5
		L21,29.1h1.2c1.7,0,3.2-1.3,3.4-3h1.7c0.2,0,0.3-0.2,0.3-0.3C27.6,25.6,27.5,25.4,27.3,25.4z"/>
	<path class="st6" d="M27.3,25.4h-1.7c-0.1-0.9-0.6-1.8-1.3-2.3h3c0.2,0,0.3-0.2,0.3-0.3c0-0.2-0.2-0.3-0.3-0.3h-7.1
		c-0.2,0-0.3,0.2-0.3,0.3c0,0.2,0.2,0.3,0.3,0.3h2c1.4,0,2.5,1,2.7,2.3h-4.7c-0.2,0-0.3,0.2-0.3,0.3c0,0.2,0.2,0.3,0.3,0.3h4.7
		c-0.2,1.4-1.3,2.4-2.7,2.4h-2c-0.2,0-0.3,0.2-0.3,0.3c0,0.1,0,0.2,0.1,0.2l5.1,4.8c0.1,0.1,0.3,0.1,0.5,0c0.1-0.1,0.1-0.3,0-0.5
		L21,29.1h1.2c1.7,0,3.2-1.3,3.4-3h1.7c0.2,0,0.3-0.2,0.3-0.3C27.6,25.6,27.5,25.4,27.3,25.4z"/>
</g>
<g class="st0">
	<path class="st7" d="M34.2,40.9c-2.1,0-4-0.8-5.5-2.3c-1.5-1.5-2.3-3.4-2.3-5.5c0-0.2,0-0.5,0-0.7c0.4-4.2,4-7.3,8.2-7.1
		c4.2,0.2,7.5,3.8,7.3,8C41.9,37.6,38.4,40.9,34.2,40.9L34.2,40.9z M25.4,32.4C25.4,32.4,25.4,32.4,25.4,32.4c-1,0.3-2,0.4-3,0.4
		c-6.8,0-12.3-5.5-12.3-12.3S15.6,8.2,22.4,8.2c6.8,0,12.3,5.5,12.3,12.3c0,1.3-0.2,2.5-0.6,3.8C29.6,24.3,25.8,27.8,25.4,32.4
		L25.4,32.4z M23,37.9v-1.3c0-0.3-0.2-0.5-0.5-0.5c-0.3,0-0.5,0.2-0.5,0.5v1.3c-4.2-0.1-8.3-1.8-11.4-4.7l0.9-0.9
		c0.2-0.2,0.2-0.6,0-0.8c-0.2-0.2-0.6-0.2-0.8,0l-0.9,0.9C6.8,29.4,5.1,25.3,5,21.1h1.3c0.3,0,0.5-0.2,0.5-0.5S6.6,20,6.3,20H5
		c0.1-4.2,1.8-8.3,4.7-11.4l0.9,0.9c0.2,0.2,0.6,0.2,0.8,0c0.2-0.2,0.2-0.6,0-0.8l-0.9-0.9c3.1-2.9,7.1-4.6,11.4-4.7v1.3
		c0,0.3,0.2,0.5,0.5,0.5c0.3,0,0.5-0.2,0.5-0.5V3.1c4.2,0.1,8.3,1.8,11.4,4.7l-0.9,0.9c-0.2,0.2-0.2,0.6,0,0.8
		c0.2,0.2,0.6,0.2,0.8,0l0.9-0.9c2.9,3.1,4.6,7.1,4.7,11.4h-1.3c-0.3,0-0.5,0.2-0.5,0.5s0.2,0.5,0.5,0.5h1.3c0,1.6-0.3,3.1-0.8,4.7
		c-1.1-0.8-2.5-1.2-3.8-1.4c0.4-1.2,0.6-2.5,0.6-3.8c0-7.4-6-13.4-13.4-13.4C15,7.1,9,13.1,9,20.5s6,13.4,13.4,13.4c1,0,2-0.1,3-0.3
		c0.1,1.4,0.4,2.7,1.1,3.9C25.3,37.7,24.2,37.9,23,37.9L23,37.9z M40,26.4c2.2-6.6,0.5-13.9-4.4-18.9c0-0.1-0.1-0.1-0.1-0.1
		c-7.2-7.1-18.8-7.1-26,0c-0.1,0-0.1,0.1-0.1,0.1c-7.1,7.2-7.1,18.8,0,26c0,0,0,0.1,0.1,0.1c0,0,0,0,0.1,0.1
		c4.7,4.6,11.4,6.4,17.7,4.8c0.5,0.7,1.1,1.3,1.7,1.8c1.5,1.2,3.4,1.8,5.4,1.8c3.7,0,7-2.3,8.3-5.8C43.8,32.7,42.8,28.8,40,26.4
		L40,26.4z"/>
	<path class="st8" d="M34.2,40.9c-2.1,0-4-0.8-5.5-2.3c-1.5-1.5-2.3-3.4-2.3-5.5c0-0.2,0-0.5,0-0.7c0.4-4.2,4-7.3,8.2-7.1
		c4.2,0.2,7.5,3.8,7.3,8C41.9,37.6,38.4,40.9,34.2,40.9L34.2,40.9z M25.4,32.4C25.4,32.4,25.4,32.4,25.4,32.4c-1,0.3-2,0.4-3,0.4
		c-6.8,0-12.3-5.5-12.3-12.3S15.6,8.2,22.4,8.2c6.8,0,12.3,5.5,12.3,12.3c0,1.3-0.2,2.5-0.6,3.8C29.6,24.3,25.8,27.8,25.4,32.4
		L25.4,32.4z M23,37.9v-1.3c0-0.3-0.2-0.5-0.5-0.5c-0.3,0-0.5,0.2-0.5,0.5v1.3c-4.2-0.1-8.3-1.8-11.4-4.7l0.9-0.9
		c0.2-0.2,0.2-0.6,0-0.8c-0.2-0.2-0.6-0.2-0.8,0l-0.9,0.9C6.8,29.4,5.1,25.3,5,21.1h1.3c0.3,0,0.5-0.2,0.5-0.5S6.6,20,6.3,20H5
		c0.1-4.2,1.8-8.3,4.7-11.4l0.9,0.9c0.2,0.2,0.6,0.2,0.8,0c0.2-0.2,0.2-0.6,0-0.8l-0.9-0.9c3.1-2.9,7.1-4.6,11.4-4.7v1.3
		c0,0.3,0.2,0.5,0.5,0.5c0.3,0,0.5-0.2,0.5-0.5V3.1c4.2,0.1,8.3,1.8,11.4,4.7l-0.9,0.9c-0.2,0.2-0.2,0.6,0,0.8
		c0.2,0.2,0.6,0.2,0.8,0l0.9-0.9c2.9,3.1,4.6,7.1,4.7,11.4h-1.3c-0.3,0-0.5,0.2-0.5,0.5s0.2,0.5,0.5,0.5h1.3c0,1.6-0.3,3.1-0.8,4.7
		c-1.1-0.8-2.5-1.2-3.8-1.4c0.4-1.2,0.6-2.5,0.6-3.8c0-7.4-6-13.4-13.4-13.4C15,7.1,9,13.1,9,20.5s6,13.4,13.4,13.4c1,0,2-0.1,3-0.3
		c0.1,1.4,0.4,2.7,1.1,3.9C25.3,37.7,24.2,37.9,23,37.9L23,37.9z M40,26.4c2.2-6.6,0.5-13.9-4.4-18.9c0-0.1-0.1-0.1-0.1-0.1
		c-7.2-7.1-18.8-7.1-26,0c-0.1,0-0.1,0.1-0.1,0.1c-7.1,7.2-7.1,18.8,0,26c0,0,0,0.1,0.1,0.1c0,0,0,0,0.1,0.1
		c4.7,4.6,11.4,6.4,17.7,4.8c0.5,0.7,1.1,1.3,1.7,1.8c1.5,1.2,3.4,1.8,5.4,1.8c3.7,0,7-2.3,8.3-5.8C43.8,32.7,42.8,28.8,40,26.4
		L40,26.4z"/>
	<path class="st7" d="M37.4,30.5l-4.2,4.2L31,32.4c-0.2-0.2-0.6-0.2-0.8,0c-0.2,0.2-0.2,0.6,0,0.8l2.6,2.6c0.2,0.2,0.6,0.2,0.8,0
		l4.6-4.6c0.1-0.1,0.2-0.3,0.1-0.5c0-0.2-0.2-0.3-0.4-0.4C37.8,30.3,37.6,30.3,37.4,30.5z"/>
	<path class="st9" d="M37.4,30.5l-4.2,4.2L31,32.4c-0.2-0.2-0.6-0.2-0.8,0c-0.2,0.2-0.2,0.6,0,0.8l2.6,2.6c0.2,0.2,0.6,0.2,0.8,0
		l4.6-4.6c0.1-0.1,0.2-0.3,0.1-0.5c0-0.2-0.2-0.3-0.4-0.4C37.8,30.3,37.6,30.3,37.4,30.5z"/>
	<path class="st10" d="M28.6,16.8h-2.5c-0.1-1.4-0.9-2.6-1.9-3.4h4.4c0.3,0,0.5-0.2,0.5-0.5s-0.2-0.5-0.5-0.5H18.4
		c-0.3,0-0.5,0.2-0.5,0.5s0.2,0.5,0.5,0.5h2.9c2,0,3.6,1.5,3.9,3.4h-6.8c-0.3,0-0.5,0.2-0.5,0.5s0.2,0.5,0.5,0.5h6.8
		c-0.2,2-1.9,3.4-3.9,3.4h-2.9c-0.3,0-0.5,0.2-0.5,0.5c0,0.1,0.1,0.3,0.1,0.3l7.3,6.9c0.2,0.2,0.5,0.2,0.7,0c0.2-0.2,0.2-0.5,0-0.7
		l-6.4-6.1h1.7c2.5,0,4.6-1.9,4.8-4.4h2.5c0.3,0,0.5-0.2,0.5-0.5S28.9,16.8,28.6,16.8z"/>
	<path class="st11" d="M28.6,16.8h-2.5c-0.1-1.4-0.9-2.6-1.9-3.4h4.4c0.3,0,0.5-0.2,0.5-0.5s-0.2-0.5-0.5-0.5H18.4
		c-0.3,0-0.5,0.2-0.5,0.5s0.2,0.5,0.5,0.5h2.9c2,0,3.6,1.5,3.9,3.4h-6.8c-0.3,0-0.5,0.2-0.5,0.5s0.2,0.5,0.5,0.5h6.8
		c-0.2,2-1.9,3.4-3.9,3.4h-2.9c-0.3,0-0.5,0.2-0.5,0.5c0,0.1,0.1,0.3,0.1,0.3l7.3,6.9c0.2,0.2,0.5,0.2,0.7,0c0.2-0.2,0.2-0.5,0-0.7
		l-6.4-6.1h1.7c2.5,0,4.6-1.9,4.8-4.4h2.5c0.3,0,0.5-0.2,0.5-0.5S28.9,16.8,28.6,16.8z"/>
</g>
<g class="st0">
	<path class="st1" d="M38.9,18.7v18.7c0,2.5-2.1,4.6-4.6,4.6H12.7c-2.5,0-4.6-2.1-4.6-4.6V6.6c0-2.5,2.1-4.6,4.6-4.6h9.5
		c0.8,0,1.6,0.3,2.2,0.9L38,16.5C38.6,17.1,38.9,17.8,38.9,18.7z"/>
	<path class="st2" d="M38.9,18.7v18.7c0,2.5-2.1,4.6-4.6,4.6H12.7c-2.5,0-4.6-2.1-4.6-4.6V6.6c0-2.5,2.1-4.6,4.6-4.6h9.5
		c0.8,0,1.6,0.3,2.2,0.9L38,16.5C38.6,17.1,38.9,17.8,38.9,18.7z"/>
	<path class="st1" d="M23.5,2.8v11.5c0,1.7,1.4,3.1,3.1,3.1h11.5"/>
	<path class="st3" d="M23.5,2.8v11.5c0,1.7,1.4,3.1,3.1,3.1h11.5"/>
	<line class="st3" x1="15.8" y1="25.5" x2="31.2" y2="25.5"/>
	<line class="st3" x1="15.8" y1="33.2" x2="31.2" y2="33.2"/>
</g>
<g class="st0">
	<path class="st12" d="M31.2,35.4v-3.3c0.2-0.3,0.3-0.7,0.4-1c0-0.2,0.1-0.4,0.2-0.5c0.1-0.1,0.3-0.2,0.4-0.3
		c0.4-0.2,0.9-0.5,1.1-1.1c0.2-0.6,0-1.1-0.2-1.5c-0.1-0.2-0.2-0.4-0.2-0.5c0-0.1,0.1-0.3,0.2-0.5c0.2-0.4,0.4-1,0.2-1.5
		c-0.2-0.6-0.7-0.9-1.1-1.1c-0.1-0.1-0.3-0.2-0.4-0.3c-0.1-0.1-0.1-0.3-0.2-0.5c-0.1-0.4-0.3-1-0.7-1.3c-0.4-0.3-0.8-0.3-1.1-0.3
		c-0.1,0-0.2,0-0.4,0c-0.1,0-0.2,0-0.3,0c-0.1,0-0.2,0-0.2,0c-0.1,0-0.3-0.2-0.4-0.3c-0.4-0.3-0.8-0.7-1.4-0.7
		c-0.6,0-1.1,0.4-1.4,0.7c-0.1,0.1-0.3,0.3-0.4,0.3c0,0-0.1,0-0.2,0c-0.1,0-0.2,0-0.3,0c-0.1,0-0.2,0-0.4,0c-0.3,0-0.7,0-1.1,0.3
		c-0.5,0.4-0.6,0.9-0.7,1.3c0,0.2-0.1,0.4-0.2,0.5c-0.1,0.1-0.3,0.2-0.4,0.3c-0.4,0.2-0.9,0.5-1.1,1.1c-0.2,0.6,0,1.1,0.2,1.5
		c0.1,0.2,0.2,0.4,0.2,0.5c0,0.1-0.1,0.3-0.2,0.5c-0.2,0.4-0.4,1-0.2,1.5c0.2,0.6,0.7,0.9,1.1,1.1c0.1,0.1,0.3,0.2,0.4,0.3
		c0.1,0.1,0.1,0.3,0.2,0.5c0.1,0.3,0.2,0.7,0.4,1v3.3h-11V3.6H28v6.3c0,0.4,0.3,0.8,0.8,0.8h6.3v24.8H31.2z M29.7,39.8l-2.2-1.4
		c-0.3-0.2-0.6-0.2-0.8,0l-2.2,1.4v-7c0.1,0,0.2,0,0.2,0c0.1,0,0.2,0,0.3,0c0.1,0,0.2,0,0.2,0c0.1,0,0.3,0.2,0.4,0.3
		c0.4,0.3,0.8,0.7,1.4,0.7s1.1-0.4,1.4-0.7c0.1-0.1,0.3-0.3,0.4-0.3c0,0,0.1,0,0.2,0c0.1,0,0.2,0,0.3,0c0.1,0,0.2,0,0.2,0L29.7,39.8
		L29.7,39.8z M22.5,26.1c-0.1-0.1-0.1-0.4-0.1-0.5c0.1-0.1,0.3-0.2,0.4-0.3c0.3-0.2,0.6-0.4,0.8-0.7c0.2-0.3,0.3-0.7,0.4-1
		c0-0.1,0.1-0.4,0.1-0.5c0,0,0.1,0,0.2,0c0.1,0,0.2,0,0.3,0c0.1,0,0.2,0,0.4,0c0.3,0,0.5,0,0.7-0.1c0.4-0.1,0.6-0.4,0.9-0.6
		c0.1-0.1,0.4-0.3,0.5-0.3c0.1,0,0.3,0.2,0.5,0.3c0.3,0.2,0.5,0.4,0.9,0.6c0.2,0.1,0.4,0.1,0.7,0.1c0.1,0,0.2,0,0.4,0
		c0.1,0,0.2,0,0.3,0c0.1,0,0.2,0,0.2,0c0.1,0.1,0.1,0.3,0.1,0.5c0.1,0.3,0.2,0.7,0.4,1c0.2,0.3,0.5,0.5,0.8,0.7
		c0.1,0.1,0.3,0.2,0.4,0.3c0,0.1-0.1,0.3-0.1,0.5c-0.1,0.3-0.2,0.7-0.2,1.1c0,0.4,0.1,0.8,0.2,1.1c0.1,0.1,0.1,0.4,0.1,0.5
		c-0.1,0.1-0.3,0.2-0.4,0.3c-0.3,0.2-0.6,0.4-0.8,0.7c-0.2,0.3-0.3,0.7-0.4,1c0,0.1-0.1,0.4-0.1,0.5c0,0-0.1,0-0.2,0
		c-0.1,0-0.2,0-0.3,0c-0.1,0-0.2,0-0.4,0c-0.3,0-0.5,0-0.7,0.1c-0.4,0.1-0.6,0.4-0.9,0.6c-0.1,0.1-0.4,0.3-0.5,0.3
		c-0.1,0-0.3-0.2-0.5-0.3c-0.3-0.2-0.5-0.4-0.9-0.6c-0.2-0.1-0.4-0.1-0.7-0.1c-0.1,0-0.2,0-0.4,0c-0.1,0-0.2,0-0.3,0
		c-0.1,0-0.2,0-0.2,0c-0.1-0.1-0.1-0.3-0.1-0.5c-0.1-0.3-0.2-0.7-0.4-1c-0.2-0.3-0.5-0.5-0.8-0.7c-0.1-0.1-0.3-0.2-0.4-0.3
		c0-0.1,0.1-0.3,0.1-0.5c0.1-0.3,0.2-0.7,0.2-1.1S22.6,26.4,22.5,26.1z M29.6,4.7L34,9.1h-4.4V4.7z M36.7,9.8
		C36.7,9.8,36.7,9.8,36.7,9.8c0-0.1,0-0.1,0-0.1c0,0,0,0,0,0c0,0,0-0.1,0-0.1c0,0,0,0,0,0c0,0,0-0.1,0-0.1c0,0,0,0,0,0
		c0,0,0-0.1-0.1-0.1c0,0,0,0,0,0c0,0,0-0.1-0.1-0.1l-7.1-7.1c0,0-0.1,0-0.1-0.1c0,0,0,0,0,0c0,0-0.1,0-0.1-0.1c0,0,0,0,0,0
		c0,0-0.1,0-0.1,0c0,0,0,0,0,0C29,2,29,2,29,2c0,0,0,0,0,0c0,0-0.1,0-0.1,0c0,0,0,0,0,0c0,0,0,0,0,0H11.1c-0.4,0-0.8,0.3-0.8,0.8
		v33.4c0,0.4,0.3,0.8,0.8,0.8h11.8v4.2c0,0.3,0.2,0.5,0.4,0.7c0.2,0.1,0.6,0.1,0.8,0l3-1.9l3,1.9c0.1,0.1,0.3,0.1,0.4,0.1
		c0.1,0,0.3,0,0.4-0.1c0.2-0.1,0.4-0.4,0.4-0.7V37h4.7c0.4,0,0.8-0.3,0.8-0.8L36.7,9.8C36.7,9.8,36.7,9.8,36.7,9.8L36.7,9.8z"/>
	<path class="st12" d="M14.9,10.6H25c0.4,0,0.8-0.3,0.8-0.8S25.4,9.1,25,9.1H14.9c-0.4,0-0.8,0.3-0.8,0.8S14.5,10.6,14.9,10.6z"/>
	<path class="st12" d="M32.2,13H14.9c-0.4,0-0.8,0.3-0.8,0.8s0.3,0.8,0.8,0.8h17.2c0.4,0,0.8-0.3,0.8-0.8S32.6,13,32.2,13z"/>
	<path class="st12" d="M29,17H14.9c-0.4,0-0.8,0.4-0.8,0.8c0,0.4,0.3,0.8,0.8,0.8H29c0.4,0,0.8-0.3,0.8-0.8C29.8,17.3,29.5,17,29,17
		z"/>
</g>
<g>
	<path class="st13" d="M4.4,22c0-10.4,8.5-18.9,18.9-18.9c2.1,0,4.2,0.4,6.2,1c0.3,0.1,0.6-0.1,0.7-0.4c0.1-0.3-0.1-0.6-0.3-0.7
		C27.7,2.4,25.5,2,23.2,2c-11,0-20,9-20,20c0,2.3,0.4,4.7,1.2,6.9c0.1,0.2,0.2,0.3,0.4,0.4c0.2,0,0.4,0,0.5-0.2
		c0.1-0.2,0.2-0.4,0.1-0.6C4.8,26.4,4.4,24.2,4.4,22L4.4,22z"/>
	<path class="st14" d="M4.4,22c0-10.4,8.5-18.9,18.9-18.9c2.1,0,4.2,0.4,6.2,1c0.3,0.1,0.6-0.1,0.7-0.4c0.1-0.3-0.1-0.6-0.3-0.7
		C27.7,2.4,25.5,2,23.2,2c-11,0-20,9-20,20c0,2.3,0.4,4.7,1.2,6.9c0.1,0.2,0.2,0.3,0.4,0.4c0.2,0,0.4,0,0.5-0.2
		c0.1-0.2,0.2-0.4,0.1-0.6C4.8,26.4,4.4,24.2,4.4,22L4.4,22z"/>
	<path class="st13" d="M9.7,39.1l-0.8-4.3l4.4-0.6l-2.2,3c0,0,0,0,0,0c0,0,0,0,0,0L9.7,39.1z M41,14c-0.3,0.1-0.4,0.5-0.3,0.7
		c1,2.3,1.5,4.8,1.5,7.3c0,10.4-8.5,18.9-18.9,18.9c-3.9,0-7.7-1.2-10.9-3.5l2.7-3.6c0.1-0.2,0.1-0.4,0-0.6
		c-0.1-0.2-0.3-0.3-0.6-0.3l-6.3,0.8c-0.2,0-0.3,0.1-0.4,0.2c-0.1,0.1-0.1,0.3-0.1,0.4l1.1,6.2C8.8,40.8,9,41,9.2,41
		c0.2,0.1,0.5,0,0.6-0.2l1.8-2.5C15,40.7,19.1,42,23.2,42c11,0,20-9,20-20c0-2.6-0.5-5.3-1.5-7.7C41.6,14,41.3,13.9,41,14L41,14z"/>
	<path class="st14" d="M9.7,39.1l-0.8-4.3l4.4-0.6l-2.2,3c0,0,0,0,0,0c0,0,0,0,0,0L9.7,39.1z M41,14c-0.3,0.1-0.4,0.5-0.3,0.7
		c1,2.3,1.5,4.8,1.5,7.3c0,10.4-8.5,18.9-18.9,18.9c-3.9,0-7.7-1.2-10.9-3.5l2.7-3.6c0.1-0.2,0.1-0.4,0-0.6
		c-0.1-0.2-0.3-0.3-0.6-0.3l-6.3,0.8c-0.2,0-0.3,0.1-0.4,0.2c-0.1,0.1-0.1,0.3-0.1,0.4l1.1,6.2C8.8,40.8,9,41,9.2,41
		c0.2,0.1,0.5,0,0.6-0.2l1.8-2.5C15,40.7,19.1,42,23.2,42c11,0,20-9,20-20c0-2.6-0.5-5.3-1.5-7.7C41.6,14,41.3,13.9,41,14L41,14z"/>
	<path class="st13" d="M43.2,6.1h-9.5c-0.3,0-0.6,0.3-0.6,0.6c0,0.3,0.3,0.6,0.6,0.6h9.5c0.3,0,0.6-0.3,0.6-0.6
		C43.8,6.4,43.5,6.1,43.2,6.1z"/>
	<path class="st14" d="M43.2,6.1h-9.5c-0.3,0-0.6,0.3-0.6,0.6c0,0.3,0.3,0.6,0.6,0.6h9.5c0.3,0,0.6-0.3,0.6-0.6
		C43.8,6.4,43.5,6.1,43.2,6.1z"/>
	<path class="st13" d="M34.5,22.3h0.7c-0.1,2.7-1.2,5.3-3,7.3l-0.5-0.5c-0.2-0.2-0.6-0.2-0.8,0c-0.2,0.2-0.2,0.6,0,0.8l0.5,0.5
		c-2,1.8-4.6,2.9-7.3,3v-0.7c0-0.3-0.3-0.6-0.6-0.6c-0.3,0-0.6,0.3-0.6,0.6v0.7c-2.7-0.1-5.3-1.2-7.3-3l0.5-0.5
		c0.2-0.2,0.2-0.6,0-0.8c-0.2-0.2-0.6-0.2-0.8,0l-0.5,0.5c-1.8-2-2.9-4.6-3-7.3h0.7c0.3,0,0.6-0.3,0.6-0.6s-0.3-0.6-0.6-0.6h-0.7
		c0.1-2.7,1.2-5.3,3-7.3l0.5,0.5c0.1,0.1,0.4,0.2,0.6,0.2c0.2-0.1,0.4-0.2,0.4-0.4c0.1-0.2,0-0.4-0.2-0.6l-0.5-0.5
		c2-1.8,4.6-2.9,7.3-3v0.7c0,0.3,0.3,0.6,0.6,0.6c0.3,0,0.6-0.3,0.6-0.6V10c2.7,0.1,5.3,1.2,7.3,3l-0.5,0.5
		c-0.1,0.1-0.2,0.4-0.2,0.6c0.1,0.2,0.2,0.4,0.4,0.4s0.4,0,0.6-0.2l0.5-0.5c1.8,2,2.9,4.6,3,7.3h-0.7c-0.3,0-0.6,0.3-0.6,0.6
		C34,22.1,34.2,22.3,34.5,22.3L34.5,22.3z M32.6,12.6C32.6,12.6,32.6,12.6,32.6,12.6c-5.1-5-13.2-5-18.2,0c0,0,0,0-0.1,0
		c0,0,0,0,0,0.1c-5,5-5,13.1,0,18.1c0,0,0,0,0,0.1c0,0,0,0,0.1,0c5,5,13.1,5,18.1,0c0,0,0,0,0.1,0c0,0,0,0,0-0.1
		C37.6,25.8,37.6,17.7,32.6,12.6C32.6,12.7,32.6,12.7,32.6,12.6L32.6,12.6z"/>
	<path class="st14" d="M34.5,22.3h0.7c-0.1,2.7-1.2,5.3-3,7.3l-0.5-0.5c-0.2-0.2-0.6-0.2-0.8,0c-0.2,0.2-0.2,0.6,0,0.8l0.5,0.5
		c-2,1.8-4.6,2.9-7.3,3v-0.7c0-0.3-0.3-0.6-0.6-0.6c-0.3,0-0.6,0.3-0.6,0.6v0.7c-2.7-0.1-5.3-1.2-7.3-3l0.5-0.5
		c0.2-0.2,0.2-0.6,0-0.8c-0.2-0.2-0.6-0.2-0.8,0l-0.5,0.5c-1.8-2-2.9-4.6-3-7.3h0.7c0.3,0,0.6-0.3,0.6-0.6s-0.3-0.6-0.6-0.6h-0.7
		c0.1-2.7,1.2-5.3,3-7.3l0.5,0.5c0.1,0.1,0.4,0.2,0.6,0.2c0.2-0.1,0.4-0.2,0.4-0.4c0.1-0.2,0-0.4-0.2-0.6l-0.5-0.5
		c2-1.8,4.6-2.9,7.3-3v0.7c0,0.3,0.3,0.6,0.6,0.6c0.3,0,0.6-0.3,0.6-0.6V10c2.7,0.1,5.3,1.2,7.3,3l-0.5,0.5
		c-0.1,0.1-0.2,0.4-0.2,0.6c0.1,0.2,0.2,0.4,0.4,0.4s0.4,0,0.6-0.2l0.5-0.5c1.8,2,2.9,4.6,3,7.3h-0.7c-0.3,0-0.6,0.3-0.6,0.6
		C34,22.1,34.2,22.3,34.5,22.3L34.5,22.3z M32.6,12.6C32.6,12.6,32.6,12.6,32.6,12.6c-5.1-5-13.2-5-18.2,0c0,0,0,0-0.1,0
		c0,0,0,0,0,0.1c-5,5-5,13.1,0,18.1c0,0,0,0,0,0.1c0,0,0,0,0.1,0c5,5,13.1,5,18.1,0c0,0,0,0,0.1,0c0,0,0,0,0-0.1
		C37.6,25.8,37.6,17.7,32.6,12.6C32.6,12.7,32.6,12.7,32.6,12.6L32.6,12.6z"/>
	<path class="st15" d="M28.2,18.6h-2.1c-0.1-1.2-0.8-2.3-1.7-2.9h3.8c0.2,0,0.4-0.2,0.4-0.4s-0.2-0.4-0.4-0.4h-8.8
		c-0.2,0-0.4,0.2-0.4,0.4s0.2,0.4,0.4,0.4h2.5c1.7,0,3.1,1.3,3.3,2.9h-5.9c-0.2,0-0.4,0.2-0.4,0.4s0.2,0.4,0.4,0.4h5.9
		c-0.2,1.7-1.6,3-3.3,3h-2.5c-0.2,0-0.4,0.2-0.4,0.4c0,0.1,0.1,0.2,0.1,0.3l6.3,6c0.2,0.2,0.4,0.2,0.6,0c0.2-0.2,0.2-0.4,0-0.6
		l-5.6-5.3h1.5c2.2,0,4-1.7,4.2-3.8h2.1c0.2,0,0.4-0.2,0.4-0.4S28.4,18.6,28.2,18.6z"/>
	<path class="st14" d="M28.2,18.6h-2.1c-0.1-1.2-0.8-2.3-1.7-2.9h3.8c0.2,0,0.4-0.2,0.4-0.4s-0.2-0.4-0.4-0.4h-8.8
		c-0.2,0-0.4,0.2-0.4,0.4s0.2,0.4,0.4,0.4h2.5c1.7,0,3.1,1.3,3.3,2.9h-5.9c-0.2,0-0.4,0.2-0.4,0.4s0.2,0.4,0.4,0.4h5.9
		c-0.2,1.7-1.6,3-3.3,3h-2.5c-0.2,0-0.4,0.2-0.4,0.4c0,0.1,0.1,0.2,0.1,0.3l6.3,6c0.2,0.2,0.4,0.2,0.6,0c0.2-0.2,0.2-0.4,0-0.6
		l-5.6-5.3h1.5c2.2,0,4-1.7,4.2-3.8h2.1c0.2,0,0.4-0.2,0.4-0.4S28.4,18.6,28.2,18.6z"/>
</g>
<g class="st0">
	<path class="st4" d="M44.7,37.6c-0.3,0.6-0.9,1-1.6,1H27.9c-0.7,0-1.3-0.4-1.6-1c-0.3-0.6-0.3-1.3,0-1.9c0,0,0,0,0,0l7.5-13.1
		c0.3-0.5,0.9-0.9,1.6-0.9c0.6,0,1.2,0.3,1.6,0.9l7.5,13.1c0,0,0,0,0,0C45,36.3,45,37,44.7,37.6L44.7,37.6z M25.4,35.2
		c-0.2,0.3-0.3,0.7-0.4,1.1c-2,0.9-4.1,1.4-6.2,1.5v-1.2c0-0.3-0.2-0.5-0.5-0.5c-0.3,0-0.5,0.2-0.5,0.5v1.2
		c-3.9-0.1-7.6-1.7-10.5-4.3l0.8-0.8c0.2-0.2,0.2-0.6,0-0.8c-0.2-0.2-0.6-0.2-0.8,0l-0.8,0.8C3.8,29.8,2.2,26,2.1,22.1h1.2
		c0.3,0,0.5-0.2,0.5-0.5c0-0.3-0.2-0.5-0.5-0.5H2.1c0.1-3.9,1.7-7.6,4.3-10.5l0.8,0.8c0.2,0.2,0.6,0.2,0.8,0c0.2-0.2,0.2-0.6,0-0.8
		L7.2,9.8c2.8-2.7,6.6-4.2,10.5-4.3v1.2c0,0.3,0.2,0.5,0.5,0.5c0.3,0,0.5-0.2,0.5-0.5V5.4c3.9,0.1,7.6,1.7,10.5,4.3l-0.8,0.8
		c-0.1,0.1-0.2,0.3-0.1,0.5c0.1,0.2,0.2,0.3,0.4,0.4c0.2,0.1,0.4,0,0.5-0.1l0.8-0.8c2.6,2.8,4.2,6.5,4.3,10.3
		c-0.6,0.2-1.1,0.6-1.4,1.2c0,0,0,0,0,0L25.4,35.2z M38,22C38,22,38,22,38,22c-0.5-0.9-1.5-1.4-2.5-1.4c0,0,0,0,0,0
		c-0.2-4.2-2-8.2-5-11.2c0,0,0,0,0,0c0,0,0,0,0,0c0,0-0.1-0.1-0.1-0.1C23.6,2.7,12.8,2.7,6.1,9.3C6.1,9.4,6,9.4,6,9.5
		C-0.7,16.2-0.7,27,6,33.7c0,0,0,0,0.1,0.1c0,0,0,0,0.1,0.1c5,5,12.5,6.4,19,3.6c0.1,0.3,0.2,0.5,0.3,0.7c0.5,0.9,1.5,1.5,2.6,1.5
		h15.1c1.1,0,2.1-0.6,2.6-1.5c0.5-0.9,0.5-2.1-0.1-3L38,22z"/>
	<path class="st6" d="M44.7,37.6c-0.3,0.6-0.9,1-1.6,1H27.9c-0.7,0-1.3-0.4-1.6-1c-0.3-0.6-0.3-1.3,0-1.9c0,0,0,0,0,0l7.5-13.1
		c0.3-0.5,0.9-0.9,1.6-0.9c0.6,0,1.2,0.3,1.6,0.9l7.5,13.1c0,0,0,0,0,0C45,36.3,45,37,44.7,37.6L44.7,37.6z M25.4,35.2
		c-0.2,0.3-0.3,0.7-0.4,1.1c-2,0.9-4.1,1.4-6.2,1.5v-1.2c0-0.3-0.2-0.5-0.5-0.5c-0.3,0-0.5,0.2-0.5,0.5v1.2
		c-3.9-0.1-7.6-1.7-10.5-4.3l0.8-0.8c0.2-0.2,0.2-0.6,0-0.8c-0.2-0.2-0.6-0.2-0.8,0l-0.8,0.8C3.8,29.8,2.2,26,2.1,22.1h1.2
		c0.3,0,0.5-0.2,0.5-0.5c0-0.3-0.2-0.5-0.5-0.5H2.1c0.1-3.9,1.7-7.6,4.3-10.5l0.8,0.8c0.2,0.2,0.6,0.2,0.8,0c0.2-0.2,0.2-0.6,0-0.8
		L7.2,9.8c2.8-2.7,6.6-4.2,10.5-4.3v1.2c0,0.3,0.2,0.5,0.5,0.5c0.3,0,0.5-0.2,0.5-0.5V5.4c3.9,0.1,7.6,1.7,10.5,4.3l-0.8,0.8
		c-0.1,0.1-0.2,0.3-0.1,0.5c0.1,0.2,0.2,0.3,0.4,0.4c0.2,0.1,0.4,0,0.5-0.1l0.8-0.8c2.6,2.8,4.2,6.5,4.3,10.3
		c-0.6,0.2-1.1,0.6-1.4,1.2c0,0,0,0,0,0L25.4,35.2z M38,22C38,22,38,22,38,22c-0.5-0.9-1.5-1.4-2.5-1.4c0,0,0,0,0,0
		c-0.2-4.2-2-8.2-5-11.2c0,0,0,0,0,0c0,0,0,0,0,0c0,0-0.1-0.1-0.1-0.1C23.6,2.7,12.8,2.7,6.1,9.3C6.1,9.4,6,9.4,6,9.5
		C-0.7,16.2-0.7,27,6,33.7c0,0,0,0,0.1,0.1c0,0,0,0,0.1,0.1c5,5,12.5,6.4,19,3.6c0.1,0.3,0.2,0.5,0.3,0.7c0.5,0.9,1.5,1.5,2.6,1.5
		h15.1c1.1,0,2.1-0.6,2.6-1.5c0.5-0.9,0.5-2.1-0.1-3L38,22z"/>
	<path class="st4" d="M35.5,26.1c-0.3,0-0.5,0.2-0.5,0.5v6.5c0,0.3,0.2,0.5,0.5,0.5c0.3,0,0.5-0.2,0.5-0.5v-6.5
		C36,26.3,35.8,26.1,35.5,26.1z"/>
	<path class="st6" d="M35.5,26.1c-0.3,0-0.5,0.2-0.5,0.5v6.5c0,0.3,0.2,0.5,0.5,0.5c0.3,0,0.5-0.2,0.5-0.5v-6.5
		C36,26.3,35.8,26.1,35.5,26.1z"/>
	<path class="st4" d="M35.5,34.7c-0.3,0-0.5,0.2-0.5,0.5v0.6c0,0.3,0.2,0.5,0.5,0.5c0.3,0,0.5-0.2,0.5-0.5v-0.6
		C36,34.9,35.8,34.7,35.5,34.7z"/>
	<path class="st6" d="M35.5,34.7c-0.3,0-0.5,0.2-0.5,0.5v0.6c0,0.3,0.2,0.5,0.5,0.5c0.3,0,0.5-0.2,0.5-0.5v-0.6
		C36,34.9,35.8,34.7,35.5,34.7z"/>
	<path class="st4" d="M18.2,33C12,33,6.9,27.9,6.9,21.6S12,10.2,18.2,10.2c6.3,0,11.4,5.1,11.4,11.4C29.6,27.9,24.5,33,18.2,33z
		 M18.2,9.1c-6.9,0-12.5,5.6-12.5,12.5s5.6,12.5,12.5,12.5c6.9,0,12.5-5.6,12.5-12.5S25.1,9.1,18.2,9.1z"/>
	<path class="st6" d="M18.2,33C12,33,6.9,27.9,6.9,21.6S12,10.2,18.2,10.2c6.3,0,11.4,5.1,11.4,11.4C29.6,27.9,24.5,33,18.2,33z
		 M18.2,9.1c-6.9,0-12.5,5.6-12.5,12.5s5.6,12.5,12.5,12.5c6.9,0,12.5-5.6,12.5-12.5S25.1,9.1,18.2,9.1z"/>
	<line class="st16" x1="13.1" y1="28.2" x2="23.7" y2="16.6"/>
	<path class="st17" d="M14.5,16.1c0.3,0,0.5,0,0.7,0.1c0.2,0.1,0.4,0.2,0.6,0.4c0.2,0.2,0.3,0.4,0.4,0.6c0.1,0.2,0.1,0.5,0.1,0.7
		c0,0.3,0,0.5-0.1,0.7c-0.1,0.2-0.2,0.4-0.4,0.6c-0.2,0.2-0.4,0.3-0.6,0.4C15,19.9,14.8,20,14.5,20s-0.5,0-0.7-0.1
		c-0.2-0.1-0.4-0.2-0.6-0.4s-0.3-0.4-0.4-0.6c-0.1-0.2-0.1-0.5-0.1-0.7c0-0.3,0-0.5,0.1-0.7c0.1-0.2,0.2-0.4,0.4-0.6
		s0.4-0.3,0.6-0.4C14,16.2,14.3,16.1,14.5,16.1z"/>
	<path class="st17" d="M22.2,23.9c0.3,0,0.5,0,0.7,0.1c0.2,0.1,0.4,0.2,0.6,0.4c0.2,0.2,0.3,0.4,0.4,0.6c0.1,0.2,0.1,0.5,0.1,0.7
		c0,0.3,0,0.5-0.1,0.7c-0.1,0.2-0.2,0.4-0.4,0.6c-0.2,0.2-0.4,0.3-0.6,0.4c-0.2,0.1-0.5,0.1-0.7,0.1s-0.5,0-0.7-0.1
		c-0.2-0.1-0.4-0.2-0.6-0.4s-0.3-0.4-0.4-0.6c-0.1-0.2-0.1-0.5-0.1-0.7c0-0.3,0-0.5,0.1-0.7c0.1-0.2,0.2-0.4,0.4-0.6
		s0.4-0.3,0.6-0.4C21.7,23.9,22,23.9,22.2,23.9z"/>
</g>
</svg>
